<svg xmlns="http://www.w3.org/2000/svg" xmlns:xlink="http://www.w3.org/1999/xlink" width="500" zoomAndPan="magnify" viewBox="0 0 375 374.999991" height="500" preserveAspectRatio="xMidYMid meet" version="1.2"><defs><clipPath id="7f31e4ddf8"><path d="M 195 85.320312 L 217 85.320312 L 217 90 L 195 90 Z M 195 85.320312 "/></clipPath><clipPath id="e8930e7689"><path d="M 170 85.320312 L 193 85.320312 L 193 89 L 170 89 Z M 170 85.320312 "/></clipPath><clipPath id="c7d2bb1a81"><path d="M 87.363281 162 L 91 162 L 91 185 L 87.363281 185 Z M 87.363281 162 "/></clipPath><clipPath id="107aa4700b"><path d="M 87.363281 178 L 90 178 L 90 200 L 87.363281 200 Z M 87.363281 178 "/></clipPath><clipPath id="e4f5915562"><path d="M 106 235 L 121 235 L 121 247.320312 L 106 247.320312 Z M 106 235 "/></clipPath><clipPath id="712279f867"><path d="M 285 149 L 287.613281 149 L 287.613281 162 L 285 162 Z M 285 149 "/></clipPath><clipPath id="26c0cd13cb"><path d="M 285 149 L 287.613281 149 L 287.613281 155 L 285 155 Z M 285 149 "/></clipPath></defs><g id="3fd429ae5b"><path style=" stroke:none;fill-rule:nonzero;fill:#5271ff;fill-opacity:1;" d="M 146.171875 96 C 146.347656 95.433594 146.605469 95.074219 146.945312 94.914062 L 151.5 92.929688 C 155.777344 91.386719 161.539062 89.46875 165.917969 88.238281 L 168.070312 87.742188 C 167.707031 87.882812 167.433594 88.246094 167.253906 88.835938 C 163.96875 89.972656 159.601562 91.535156 156.402344 92.886719 C 153.3125 93.742188 149.195312 94.917969 146.171875 96 "/><path style=" stroke:none;fill-rule:nonzero;fill:#5271ff;fill-opacity:1;" d="M 124.839844 109.289062 C 124.96875 108.867188 125.148438 108.566406 125.375 108.378906 L 125.453125 108.320312 C 134.0625 101.890625 134.226562 101.765625 139.070312 98.988281 L 143.847656 96.417969 C 143.519531 96.582031 143.273438 96.9375 143.105469 97.484375 C 140.140625 99.371094 136.207031 101.921875 133.375 104 C 130.773438 105.519531 127.316406 107.578125 124.839844 109.289062 "/><path style=" stroke:none;fill-rule:nonzero;fill:#5271ff;fill-opacity:1;" d="M 283.554688 144.84375 L 283.644531 144.902344 L 285.636719 149.710938 L 283.554688 144.84375 "/><path style=" stroke:none;fill-rule:nonzero;fill:#5271ff;fill-opacity:1;" d="M 277.066406 133.542969 C 277.101562 133.4375 277.152344 133.371094 277.214844 133.347656 C 278.914062 136.210938 281.148438 140.050781 282.671875 143.007812 L 285.636719 149.710938 L 282.554688 143.167969 C 280.957031 140.253906 278.800781 136.378906 277.066406 133.542969 "/><path style=" stroke:none;fill-rule:nonzero;fill:#5271ff;fill-opacity:1;" d="M 261.15625 114.546875 C 261.234375 114.304688 261.347656 114.152344 261.496094 114.09375 C 263.800781 116.386719 266.851562 119.46875 269.019531 121.890625 C 270.972656 124.453125 273.554688 127.886719 275.378906 130.542969 C 275.304688 130.574219 275.242188 130.648438 275.207031 130.773438 C 273.25 128.273438 270.617188 124.953125 268.503906 122.582031 C 266.339844 120.136719 263.433594 116.890625 261.15625 114.546875 "/><path style=" stroke:none;fill-rule:nonzero;fill:#5271ff;fill-opacity:1;" d="M 241.546875 100.097656 C 241.660156 99.734375 241.832031 99.507812 242.054688 99.421875 C 244.835938 101.089844 248.527344 103.34375 251.203125 105.171875 C 253.613281 107.136719 256.804688 109.785156 259.105469 111.875 C 258.945312 111.9375 258.824219 112.097656 258.746094 112.355469 C 256.265625 110.496094 252.933594 108.035156 250.335938 106.339844 C 247.730469 104.425781 244.242188 101.890625 241.546875 100.097656 "/><path style=" stroke:none;fill-rule:nonzero;fill:#5271ff;fill-opacity:1;" d="M 219.242188 90.609375 C 219.382812 90.144531 219.597656 89.855469 219.886719 89.746094 C 223.003906 90.738281 227.15625 92.089844 230.210938 93.269531 C 232.949219 94.585938 236.589844 96.367188 239.246094 97.839844 C 239.015625 97.929688 238.839844 98.164062 238.722656 98.542969 C 235.84375 97.367188 231.988281 95.828125 229.039062 94.847656 C 226.121094 93.523438 222.222656 91.777344 219.242188 90.609375 "/><g clip-rule="nonzero" clip-path="url(#7f31e4ddf8)"><path style=" stroke:none;fill-rule:nonzero;fill:#5271ff;fill-opacity:1;" d="M 195.234375 86.488281 C 195.402344 85.949219 195.652344 85.617188 195.984375 85.488281 C 199.21875 85.746094 203.53125 86.105469 206.742188 86.554688 L 207.1875 86.628906 C 210.082031 87.234375 213.941406 88.070312 216.792969 88.859375 C 216.5 88.972656 216.277344 89.265625 216.132812 89.742188 C 212.984375 89.296875 208.785156 88.734375 205.613281 88.503906 C 202.515625 87.835938 198.371094 86.972656 195.234375 86.488281 "/></g><g clip-rule="nonzero" clip-path="url(#e8930e7689)"><path style=" stroke:none;fill-rule:nonzero;fill:#5271ff;fill-opacity:1;" d="M 170.53125 88.15625 C 170.710938 87.570312 170.984375 87.210938 171.34375 87.070312 L 175.601562 86.339844 C 178.078125 86.078125 181.375 85.632812 183.859375 85.46875 L 186.90625 85.320312 L 192.738281 85.355469 C 192.398438 85.484375 192.144531 85.820312 191.976562 86.371094 C 188.695312 86.695312 184.320312 87.167969 181.070312 87.714844 C 177.90625 87.773438 173.683594 87.882812 170.53125 88.15625 "/></g><path style=" stroke:none;fill-rule:nonzero;fill:#5271ff;fill-opacity:1;" d="M 107.902344 126.792969 C 107.980469 126.539062 108.078125 126.328125 108.199219 126.167969 C 109.84375 124.160156 111.976562 121.429688 113.707031 119.488281 C 116.382812 116.734375 119.992188 113.097656 122.832031 110.515625 C 122.621094 110.699219 122.453125 110.992188 122.328125 111.390625 C 119.925781 113.839844 116.742188 117.132812 114.492188 119.722656 C 112.460938 121.792969 109.773438 124.582031 107.902344 126.792969 "/><path style=" stroke:none;fill-rule:nonzero;fill:#5271ff;fill-opacity:1;" d="M 283.457031 145.167969 C 283.449219 145.097656 283.445312 145.035156 283.449219 144.988281 L 285.636719 149.710938 L 283.457031 145.167969 "/><path style=" stroke:none;fill-rule:nonzero;fill:#5271ff;fill-opacity:1;" d="M 269.808594 125.277344 C 269.765625 124.863281 269.746094 124.519531 269.757812 124.242188 C 271.773438 126.671875 274.4375 129.941406 276.292969 132.496094 C 278.023438 135.320312 280.3125 139.101562 281.910156 142 C 281.90625 142.082031 281.910156 142.183594 281.925781 142.300781 C 280.316406 139.726562 278.144531 136.304688 276.363281 133.847656 C 274.4375 131.246094 271.058594 128.261719 269.808594 125.277344 "/><path style=" stroke:none;fill-rule:nonzero;fill:#5271ff;fill-opacity:1;" d="M 251.953125 109.597656 C 251.871094 108.875 251.84375 108.273438 251.863281 107.792969 C 254.386719 109.550781 257.730469 111.925781 260.128906 113.851562 C 262.40625 116.199219 265.429688 119.355469 267.601562 121.804688 C 267.589844 122.109375 267.609375 122.488281 267.660156 122.945312 C 265.496094 121.050781 262.585938 118.542969 260.285156 116.820312 C 257.8125 114.617188 253.53125 112.503906 251.953125 109.597656 "/><path style=" stroke:none;fill-rule:nonzero;fill:#5271ff;fill-opacity:1;" d="M 230.886719 98.496094 C 230.777344 97.511719 230.738281 96.691406 230.761719 96.035156 C 233.65625 97.082031 237.507812 98.515625 240.324219 99.757812 C 243.023438 101.574219 246.609375 104.015625 249.226562 105.949219 C 249.203125 106.460938 249.234375 107.089844 249.320312 107.851562 C 246.71875 106.667969 243.234375 105.121094 240.550781 104.148438 C 237.675781 102.414062 233.832031 100.117188 230.886719 98.496094 "/><path style=" stroke:none;fill-rule:nonzero;fill:#5271ff;fill-opacity:1;" d="M 207.617188 92.359375 C 207.480469 91.164062 207.433594 90.167969 207.46875 89.371094 C 210.597656 89.675781 214.773438 90.113281 217.878906 90.632812 C 220.871094 91.84375 224.851562 93.488281 227.777344 94.847656 C 227.75 95.527344 227.792969 96.375 227.90625 97.390625 C 224.996094 96.953125 221.101562 96.40625 218.164062 96.195312 C 215.019531 94.996094 210.816406 93.417969 207.617188 92.359375 "/><path style=" stroke:none;fill-rule:nonzero;fill:#5271ff;fill-opacity:1;" d="M 183.140625 91.550781 C 182.988281 90.210938 182.929688 89.097656 182.96875 88.199219 C 186.207031 87.726562 190.53125 87.128906 193.792969 86.878906 C 196.945312 87.417969 201.148438 88.171875 204.261719 88.890625 C 204.230469 89.707031 204.28125 90.71875 204.417969 91.9375 C 201.320312 92.269531 197.191406 92.753906 194.125 93.316406 C 190.839844 92.726562 186.453125 91.964844 183.140625 91.550781 "/><path style=" stroke:none;fill-rule:nonzero;fill:#5271ff;fill-opacity:1;" d="M 158.453125 96.449219 C 158.292969 95.039062 158.234375 93.867188 158.273438 92.925781 C 161.484375 91.644531 165.78125 89.96875 169.070312 88.90625 C 172.25 88.707031 176.496094 88.472656 179.679688 88.480469 C 179.640625 89.382812 179.699219 90.511719 179.851562 91.863281 C 176.699219 92.988281 172.5 94.527344 169.429688 95.859375 C 166.132812 95.960938 161.734375 96.132812 158.453125 96.449219 "/><path style=" stroke:none;fill-rule:nonzero;fill:#5271ff;fill-opacity:1;" d="M 135.171875 107.09375 C 135.011719 105.699219 134.953125 104.539062 134.992188 103.605469 C 137.886719 101.585938 141.769531 98.917969 144.789062 97.089844 C 147.839844 96.089844 151.921875 94.789062 155.035156 94.015625 C 154.996094 94.960938 155.054688 96.136719 155.210938 97.546875 C 152.152344 99.460938 148.089844 102.046875 145.15625 104.152344 C 142.136719 104.960938 138.121094 106.070312 135.171875 107.09375 "/><path style=" stroke:none;fill-rule:nonzero;fill:#5271ff;fill-opacity:1;" d="M 115.933594 122.199219 C 115.785156 120.902344 115.734375 119.824219 115.769531 118.957031 C 118.09375 116.40625 121.214844 113.019531 123.6875 110.613281 C 126.195312 108.980469 129.566406 106.832031 132.191406 105.398438 C 132.152344 106.324219 132.210938 107.476562 132.367188 108.863281 C 129.816406 111.363281 126.441406 114.71875 124.035156 117.359375 C 121.5625 118.742188 118.285156 120.621094 115.933594 122.199219 "/><path style=" stroke:none;fill-rule:nonzero;fill:#5271ff;fill-opacity:1;" d="M 101.300781 140.773438 C 101.171875 139.644531 101.125 138.707031 101.15625 137.953125 C 102.855469 135.015625 105.152344 131.109375 107.011719 128.269531 C 108.917969 126.125 111.492188 123.285156 113.554688 121.292969 C 113.519531 122.144531 113.574219 123.210938 113.714844 124.488281 C 111.746094 127.402344 109.144531 131.308594 107.324219 134.320312 C 105.460938 136.199219 102.996094 138.738281 101.300781 140.773438 "/><path style=" stroke:none;fill-rule:nonzero;fill:#5271ff;fill-opacity:1;" d="M 91.679688 161.859375 C 91.578125 160.960938 91.542969 160.214844 91.566406 159.617188 C 92.589844 156.433594 93.984375 152.195312 95.175781 149.074219 C 96.4375 146.527344 98.148438 143.144531 99.585938 140.695312 C 99.554688 141.429688 99.601562 142.347656 99.726562 143.445312 C 98.386719 146.621094 96.625 150.867188 95.433594 154.101562 C 94.242188 156.394531 92.679688 159.476562 91.679688 161.859375 "/><g clip-rule="nonzero" clip-path="url(#c7d2bb1a81)"><path style=" stroke:none;fill-rule:nonzero;fill:#5271ff;fill-opacity:1;" d="M 87.480469 184.515625 C 87.414062 183.898438 87.386719 183.386719 87.402344 182.976562 L 87.46875 181.898438 L 87.902344 176.996094 L 88.792969 170.796875 C 89.332031 168.34375 90.019531 165.058594 90.691406 162.640625 C 90.667969 163.214844 90.707031 163.933594 90.800781 164.796875 C 90.140625 168.078125 89.28125 172.460938 88.777344 175.769531 C 88.320312 178.382812 87.746094 181.875 87.480469 184.515625 "/></g><path style=" stroke:none;fill-rule:nonzero;fill:#5271ff;fill-opacity:1;" d="M 277.367188 136.148438 C 277.351562 136.09375 277.339844 136.039062 277.328125 135.988281 C 277.253906 135.65625 277.191406 135.355469 277.144531 135.085938 C 278.835938 137.578125 281.058594 140.929688 282.570312 143.53125 L 285.636719 149.710938 L 282.746094 144.382812 C 281.171875 141.886719 278.566406 138.847656 277.367188 136.148438 "/><path style=" stroke:none;fill-rule:nonzero;fill:#5271ff;fill-opacity:1;" d="M 261.839844 120.535156 C 261.8125 120.410156 261.78125 120.285156 261.753906 120.160156 C 261.582031 119.398438 261.441406 118.707031 261.335938 118.089844 C 263.558594 119.859375 266.503906 122.253906 268.585938 124.1875 C 270.636719 126.679688 273.351562 130.019531 275.296875 132.597656 C 275.351562 132.914062 275.421875 133.265625 275.511719 133.65625 C 275.527344 133.722656 275.542969 133.785156 275.558594 133.851562 C 273.75 132.007812 271.316406 129.570312 269.355469 127.894531 C 267.125 125.660156 263.417969 123.265625 261.839844 120.535156 "/><path style=" stroke:none;fill-rule:nonzero;fill:#5271ff;fill-opacity:1;" d="M 242.570312 109.0625 C 242.527344 108.875 242.484375 108.6875 242.445312 108.5 C 242.183594 107.359375 241.976562 106.328125 241.8125 105.40625 C 244.4375 106.425781 247.933594 107.832031 250.464844 109.0625 C 253.035156 111.152344 256.449219 113.960938 258.933594 116.152344 C 259.050781 116.8125 259.199219 117.550781 259.386719 118.367188 C 259.414062 118.496094 259.445312 118.632812 259.476562 118.765625 C 257.199219 117.664062 254.140625 116.222656 251.765625 115.335938 C 249.027344 113.425781 244.484375 111.800781 242.570312 109.0625 "/><path style=" stroke:none;fill-rule:nonzero;fill:#5271ff;fill-opacity:1;" d="M 220.546875 102.039062 C 220.488281 101.796875 220.433594 101.558594 220.378906 101.324219 C 220.050781 99.867188 219.785156 98.550781 219.578125 97.375 C 222.476562 97.636719 226.34375 98.023438 229.214844 98.519531 C 232.171875 100.140625 236.105469 102.328125 238.996094 104.0625 C 239.164062 105.023438 239.382812 106.097656 239.652344 107.285156 C 239.695312 107.476562 239.738281 107.671875 239.785156 107.867188 C 237.148438 107.523438 233.628906 107.097656 230.972656 106.984375 C 227.859375 105.464844 223.699219 103.460938 220.546875 102.039062 "/><path style=" stroke:none;fill-rule:nonzero;fill:#5271ff;fill-opacity:1;" d="M 196.75 99.765625 C 196.683594 99.484375 196.621094 99.210938 196.558594 98.933594 C 196.175781 97.242188 195.867188 95.714844 195.625 94.347656 C 198.675781 93.839844 202.75 93.199219 205.828125 92.921875 C 209.039062 94 213.316406 95.460938 216.476562 96.675781 C 216.6875 97.882812 216.960938 99.230469 217.300781 100.722656 C 217.351562 100.964844 217.410156 101.210938 217.46875 101.457031 C 214.597656 101.878906 210.773438 102.476562 207.945312 103.113281 C 204.597656 102.070312 200.132812 100.691406 196.75 99.765625 "/><path style=" stroke:none;fill-rule:nonzero;fill:#5271ff;fill-opacity:1;" d="M 172.171875 102.546875 C 172.101562 102.246094 172.03125 101.945312 171.964844 101.648438 C 171.550781 99.8125 171.214844 98.15625 170.953125 96.675781 C 174.03125 95.394531 178.152344 93.714844 181.308594 92.644531 C 184.636719 93.09375 189.074219 93.722656 192.371094 94.34375 C 192.613281 95.730469 192.929688 97.277344 193.316406 98.996094 C 193.382812 99.273438 193.445312 99.554688 193.511719 99.835938 C 190.53125 101.023438 186.566406 102.636719 183.667969 104.007812 C 180.226562 103.519531 175.632812 102.886719 172.171875 102.546875 "/><path style=" stroke:none;fill-rule:nonzero;fill:#5271ff;fill-opacity:1;" d="M 147.847656 110.667969 C 147.773438 110.359375 147.703125 110.050781 147.636719 109.746094 C 147.214844 107.878906 146.871094 106.191406 146.605469 104.679688 C 149.578125 102.625 153.5625 99.914062 156.65625 98.046875 C 159.957031 97.78125 164.367188 97.460938 167.675781 97.40625 C 167.9375 98.894531 168.277344 100.5625 168.695312 102.40625 C 168.761719 102.707031 168.832031 103.007812 168.902344 103.316406 C 165.933594 105.246094 161.988281 107.855469 159.125 109.941406 C 155.738281 110.097656 151.21875 110.332031 147.847656 110.667969 "/><path style=" stroke:none;fill-rule:nonzero;fill:#5271ff;fill-opacity:1;" d="M 126.441406 123.351562 C 126.371094 123.054688 126.304688 122.761719 126.238281 122.472656 C 125.835938 120.679688 125.507812 119.058594 125.25 117.613281 C 127.710938 115.003906 131.015625 111.542969 133.621094 109.078125 C 136.570312 108.125 140.523438 106.890625 143.535156 106.148438 C 143.800781 107.65625 144.144531 109.339844 144.5625 111.207031 C 144.632812 111.507812 144.703125 111.8125 144.773438 112.121094 C 142.113281 114.675781 138.582031 118.105469 136.050781 120.789062 C 133.152344 121.492188 129.289062 122.457031 126.441406 123.351562 "/><path style=" stroke:none;fill-rule:nonzero;fill:#5271ff;fill-opacity:1;" d="M 109.34375 139.449219 C 109.28125 139.183594 109.222656 138.917969 109.164062 138.65625 C 108.796875 137.046875 108.503906 135.589844 108.273438 134.285156 C 110.15625 131.292969 112.691406 127.316406 114.722656 124.421875 C 117.085938 122.914062 120.261719 120.9375 122.738281 119.628906 C 122.992188 121.0625 123.316406 122.664062 123.714844 124.4375 C 123.78125 124.726562 123.847656 125.015625 123.917969 125.308594 C 121.789062 128.265625 118.96875 132.21875 116.972656 135.261719 C 114.648438 136.453125 111.5625 138.070312 109.34375 139.449219 "/><path style=" stroke:none;fill-rule:nonzero;fill:#5271ff;fill-opacity:1;" d="M 96.976562 158.089844 C 96.925781 157.867188 96.875 157.644531 96.828125 157.425781 C 96.523438 156.082031 96.273438 154.867188 96.085938 153.777344 C 97.339844 150.554688 99.042969 146.265625 100.453125 143.105469 C 102.167969 141.140625 104.488281 138.539062 106.371094 136.730469 C 106.59375 138.007812 106.886719 139.4375 107.242188 141.019531 C 107.300781 141.277344 107.359375 141.535156 107.421875 141.796875 C 105.871094 144.980469 103.824219 149.238281 102.398438 152.480469 C 100.714844 154.105469 98.492188 156.304688 96.976562 158.089844 "/><path style=" stroke:none;fill-rule:nonzero;fill:#5271ff;fill-opacity:1;" d="M 89.765625 178.386719 C 89.726562 178.21875 89.6875 178.054688 89.652344 177.890625 C 89.425781 176.886719 89.242188 175.976562 89.097656 175.164062 C 89.683594 171.863281 90.484375 167.460938 91.222656 164.191406 C 92.242188 161.859375 93.632812 158.761719 94.847656 156.527344 C 95.035156 157.582031 95.273438 158.761719 95.570312 160.066406 C 95.617188 160.277344 95.664062 160.488281 95.714844 160.707031 C 94.785156 163.957031 93.5625 168.300781 92.757812 171.589844 C 91.789062 173.59375 90.527344 176.292969 89.765625 178.386719 "/><g clip-rule="nonzero" clip-path="url(#107aa4700b)"><path style=" stroke:none;fill-rule:nonzero;fill:#5271ff;fill-opacity:1;" d="M 88.128906 199.460938 C 88.105469 199.363281 88.082031 199.261719 88.058594 199.164062 C 87.921875 198.558594 87.8125 198.011719 87.726562 197.523438 C 87.582031 194.292969 87.421875 189.976562 87.445312 186.738281 C 87.71875 184.136719 88.113281 180.667969 88.585938 178.097656 C 88.71875 178.867188 88.894531 179.730469 89.109375 180.6875 C 89.144531 180.839844 89.183594 180.996094 89.21875 181.15625 C 88.949219 184.328125 88.609375 188.558594 88.480469 191.738281 C 88.304688 194.050781 88.105469 197.140625 88.128906 199.460938 "/></g><path style=" stroke:none;fill-rule:nonzero;fill:#5271ff;fill-opacity:1;" d="M 283.730469 146.332031 C 283.6875 146.191406 283.648438 146.054688 283.617188 145.925781 L 285.636719 149.710938 L 283.730469 146.332031 "/><path style=" stroke:none;fill-rule:nonzero;fill:#5271ff;fill-opacity:1;" d="M 271.355469 131.90625 C 271.117188 131.089844 270.898438 130.316406 270.707031 129.589844 C 272.566406 131.3125 275.019531 133.648438 276.714844 135.527344 C 278.394531 137.90625 280.617188 141.09375 282.183594 143.546875 C 282.238281 143.757812 282.304688 143.980469 282.371094 144.214844 C 280.988281 142.464844 279.113281 140.140625 277.554688 138.539062 C 275.722656 136.523438 272.734375 134.253906 271.355469 131.90625 "/><path style=" stroke:none;fill-rule:nonzero;fill:#5271ff;fill-opacity:1;" d="M 254.652344 121.152344 C 254.234375 119.730469 253.855469 118.382812 253.523438 117.113281 C 255.816406 118.0625 258.863281 119.363281 261.054688 120.523438 C 263.359375 122.652344 266.421875 125.5 268.652344 127.707031 C 268.863281 128.507812 269.101562 129.363281 269.367188 130.261719 C 267.46875 129.253906 264.910156 127.933594 262.90625 127.148438 C 260.445312 125.328125 256.4375 123.640625 254.652344 121.152344 "/><path style=" stroke:none;fill-rule:nonzero;fill:#5271ff;fill-opacity:1;" d="M 234.574219 114.28125 C 234 112.339844 233.484375 110.496094 233.03125 108.765625 C 235.636719 108.945312 239.113281 109.21875 241.691406 109.632812 C 244.496094 111.441406 248.222656 113.871094 250.972656 115.761719 C 251.320312 117.097656 251.71875 118.515625 252.160156 120.011719 C 249.847656 119.757812 246.753906 119.453125 244.429688 119.429688 C 241.484375 117.863281 237.550781 115.785156 234.574219 114.28125 "/><path style=" stroke:none;fill-rule:nonzero;fill:#5271ff;fill-opacity:1;" d="M 212.085938 111.496094 C 211.390625 109.144531 210.765625 106.90625 210.214844 104.808594 C 213.019531 104.234375 216.769531 103.5 219.613281 103.140625 C 222.777344 104.5625 226.992188 106.46875 230.117188 107.984375 C 230.585938 109.769531 231.117188 111.667969 231.707031 113.671875 C 229.105469 114.164062 225.636719 114.859375 223.082031 115.558594 C 219.792969 114.3125 215.402344 112.664062 212.085938 111.496094 "/><path style=" stroke:none;fill-rule:nonzero;fill:#5271ff;fill-opacity:1;" d="M 163.71875 119.015625 C 162.902344 116.238281 162.164062 113.601562 161.511719 111.128906 C 164.394531 109.097656 168.253906 106.410156 171.238281 104.535156 C 174.710938 104.914062 179.339844 105.441406 182.792969 105.964844 C 183.417969 108.339844 184.125 110.871094 184.910156 113.539062 C 182.078125 115.445312 178.3125 118.015625 175.574219 120.054688 C 172.019531 119.695312 167.28125 119.234375 163.71875 119.015625 "/><path style=" stroke:none;fill-rule:nonzero;fill:#5271ff;fill-opacity:1;" d="M 140.378906 129.414062 C 139.570312 126.664062 138.839844 124.058594 138.195312 121.613281 C 140.789062 118.972656 144.269531 115.472656 146.992188 112.96875 C 150.371094 112.691406 154.886719 112.355469 158.28125 112.257812 C 158.933594 114.738281 159.671875 117.378906 160.492188 120.160156 C 157.722656 122.6875 154.050781 126.082031 151.398438 128.730469 C 148.089844 128.886719 143.675781 129.113281 140.378906 129.414062 "/><path style=" stroke:none;fill-rule:nonzero;fill:#5271ff;fill-opacity:1;" d="M 120.777344 142.960938 C 120.027344 140.40625 119.347656 137.980469 118.75 135.707031 C 120.816406 132.699219 123.597656 128.699219 125.789062 125.78125 C 128.648438 124.972656 132.472656 123.925781 135.375 123.296875 C 136.015625 125.726562 136.742188 128.316406 137.542969 131.046875 C 135.242188 133.957031 132.191406 137.851562 130 140.84375 C 127.222656 141.417969 123.515625 142.214844 120.777344 142.960938 "/><path style=" stroke:none;fill-rule:nonzero;fill:#5271ff;fill-opacity:1;" d="M 105.515625 158.832031 C 104.859375 156.609375 104.269531 154.5 103.75 152.519531 C 105.25 149.304688 107.273438 145.027344 108.898438 141.871094 C 111.140625 140.585938 114.152344 138.898438 116.492188 137.800781 C 117.082031 140.042969 117.753906 142.433594 118.492188 144.953125 C 116.710938 148.058594 114.351562 152.214844 112.671875 155.378906 C 110.496094 156.347656 107.597656 157.675781 105.515625 158.832031 "/><path style=" stroke:none;fill-rule:nonzero;fill:#5271ff;fill-opacity:1;" d="M 95.035156 176.234375 C 94.515625 174.464844 94.042969 172.789062 93.628906 171.210938 C 94.519531 167.949219 95.730469 163.601562 96.742188 160.371094 C 98.296875 158.679688 100.402344 156.441406 102.113281 154.910156 C 102.625 156.839844 103.199219 158.898438 103.839844 161.066406 C 102.617188 164.210938 101 168.410156 99.878906 171.589844 C 98.371094 172.925781 96.378906 174.734375 95.035156 176.234375 "/><path style=" stroke:none;fill-rule:nonzero;fill:#5271ff;fill-opacity:1;" d="M 89.785156 194.394531 C 89.429688 193.179688 89.105469 192.027344 88.824219 190.945312 C 89.050781 187.785156 89.378906 183.566406 89.746094 180.421875 C 90.550781 178.398438 91.664062 175.710938 92.675781 173.789062 C 93.074219 175.304688 93.527344 176.917969 94.027344 178.617188 C 93.402344 181.644531 92.585938 185.683594 92.070312 188.734375 C 91.308594 190.398438 90.332031 192.648438 89.785156 194.394531 "/><path style=" stroke:none;fill-rule:nonzero;fill:#5271ff;fill-opacity:1;" d="M 90.21875 212.535156 C 90.046875 211.949219 89.894531 211.398438 89.757812 210.878906 C 89.273438 207.96875 88.65625 204.078125 88.335938 201.144531 C 88.347656 198.878906 88.386719 195.851562 88.605469 193.597656 C 88.871094 194.609375 89.175781 195.6875 89.507812 196.820312 C 89.519531 199.589844 89.554688 203.285156 89.707031 206.054688 C 89.789062 208.003906 89.941406 210.605469 90.21875 212.535156 "/><path style=" stroke:none;fill-rule:nonzero;fill:#5271ff;fill-opacity:1;" d="M 90.988281 215.992188 L 90.546875 214.335938 L 90.335938 213.492188 C 90.453125 213.933594 90.582031 214.402344 90.726562 214.898438 L 91.539062 217.902344 C 91.375 217.328125 91.148438 216.566406 90.988281 215.992188 "/><path style=" stroke:none;fill-rule:nonzero;fill:#5271ff;fill-opacity:1;" d="M 278.863281 141.257812 C 278.671875 140.683594 278.496094 140.132812 278.328125 139.605469 C 279.785156 141.230469 281.695312 143.4375 282.976562 145.207031 L 285.636719 149.710938 L 283.402344 146.527344 C 282.070312 144.921875 279.921875 143.054688 278.863281 141.257812 "/><path style=" stroke:none;fill-rule:nonzero;fill:#5271ff;fill-opacity:1;" d="M 265.277344 132.261719 C 264.839844 130.949219 264.433594 129.683594 264.050781 128.464844 C 265.980469 129.300781 268.542969 130.453125 270.359375 131.503906 C 272.285156 133.40625 274.839844 135.953125 276.695312 137.925781 C 276.886719 138.550781 277.097656 139.199219 277.320312 139.875 C 275.832031 139.019531 273.820312 137.90625 272.222656 137.277344 C 270.152344 135.753906 266.8125 134.324219 265.277344 132.261719 "/><path style=" stroke:none;fill-rule:nonzero;fill:#5271ff;fill-opacity:1;" d="M 247.714844 126.621094 C 247.0625 124.65625 246.449219 122.757812 245.882812 120.9375 C 248.164062 121.007812 251.210938 121.140625 253.472656 121.449219 C 256 123.167969 259.363281 125.472656 261.84375 127.257812 C 262.25 128.554688 262.6875 129.914062 263.152344 131.316406 C 261.199219 131.207031 258.582031 131.101562 256.628906 131.226562 C 253.960938 129.832031 249.679688 128.898438 247.714844 126.621094 "/><path style=" stroke:none;fill-rule:nonzero;fill:#5271ff;fill-opacity:1;" d="M 227.101562 124.421875 C 226.269531 121.917969 225.488281 119.5 224.765625 117.179688 C 227.300781 116.523438 230.695312 115.675781 233.273438 115.230469 C 236.269531 116.707031 240.261719 118.683594 243.226562 120.21875 C 243.816406 122.109375 244.457031 124.085938 245.132812 126.125 C 242.832031 126.746094 239.769531 127.617188 237.53125 128.425781 C 234.40625 127.210938 230.242188 125.597656 227.101562 124.421875 "/><path style=" stroke:none;fill-rule:nonzero;fill:#5271ff;fill-opacity:1;" d="M 204.367188 125.761719 C 203.398438 122.855469 202.492188 120.046875 201.652344 117.351562 C 204.34375 116 207.945312 114.222656 210.714844 113.046875 C 214.046875 114.195312 218.488281 115.746094 221.792969 116.972656 C 222.535156 119.351562 223.335938 121.828125 224.1875 124.394531 C 221.65625 125.703125 218.289062 127.476562 215.839844 128.933594 C 212.402344 127.960938 207.820312 126.675781 204.367188 125.761719 "/><path style=" stroke:none;fill-rule:nonzero;fill:#5271ff;fill-opacity:1;" d="M 180.429688 130.730469 C 179.378906 127.578125 178.398438 124.53125 177.488281 121.609375 C 180.234375 119.605469 183.914062 116.949219 186.757812 115.082031 C 190.285156 115.828125 194.984375 116.835938 198.484375 117.675781 C 199.339844 120.410156 200.257812 123.261719 201.238281 126.210938 C 198.578125 128.148438 195.046875 130.75 192.472656 132.800781 C 188.863281 132.148438 184.050781 131.296875 180.429688 130.730469 "/><path style=" stroke:none;fill-rule:nonzero;fill:#5271ff;fill-opacity:1;" d="M 156.265625 139.394531 C 155.195312 136.179688 154.191406 133.074219 153.265625 130.097656 C 155.957031 127.492188 159.5625 124.03125 162.355469 121.53125 C 165.929688 121.773438 170.691406 122.117188 174.25 122.492188 C 175.167969 125.429688 176.15625 128.496094 177.210938 131.667969 C 174.519531 134.160156 170.949219 137.5 168.339844 140.078125 C 164.71875 139.835938 159.890625 139.527344 156.265625 139.394531 "/><path style=" stroke:none;fill-rule:nonzero;fill:#5271ff;fill-opacity:1;" d="M 116.605469 164.234375 C 115.683594 161.460938 114.820312 158.78125 114.019531 156.214844 C 115.753906 153.078125 118.085938 148.902344 119.917969 145.820312 C 122.644531 145.140625 126.292969 144.261719 129.058594 143.746094 C 129.9375 146.570312 130.886719 149.515625 131.902344 152.5625 C 129.914062 155.59375 127.277344 159.640625 125.367188 162.71875 C 122.730469 163.121094 119.214844 163.679688 116.605469 164.234375 "/><path style=" stroke:none;fill-rule:nonzero;fill:#5271ff;fill-opacity:1;" d="M 103.039062 178.773438 C 102.269531 176.460938 101.546875 174.222656 100.878906 172.078125 C 102.066406 168.925781 103.664062 164.726562 104.945312 161.609375 C 107.035156 160.535156 109.835938 159.136719 112.007812 158.242188 C 112.792969 160.761719 113.640625 163.390625 114.542969 166.109375 C 113.054688 169.128906 111.078125 173.164062 109.65625 176.21875 C 107.648438 176.925781 104.976562 177.890625 103.039062 178.773438 "/><path style=" stroke:none;fill-rule:nonzero;fill:#5271ff;fill-opacity:1;" d="M 94.292969 193.835938 C 93.71875 192.105469 93.179688 190.4375 92.679688 188.835938 C 93.269531 185.816406 94.074219 181.792969 94.769531 178.792969 C 96.128906 177.378906 97.980469 175.515625 99.496094 174.265625 C 100.144531 176.34375 100.84375 178.511719 101.589844 180.753906 C 100.632812 183.617188 99.371094 187.4375 98.488281 190.324219 C 97.179688 191.316406 95.449219 192.671875 94.292969 193.835938 "/><path style=" stroke:none;fill-rule:nonzero;fill:#5271ff;fill-opacity:1;" d="M 90.851562 208.757812 C 90.507812 207.71875 90.183594 206.710938 89.882812 205.75 C 89.820312 203.007812 89.769531 199.351562 89.839844 196.609375 C 90.410156 194.925781 91.199219 192.679688 91.988281 191.085938 C 92.464844 192.609375 92.972656 194.195312 93.519531 195.835938 C 93.140625 198.402344 92.640625 201.824219 92.355469 204.402344 C 91.824219 205.679688 91.15625 207.410156 90.851562 208.757812 "/><path style=" stroke:none;fill-rule:nonzero;fill:#5271ff;fill-opacity:1;" d="M 92.597656 221.25 C 92.394531 220.625 92.121094 219.789062 91.921875 219.160156 L 91.761719 218.632812 L 90.613281 214.285156 C 90.34375 212.398438 90.003906 209.875 89.941406 207.96875 C 90.214844 208.839844 90.507812 209.75 90.820312 210.691406 C 91.054688 212.839844 91.378906 215.703125 91.753906 217.828125 C 92.003906 218.855469 92.269531 220.246094 92.597656 221.25 "/><path style=" stroke:none;fill-rule:nonzero;fill:#5271ff;fill-opacity:1;" d="M 284.300781 148.050781 C 284.234375 147.867188 284.171875 147.691406 284.109375 147.515625 L 285.636719 149.710938 L 284.300781 148.050781 "/><path style=" stroke:none;fill-rule:nonzero;fill:#5271ff;fill-opacity:1;" d="M 274.601562 141.660156 C 274.226562 140.628906 273.871094 139.617188 273.527344 138.628906 C 275.027344 139.304688 277.019531 140.253906 278.398438 141.152344 C 279.804688 142.632812 281.671875 144.609375 283 146.160156 C 283.097656 146.445312 283.203125 146.734375 283.308594 147.035156 C 282.300781 146.375 280.921875 145.515625 279.792969 145.09375 C 278.246094 144.050781 275.765625 143.121094 274.601562 141.660156 "/><path style=" stroke:none;fill-rule:nonzero;fill:#5271ff;fill-opacity:1;" d="M 260.304688 138.160156 C 259.65625 136.359375 259.027344 134.59375 258.433594 132.875 C 260.332031 132.800781 262.871094 132.734375 264.761719 132.894531 C 266.871094 134.316406 269.683594 136.21875 271.761719 137.683594 C 272.140625 138.773438 272.535156 139.890625 272.949219 141.03125 C 271.40625 141.109375 269.34375 141.265625 267.832031 141.570312 C 265.578125 140.542969 262.566406 139.175781 260.304688 138.160156 "/><path style=" stroke:none;fill-rule:nonzero;fill:#5271ff;fill-opacity:1;" d="M 242.296875 137.507812 C 241.40625 135.046875 240.550781 132.636719 239.738281 130.289062 C 241.949219 129.515625 244.90625 128.507812 247.175781 127.933594 C 249.871094 129.246094 253.464844 131 256.140625 132.351562 C 256.769531 134.15625 257.425781 136.015625 258.109375 137.910156 C 256.167969 138.707031 253.585938 139.800781 251.71875 140.761719 C 248.894531 139.78125 245.125 138.480469 242.296875 137.507812 "/><path style=" stroke:none;fill-rule:nonzero;fill:#5271ff;fill-opacity:1;" d="M 198.644531 144.578125 C 197.433594 141.234375 196.273438 137.957031 195.171875 134.765625 C 197.738281 132.75 201.179688 130.070312 203.835938 128.167969 C 207.296875 129.070312 211.910156 130.28125 215.359375 131.234375 C 216.359375 134.132812 217.414062 137.113281 218.515625 140.15625 C 216.082031 142.167969 212.851562 144.871094 210.492188 146.96875 C 206.941406 146.242188 202.203125 145.273438 198.644531 144.578125 "/><path style=" stroke:none;fill-rule:nonzero;fill:#5271ff;fill-opacity:1;" d="M 151.300781 162.253906 C 150.039062 158.777344 148.832031 155.367188 147.683594 152.050781 C 150.089844 149.128906 153.316406 145.246094 155.8125 142.40625 C 159.4375 142.578125 164.273438 142.824219 167.894531 143.097656 C 169.058594 146.457031 170.28125 149.910156 171.554688 153.4375 C 169 156.296875 165.605469 160.121094 163.117188 163.039062 C 159.574219 162.785156 154.847656 162.453125 151.300781 162.253906 "/><path style=" stroke:none;fill-rule:nonzero;fill:#5271ff;fill-opacity:1;" d="M 130.9375 173.515625 C 129.765625 170.277344 128.644531 167.105469 127.574219 164.019531 C 129.542969 160.96875 132.175781 156.90625 134.21875 153.90625 C 137.394531 153.757812 141.628906 153.585938 144.808594 153.550781 C 145.949219 156.847656 147.148438 160.238281 148.398438 163.695312 C 146.21875 166.65625 143.320312 170.617188 141.195312 173.621094 C 138.121094 173.558594 134.015625 173.484375 130.9375 173.515625 "/><path style=" stroke:none;fill-rule:nonzero;fill:#5271ff;fill-opacity:1;" d="M 114.347656 185.402344 C 113.332031 182.585938 112.355469 179.828125 111.425781 177.144531 C 112.910156 174.117188 114.90625 170.085938 116.457031 167.09375 C 119.070312 166.628906 122.558594 166.035156 125.191406 165.707031 C 126.246094 168.75 127.351562 171.875 128.507812 175.066406 C 126.753906 177.972656 124.425781 181.84375 122.714844 184.773438 C 120.203125 184.921875 116.851562 185.132812 114.347656 185.402344 "/><path style=" stroke:none;fill-rule:nonzero;fill:#5271ff;fill-opacity:1;" d="M 94.621094 208.933594 C 94.0625 207.394531 93.53125 205.882812 93.019531 204.417969 C 93.402344 201.867188 93.929688 198.476562 94.398438 195.945312 C 95.59375 194.890625 97.222656 193.511719 98.550781 192.636719 C 99.261719 194.691406 100.011719 196.800781 100.789062 198.953125 C 100.011719 201.3125 98.980469 204.457031 98.25 206.828125 C 97.128906 207.398438 95.628906 208.179688 94.621094 208.933594 "/><path style=" stroke:none;fill-rule:nonzero;fill:#5271ff;fill-opacity:1;" d="M 92.539062 219.511719 C 92.273438 218.773438 92.015625 218.046875 91.773438 217.34375 C 91.519531 215.238281 91.203125 212.425781 91.082031 210.3125 C 91.4375 209.046875 91.945312 207.359375 92.53125 206.183594 C 93.003906 207.558594 93.503906 208.96875 94.023438 210.40625 C 93.796875 212.300781 93.5 214.832031 93.355469 216.738281 C 93.027344 217.542969 92.632812 218.648438 92.539062 219.511719 "/><path style=" stroke:none;fill-rule:nonzero;fill:#5271ff;fill-opacity:1;" d="M 93.339844 223.390625 C 93.167969 222.894531 92.933594 222.230469 92.761719 221.734375 L 92.042969 218.972656 C 92.25 219.570312 92.46875 220.1875 92.695312 220.8125 C 92.953125 221.777344 93.234375 223.082031 93.570312 224.019531 L 93.339844 223.390625 "/><path style=" stroke:none;fill-rule:nonzero;fill:#5271ff;fill-opacity:1;" d="M 281.207031 147.738281 C 280.949219 147.082031 280.703125 146.429688 280.464844 145.785156 C 281.5 146.25 282.878906 146.921875 283.785156 147.609375 L 285.636719 149.710938 L 284.378906 149.171875 C 283.425781 148.746094 281.921875 148.5 281.207031 147.738281 "/><path style=" stroke:none;fill-rule:nonzero;fill:#5271ff;fill-opacity:1;" d="M 270.65625 147.148438 C 270.070312 145.632812 269.503906 144.132812 268.953125 142.660156 C 270.425781 142.386719 272.402344 142.046875 273.898438 142.007812 C 275.496094 142.960938 277.625 144.234375 279.210938 145.214844 C 279.492188 145.972656 279.785156 146.742188 280.085938 147.519531 C 278.984375 147.847656 277.519531 148.335938 276.488281 148.84375 C 274.738281 148.347656 272.398438 147.679688 270.65625 147.148438 "/><path style=" stroke:none;fill-rule:nonzero;fill:#5271ff;fill-opacity:1;" d="M 255.769531 148.90625 C 254.898438 146.640625 254.046875 144.394531 253.222656 142.183594 C 255.066406 141.246094 257.539062 140.007812 259.460938 139.234375 C 261.75 140.199219 264.800781 141.480469 267.089844 142.445312 C 267.675781 144.023438 268.289062 145.628906 268.914062 147.25 C 267.363281 148.273438 265.316406 149.671875 263.851562 150.8125 C 261.425781 150.257812 258.191406 149.503906 255.769531 148.90625 "/><path style=" stroke:none;fill-rule:nonzero;fill:#5271ff;fill-opacity:1;" d="M 237.375 152.84375 C 236.257812 149.949219 235.171875 147.089844 234.125 144.269531 C 236.265625 142.71875 239.128906 140.664062 241.351562 139.234375 C 244.207031 140.15625 248.011719 141.390625 250.859375 142.316406 C 251.71875 144.617188 252.601562 146.953125 253.511719 149.308594 C 251.617188 150.941406 249.101562 153.136719 247.277344 154.855469 C 244.304688 154.261719 240.34375 153.464844 237.375 152.84375 "/><path style=" stroke:none;fill-rule:nonzero;fill:#5271ff;fill-opacity:1;" d="M 216.296875 158.769531 C 215 155.410156 213.738281 152.085938 212.519531 148.816406 C 214.871094 146.722656 218.015625 143.945312 220.441406 141.941406 C 223.726562 142.777344 228.101562 143.890625 231.382812 144.734375 C 232.457031 147.621094 233.570312 150.554688 234.714844 153.515625 C 232.550781 155.664062 229.675781 158.542969 227.578125 160.75 C 224.191406 160.160156 219.679688 159.371094 216.296875 158.769531 "/><path style=" stroke:none;fill-rule:nonzero;fill:#5271ff;fill-opacity:1;" d="M 169.445312 175.863281 C 168.015625 172.15625 166.621094 168.480469 165.273438 164.863281 C 167.785156 161.964844 171.144531 158.109375 173.710938 155.261719 C 177.429688 155.703125 182.390625 156.304688 186.105469 156.808594 C 187.429688 160.375 188.808594 164.003906 190.21875 167.664062 C 187.757812 170.519531 184.472656 174.332031 182.039062 177.214844 C 178.261719 176.800781 173.226562 176.253906 169.445312 175.863281 "/><path style=" stroke:none;fill-rule:nonzero;fill:#5271ff;fill-opacity:1;" d="M 127.980469 195.699219 C 126.742188 192.496094 125.542969 189.328125 124.378906 186.207031 C 126.128906 183.304688 128.472656 179.433594 130.261719 176.550781 C 133.320312 176.574219 137.394531 176.625 140.449219 176.730469 C 141.726562 180.164062 143.050781 183.648438 144.410156 187.167969 C 142.433594 189.980469 139.804688 193.730469 137.847656 196.554688 C 134.890625 196.277344 130.941406 195.914062 127.980469 195.699219 "/><path style=" stroke:none;fill-rule:nonzero;fill:#5271ff;fill-opacity:1;" d="M 112.53125 205.03125 C 111.5 202.363281 110.496094 199.714844 109.527344 197.113281 C 110.824219 194.425781 112.558594 190.847656 113.890625 188.179688 C 116.371094 187.984375 119.683594 187.75 122.171875 187.667969 C 123.308594 190.726562 124.488281 193.835938 125.703125 196.976562 C 124.125 199.523438 122.023438 202.921875 120.449219 205.472656 C 118.074219 205.3125 114.90625 205.109375 112.53125 205.03125 "/><path style=" stroke:none;fill-rule:nonzero;fill:#5271ff;fill-opacity:1;" d="M 101.382812 213.449219 C 100.613281 211.457031 99.863281 209.480469 99.140625 207.535156 C 99.929688 205.199219 100.996094 202.085938 101.828125 199.761719 C 103.632812 199.339844 106.046875 198.808594 107.878906 198.535156 C 108.816406 201.058594 109.792969 203.621094 110.789062 206.210938 C 109.65625 208.371094 108.140625 211.25 107.003906 213.410156 C 105.316406 213.386719 103.066406 213.363281 101.382812 213.449219 "/><path style=" stroke:none;fill-rule:nonzero;fill:#5271ff;fill-opacity:1;" d="M 95.117188 220.558594 C 94.652344 219.359375 94.203125 218.171875 93.769531 217 C 93.996094 215.132812 94.3125 212.640625 94.613281 210.785156 C 95.628906 210.140625 97.015625 209.320312 98.125 208.855469 C 98.8125 210.703125 99.527344 212.582031 100.257812 214.480469 C 99.609375 216.136719 98.75 218.347656 98.113281 220.011719 C 97.207031 220.128906 95.988281 220.285156 95.117188 220.558594 "/><path style=" stroke:none;fill-rule:nonzero;fill:#5271ff;fill-opacity:1;" d="M 94.226562 225.765625 L 93.945312 225.027344 L 93.703125 224.378906 C 93.40625 223.292969 92.980469 221.839844 92.78125 220.726562 C 92.902344 219.941406 93.097656 218.867188 93.460938 218.160156 C 93.855469 219.21875 94.265625 220.296875 94.683594 221.382812 C 94.566406 222.441406 94.410156 223.859375 94.371094 224.921875 C 94.28125 225.164062 94.160156 225.515625 94.226562 225.765625 "/><path style=" stroke:none;fill-rule:nonzero;fill:#5271ff;fill-opacity:1;" d="M 285.066406 150.03125 C 284.984375 149.835938 284.90625 149.640625 284.832031 149.449219 L 285.636719 149.710938 L 285.066406 150.03125 "/><path style=" stroke:none;fill-rule:nonzero;fill:#5271ff;fill-opacity:1;" d="M 278.953125 152.929688 C 278.5 151.820312 278.054688 150.714844 277.621094 149.617188 C 278.597656 149.128906 279.914062 148.480469 280.96875 148.183594 C 281.929688 148.535156 283.210938 149.007812 284.179688 149.332031 C 284.308594 149.648438 284.4375 149.96875 284.566406 150.289062 C 283.980469 150.925781 283.222656 151.796875 282.703125 152.488281 C 281.585938 152.671875 280.085938 152.878906 278.953125 152.929688 "/><path style=" stroke:none;fill-rule:nonzero;fill:#5271ff;fill-opacity:1;" d="M 252.660156 164.332031 C 251.582031 161.699219 250.519531 159.066406 249.484375 156.449219 C 251.273438 154.730469 253.667969 152.449219 255.535156 150.8125 C 257.964844 151.335938 261.207031 152.03125 263.648438 152.503906 C 264.449219 154.523438 265.265625 156.554688 266.097656 158.582031 C 264.605469 160.441406 262.621094 162.933594 261.183594 164.835938 C 258.625 164.714844 255.214844 164.535156 252.660156 164.332031 "/><path style=" stroke:none;fill-rule:nonzero;fill:#5271ff;fill-opacity:1;" d="M 234.019531 172.1875 C 232.707031 168.992188 231.421875 165.800781 230.164062 162.625 C 232.238281 160.417969 235.015625 157.476562 237.152344 155.328125 C 240.132812 155.894531 244.101562 156.640625 247.089844 157.171875 C 248.160156 159.875 249.253906 162.589844 250.367188 165.304688 C 248.535156 167.632812 246.097656 170.738281 244.308594 173.09375 C 241.21875 172.84375 237.101562 172.5 234.019531 172.1875 "/><path style=" stroke:none;fill-rule:nonzero;fill:#5271ff;fill-opacity:1;" d="M 144.574219 208.796875 C 143.152344 205.335938 141.757812 201.871094 140.390625 198.425781 C 142.386719 195.613281 145.050781 191.867188 147.0625 189.070312 C 150.492188 189.433594 155.074219 189.925781 158.503906 190.3125 C 159.960938 193.996094 161.453125 197.695312 162.96875 201.398438 C 160.800781 204.164062 157.914062 207.855469 155.742188 210.613281 C 152.390625 210.070312 147.921875 209.34375 144.574219 208.796875 "/><path style=" stroke:none;fill-rule:nonzero;fill:#5271ff;fill-opacity:1;" d="M 111.507812 221.816406 C 110.523438 219.417969 109.558594 217.019531 108.613281 214.632812 C 109.808594 212.5 111.398438 209.652344 112.585938 207.515625 C 114.957031 207.675781 118.117188 207.90625 120.484375 208.140625 C 121.644531 211.066406 122.828125 214.003906 124.03125 216.945312 C 122.550781 218.941406 120.574219 221.601562 119.054688 223.5625 C 116.792969 223.03125 113.777344 222.316406 111.507812 221.816406 "/><path style=" stroke:none;fill-rule:nonzero;fill:#5271ff;fill-opacity:1;" d="M 101.109375 225.722656 C 100.433594 224.074219 99.769531 222.429688 99.121094 220.789062 C 99.832031 219.160156 100.777344 216.984375 101.488281 215.355469 C 103.167969 215.375 105.40625 215.425781 107.082031 215.539062 C 107.992188 217.832031 108.921875 220.136719 109.867188 222.441406 C 108.808594 223.898438 107.390625 225.835938 106.277344 227.25 C 104.730469 226.78125 102.667969 226.160156 101.109375 225.722656 "/><path style=" stroke:none;fill-rule:nonzero;fill:#5271ff;fill-opacity:1;" d="M 95.652344 227.570312 C 95.332031 226.777344 95.011719 225.988281 94.699219 225.199219 C 94.847656 224.167969 95.066406 222.796875 95.269531 221.777344 C 96.148438 221.636719 97.335938 221.492188 98.226562 221.480469 C 98.835938 223.011719 99.457031 224.550781 100.085938 226.09375 C 99.507812 226.917969 98.738281 228.019531 98.101562 228.800781 C 97.363281 228.433594 96.210938 228.171875 95.652344 227.570312 "/><path style=" stroke:none;fill-rule:nonzero;fill:#5271ff;fill-opacity:1;" d="M 95.113281 227.976562 C 94.71875 227.011719 94.71875 227.011719 94.527344 226.527344 L 94.367188 226.125 C 94.394531 225.988281 94.433594 225.808594 94.464844 225.671875 L 94.527344 225.636719 C 94.789062 226.304688 95.058594 226.976562 95.335938 227.644531 C 95.28125 227.773438 95.273438 228.003906 95.152344 228.074219 L 95.113281 227.976562 "/><path style=" stroke:none;fill-rule:nonzero;fill:#5271ff;fill-opacity:1;" d="M 284.050781 154.691406 C 283.765625 154.03125 283.480469 153.363281 283.199219 152.695312 C 283.679688 151.980469 284.3125 151.019531 284.855469 150.355469 L 285.636719 149.710938 L 285.535156 151.949219 C 285.175781 152.8125 284.640625 153.964844 284.050781 154.691406 "/><path style=" stroke:none;fill-rule:nonzero;fill:#5271ff;fill-opacity:1;" d="M 277.191406 163.105469 C 276.535156 161.585938 275.882812 160.054688 275.238281 158.519531 C 276.21875 157.152344 277.53125 155.335938 278.574219 154.015625 C 279.738281 153.871094 281.300781 153.667969 282.4375 153.363281 C 282.769531 154.148438 283.105469 154.9375 283.441406 155.714844 C 282.875 157.300781 282.117188 159.410156 281.546875 160.996094 C 280.277344 161.695312 278.546875 162.585938 277.191406 163.105469 "/><path style=" stroke:none;fill-rule:nonzero;fill:#5271ff;fill-opacity:1;" d="M 265.554688 172.796875 C 264.570312 170.527344 263.59375 168.234375 262.628906 165.933594 C 264.035156 164.011719 265.917969 161.453125 267.378906 159.570312 C 269.3125 159.566406 271.886719 159.546875 273.8125 159.421875 C 274.503906 161.066406 275.203125 162.703125 275.90625 164.328125 C 274.851562 166.441406 273.453125 169.265625 272.417969 171.386719 C 270.371094 171.863281 267.632812 172.46875 265.554688 172.796875 "/><path style=" stroke:none;fill-rule:nonzero;fill:#5271ff;fill-opacity:1;" d="M 162.488281 223.3125 C 160.945312 219.75 159.414062 216.15625 157.898438 212.546875 C 160.089844 209.789062 163.003906 206.113281 165.1875 203.351562 C 168.886719 203.851562 173.820312 204.511719 177.523438 204.980469 C 179.097656 208.738281 180.695312 212.480469 182.300781 216.1875 C 179.996094 218.960938 176.921875 222.65625 174.59375 225.410156 C 170.960938 224.796875 166.113281 223.972656 162.488281 223.3125 "/><path style=" stroke:none;fill-rule:nonzero;fill:#5271ff;fill-opacity:1;" d="M 141.789062 229.421875 C 140.398438 226.214844 139.019531 222.980469 137.660156 219.734375 C 139.550781 217.324219 142.074219 214.113281 143.941406 211.683594 C 147.273438 212.257812 151.71875 213.027344 155.054688 213.597656 C 156.550781 217.171875 158.070312 220.726562 159.597656 224.253906 C 157.527344 226.621094 154.761719 229.773438 152.648438 232.101562 C 149.390625 231.304688 145.042969 230.242188 141.789062 229.421875 "/><path style=" stroke:none;fill-rule:nonzero;fill:#5271ff;fill-opacity:1;" d="M 124.058594 233.179688 C 122.894531 230.503906 121.746094 227.804688 120.609375 225.09375 C 122.15625 223.144531 124.210938 220.535156 125.71875 218.554688 C 128.5625 219.148438 132.355469 219.945312 135.195312 220.554688 C 136.535156 223.738281 137.886719 226.914062 139.25 230.058594 C 137.46875 231.921875 135.089844 234.40625 133.246094 236.207031 C 130.488281 235.304688 126.808594 234.097656 124.058594 233.179688 "/><path style=" stroke:none;fill-rule:nonzero;fill:#5271ff;fill-opacity:1;" d="M 109.992188 234.476562 C 109.125 232.476562 108.265625 230.460938 107.417969 228.4375 C 108.5625 227.042969 110.074219 225.171875 111.164062 223.734375 C 113.402344 224.300781 116.386719 225.0625 118.621094 225.65625 C 119.726562 228.28125 120.839844 230.902344 121.964844 233.492188 C 120.53125 234.777344 118.613281 236.480469 117.101562 237.664062 C 114.964844 236.714844 111.628906 236.144531 109.992188 234.476562 "/><path style=" stroke:none;fill-rule:nonzero;fill:#5271ff;fill-opacity:1;" d="M 100.300781 233.210938 C 99.777344 232.007812 99.257812 230.792969 98.75 229.574219 C 99.425781 228.820312 100.308594 227.796875 100.921875 226.988281 C 102.445312 227.5 104.476562 228.1875 105.992188 228.71875 C 106.800781 230.640625 107.617188 232.558594 108.441406 234.457031 C 107.417969 235.09375 106.042969 235.933594 104.9375 236.410156 C 103.535156 235.460938 101.355469 234.527344 100.300781 233.210938 "/><path style=" stroke:none;fill-rule:nonzero;fill:#5271ff;fill-opacity:1;" d="M 95.84375 229.699219 L 95.738281 229.460938 C 95.601562 229.136719 95.417969 228.710938 95.285156 228.386719 C 95.410156 228.332031 95.570312 228.210938 95.648438 228.09375 C 96.339844 228.542969 97.265625 229.128906 97.972656 229.550781 C 98.4375 230.652344 98.90625 231.753906 99.378906 232.84375 C 98.792969 232.789062 97.980469 232.671875 97.472656 232.375 C 96.964844 231.582031 96.234375 230.554688 95.84375 229.699219 "/><path style=" stroke:none;fill-rule:nonzero;fill:#5271ff;fill-opacity:1;" d="M 285.925781 152.011719 C 285.84375 151.832031 285.757812 151.644531 285.675781 151.457031 L 285.636719 149.710938 L 285.925781 152.011719 "/><path style=" stroke:none;fill-rule:nonzero;fill:#5271ff;fill-opacity:1;" d="M 283.847656 164.203125 C 283.371094 163.167969 282.894531 162.113281 282.417969 161.042969 C 282.910156 159.421875 283.566406 157.265625 284.046875 155.640625 C 284.585938 154.785156 285.269531 153.601562 285.566406 152.632812 C 285.703125 152.941406 285.84375 153.246094 285.980469 153.546875 C 285.988281 155.40625 285.980469 157.890625 285.910156 159.75 C 285.375 161.121094 284.621094 162.949219 283.847656 164.203125 "/><g clip-rule="nonzero" clip-path="url(#e4f5915562)"><path style=" stroke:none;fill-rule:nonzero;fill:#5271ff;fill-opacity:1;" d="M 108.402344 242.527344 C 107.691406 240.984375 106.980469 239.410156 106.269531 237.816406 C 107.414062 237.316406 108.925781 236.605469 109.992188 235.949219 C 112.117188 236.980469 114.949219 238.351562 117.085938 239.359375 C 118.078125 241.589844 119.074219 243.792969 120.070312 245.949219 C 118.609375 246.425781 116.648438 247.035156 115.132812 247.300781 C 113.101562 245.886719 109.964844 244.445312 108.402344 242.527344 "/></g><path style=" stroke:none;fill-rule:nonzero;fill:#5271ff;fill-opacity:1;" d="M 99.15625 235.632812 C 98.8125 234.894531 98.472656 234.136719 98.128906 233.371094 C 98.75 233.628906 99.621094 233.929688 100.289062 233.9375 C 101.660156 234.992188 103.5 236.386719 104.90625 237.390625 C 105.570312 238.882812 106.238281 240.351562 106.902344 241.792969 C 105.804688 241.53125 104.335938 241.136719 103.328125 240.640625 C 102.042969 239.164062 100.164062 237.308594 99.15625 235.632812 "/><path style=" stroke:none;fill-rule:nonzero;fill:#5271ff;fill-opacity:1;" d="M 96.445312 231.054688 C 96.316406 230.765625 96.140625 230.378906 96.011719 230.085938 C 96.433594 230.832031 96.953125 231.855469 97.433594 232.566406 C 97.726562 233.214844 98.015625 233.855469 98.304688 234.484375 L 97.011719 232.292969 C 96.839844 231.921875 96.613281 231.425781 96.445312 231.054688 "/><g clip-rule="nonzero" clip-path="url(#712279f867)"><path style=" stroke:none;fill-rule:nonzero;fill:#5271ff;fill-opacity:1;" d="M 287.03125 161.144531 C 286.765625 160.605469 286.488281 160.035156 286.199219 159.433594 L 286.195312 159.417969 C 286.179688 157.515625 286.15625 154.980469 286.046875 153.082031 L 285.636719 149.710938 L 286.714844 154.453125 C 286.890625 156.457031 287.09375 159.136719 287.03125 161.144531 "/></g><path style=" stroke:none;fill-rule:nonzero;fill:#5271ff;fill-opacity:1;" d="M 286.730469 153.632812 C 286.664062 153.511719 286.59375 153.378906 286.519531 153.234375 L 285.636719 149.710938 L 286.730469 153.632812 "/><g clip-rule="nonzero" clip-path="url(#26c0cd13cb)"><path style=" stroke:none;fill-rule:nonzero;fill:#5271ff;fill-opacity:1;" d="M 287.292969 154.527344 C 287.253906 154.476562 287.207031 154.417969 287.160156 154.347656 L 285.636719 149.710938 L 287.292969 154.527344 "/></g><g style="fill:#5271ff;fill-opacity:1;"><g transform="translate(88.266631, 277.132832)"><path style="stroke:none" d="M 17.921875 -5.296875 L 6.46875 -5.296875 L 4.21875 0 L -0.15625 0 L 10.140625 -22.890625 L 14.328125 -22.890625 L 24.65625 0 L 20.203125 0 Z M 16.515625 -8.640625 L 12.203125 -18.640625 L 7.921875 -8.640625 Z M 16.515625 -8.640625 "/></g></g><g style="fill:#5271ff;fill-opacity:1;"><g transform="translate(112.109971, 277.132832)"><path style="stroke:none" d="M 3.078125 -22.890625 L 7.328125 -22.890625 L 7.328125 -3.59375 L 19.296875 -3.59375 L 19.296875 0 L 3.078125 0 Z M 3.078125 -22.890625 "/></g></g><g style="fill:#5271ff;fill-opacity:1;"><g transform="translate(131.047263, 277.132832)"><path style="stroke:none" d="M 12.5 -22.890625 C 14.476562 -22.890625 16.203125 -22.5625 17.671875 -21.90625 C 19.148438 -21.257812 20.28125 -20.320312 21.0625 -19.09375 C 21.84375 -17.875 22.234375 -16.425781 22.234375 -14.75 C 22.234375 -13.09375 21.84375 -11.644531 21.0625 -10.40625 C 20.28125 -9.175781 19.148438 -8.234375 17.671875 -7.578125 C 16.203125 -6.929688 14.476562 -6.609375 12.5 -6.609375 L 7.328125 -6.609375 L 7.328125 0 L 3.078125 0 L 3.078125 -22.890625 Z M 12.296875 -10.203125 C 14.148438 -10.203125 15.554688 -10.59375 16.515625 -11.375 C 17.472656 -12.164062 17.953125 -13.289062 17.953125 -14.75 C 17.953125 -16.207031 17.472656 -17.328125 16.515625 -18.109375 C 15.554688 -18.898438 14.148438 -19.296875 12.296875 -19.296875 L 7.328125 -19.296875 L 7.328125 -10.203125 Z M 12.296875 -10.203125 "/></g></g><g style="fill:#5271ff;fill-opacity:1;"><g transform="translate(154.138349, 277.132832)"><path style="stroke:none" d="M 23.421875 -22.890625 L 23.421875 0 L 19.15625 0 L 19.15625 -9.8125 L 7.328125 -9.8125 L 7.328125 0 L 3.078125 0 L 3.078125 -22.890625 L 7.328125 -22.890625 L 7.328125 -13.4375 L 19.15625 -13.4375 L 19.15625 -22.890625 Z M 23.421875 -22.890625 "/></g></g><g style="fill:#5271ff;fill-opacity:1;"><g transform="translate(179.976818, 277.132832)"><path style="stroke:none" d="M 17.921875 -5.296875 L 6.46875 -5.296875 L 4.21875 0 L -0.15625 0 L 10.140625 -22.890625 L 14.328125 -22.890625 L 24.65625 0 L 20.203125 0 Z M 16.515625 -8.640625 L 12.203125 -18.640625 L 7.921875 -8.640625 Z M 16.515625 -8.640625 "/></g></g><g style="fill:#5271ff;fill-opacity:1;"><g transform="translate(203.820158, 277.132832)"><path style="stroke:none" d="M 36.53125 -22.890625 L 28.9375 0 L 24.421875 0 L 18.765625 -16.9375 L 13.015625 0 L 8.46875 0 L 0.890625 -22.890625 L 5.296875 -22.890625 L 10.984375 -5.5 L 16.90625 -22.890625 L 20.828125 -22.890625 L 26.625 -5.390625 L 32.46875 -22.890625 Z M 36.53125 -22.890625 "/></g></g><g style="fill:#5271ff;fill-opacity:1;"><g transform="translate(240.582778, 277.132832)"><path style="stroke:none" d="M 20.25 -3.5625 L 20.25 0 L 3.078125 0 L 3.078125 -22.890625 L 19.78125 -22.890625 L 19.78125 -19.328125 L 7.328125 -19.328125 L 7.328125 -13.375 L 18.375 -13.375 L 18.375 -9.875 L 7.328125 -9.875 L 7.328125 -3.5625 Z M 20.25 -3.5625 "/></g></g><g style="fill:#5271ff;fill-opacity:1;"><g transform="translate(261.842271, 277.132832)"><path style="stroke:none" d="M 19.296875 -11.90625 C 20.554688 -11.488281 21.554688 -10.796875 22.296875 -9.828125 C 23.046875 -8.859375 23.421875 -7.65625 23.421875 -6.21875 C 23.421875 -4.226562 22.65625 -2.691406 21.125 -1.609375 C 19.601562 -0.535156 17.378906 0 14.453125 0 L 3.078125 0 L 3.078125 -22.890625 L 13.796875 -22.890625 C 16.503906 -22.890625 18.585938 -22.359375 20.046875 -21.296875 C 21.503906 -20.242188 22.234375 -18.789062 22.234375 -16.9375 C 22.234375 -15.800781 21.972656 -14.796875 21.453125 -13.921875 C 20.929688 -13.054688 20.210938 -12.382812 19.296875 -11.90625 Z M 7.328125 -19.5625 L 7.328125 -13.25 L 13.34375 -13.25 C 14.820312 -13.25 15.957031 -13.515625 16.75 -14.046875 C 17.550781 -14.578125 17.953125 -15.359375 17.953125 -16.390625 C 17.953125 -17.429688 17.550781 -18.21875 16.75 -18.75 C 15.957031 -19.289062 14.820312 -19.5625 13.34375 -19.5625 Z M 14.1875 -3.328125 C 17.476562 -3.328125 19.125 -4.429688 19.125 -6.640625 C 19.125 -8.835938 17.476562 -9.9375 14.1875 -9.9375 L 7.328125 -9.9375 L 7.328125 -3.328125 Z M 14.1875 -3.328125 "/></g></g><g style="fill:#374db2;fill-opacity:1;"><g transform="translate(127.372072, 293.869961)"><path style="stroke:none" d="M 5.515625 -3.578125 L 6.984375 -3.578125 L 6.984375 -0.765625 C 6.609375 -0.484375 6.171875 -0.265625 5.671875 -0.109375 C 5.179688 0.046875 4.679688 0.125 4.171875 0.125 C 3.453125 0.125 2.804688 -0.0234375 2.234375 -0.328125 C 1.660156 -0.640625 1.207031 -1.066406 0.875 -1.609375 C 0.550781 -2.160156 0.390625 -2.78125 0.390625 -3.46875 C 0.390625 -4.15625 0.550781 -4.769531 0.875 -5.3125 C 1.207031 -5.863281 1.660156 -6.289062 2.234375 -6.59375 C 2.816406 -6.90625 3.472656 -7.0625 4.203125 -7.0625 C 4.816406 -7.0625 5.367188 -6.957031 5.859375 -6.75 C 6.359375 -6.550781 6.773438 -6.253906 7.109375 -5.859375 L 6.078125 -4.90625 C 5.585938 -5.425781 4.988281 -5.6875 4.28125 -5.6875 C 3.84375 -5.6875 3.453125 -5.59375 3.109375 -5.40625 C 2.765625 -5.226562 2.492188 -4.96875 2.296875 -4.625 C 2.109375 -4.289062 2.015625 -3.90625 2.015625 -3.46875 C 2.015625 -3.039062 2.109375 -2.65625 2.296875 -2.3125 C 2.492188 -1.976562 2.757812 -1.71875 3.09375 -1.53125 C 3.4375 -1.34375 3.828125 -1.25 4.265625 -1.25 C 4.722656 -1.25 5.140625 -1.347656 5.515625 -1.546875 Z M 5.515625 -3.578125 "/></g></g><g style="fill:#374db2;fill-opacity:1;"><g transform="translate(139.63691, 293.869961)"><path style="stroke:none" d="M 0.828125 -6.9375 L 2.4375 -6.9375 L 2.4375 -1.3125 L 5.90625 -1.3125 L 5.90625 0 L 0.828125 0 Z M 0.828125 -6.9375 "/></g></g><g style="fill:#374db2;fill-opacity:1;"><g transform="translate(150.246109, 293.869961)"><path style="stroke:none" d="M 4.1875 0.125 C 3.46875 0.125 2.816406 -0.03125 2.234375 -0.34375 C 1.660156 -0.65625 1.207031 -1.082031 0.875 -1.625 C 0.550781 -2.175781 0.390625 -2.789062 0.390625 -3.46875 C 0.390625 -4.15625 0.550781 -4.769531 0.875 -5.3125 C 1.207031 -5.851562 1.660156 -6.28125 2.234375 -6.59375 C 2.816406 -6.90625 3.46875 -7.0625 4.1875 -7.0625 C 4.90625 -7.0625 5.550781 -6.90625 6.125 -6.59375 C 6.707031 -6.28125 7.160156 -5.851562 7.484375 -5.3125 C 7.816406 -4.769531 7.984375 -4.15625 7.984375 -3.46875 C 7.984375 -2.789062 7.816406 -2.175781 7.484375 -1.625 C 7.160156 -1.082031 6.707031 -0.65625 6.125 -0.34375 C 5.550781 -0.03125 4.90625 0.125 4.1875 0.125 Z M 4.1875 -1.25 C 4.59375 -1.25 4.960938 -1.34375 5.296875 -1.53125 C 5.628906 -1.71875 5.890625 -1.976562 6.078125 -2.3125 C 6.265625 -2.65625 6.359375 -3.039062 6.359375 -3.46875 C 6.359375 -3.90625 6.265625 -4.289062 6.078125 -4.625 C 5.890625 -4.957031 5.628906 -5.21875 5.296875 -5.40625 C 4.960938 -5.59375 4.59375 -5.6875 4.1875 -5.6875 C 3.78125 -5.6875 3.410156 -5.59375 3.078125 -5.40625 C 2.742188 -5.21875 2.484375 -4.957031 2.296875 -4.625 C 2.109375 -4.289062 2.015625 -3.90625 2.015625 -3.46875 C 2.015625 -3.039062 2.109375 -2.65625 2.296875 -2.3125 C 2.484375 -1.976562 2.742188 -1.71875 3.078125 -1.53125 C 3.410156 -1.34375 3.78125 -1.25 4.1875 -1.25 Z M 4.1875 -1.25 "/></g></g><g style="fill:#374db2;fill-opacity:1;"><g transform="translate(163.234672, 293.869961)"><path style="stroke:none" d="M 5.921875 -3.609375 C 6.316406 -3.484375 6.625 -3.273438 6.84375 -2.984375 C 7.070312 -2.691406 7.1875 -2.328125 7.1875 -1.890625 C 7.1875 -1.285156 6.953125 -0.816406 6.484375 -0.484375 C 6.015625 -0.160156 5.328125 0 4.421875 0 L 0.828125 0 L 0.828125 -6.9375 L 4.21875 -6.9375 C 5.0625 -6.9375 5.707031 -6.773438 6.15625 -6.453125 C 6.613281 -6.128906 6.84375 -5.691406 6.84375 -5.140625 C 6.84375 -4.804688 6.757812 -4.503906 6.59375 -4.234375 C 6.4375 -3.972656 6.210938 -3.765625 5.921875 -3.609375 Z M 2.421875 -5.734375 L 2.421875 -4.09375 L 4.015625 -4.09375 C 4.410156 -4.09375 4.710938 -4.160156 4.921875 -4.296875 C 5.128906 -4.441406 5.234375 -4.648438 5.234375 -4.921875 C 5.234375 -5.191406 5.128906 -5.394531 4.921875 -5.53125 C 4.710938 -5.664062 4.410156 -5.734375 4.015625 -5.734375 Z M 4.296875 -1.203125 C 4.722656 -1.203125 5.039062 -1.269531 5.25 -1.40625 C 5.46875 -1.550781 5.578125 -1.769531 5.578125 -2.0625 C 5.578125 -2.632812 5.148438 -2.921875 4.296875 -2.921875 L 2.421875 -2.921875 L 2.421875 -1.203125 Z M 4.296875 -1.203125 "/></g></g><g style="fill:#374db2;fill-opacity:1;"><g transform="translate(175.440024, 293.869961)"><path style="stroke:none" d="M 5.390625 -1.484375 L 2.171875 -1.484375 L 1.5625 0 L -0.09375 0 L 3 -6.9375 L 4.59375 -6.9375 L 7.703125 0 L 6.015625 0 Z M 4.890625 -2.703125 L 3.796875 -5.375 L 2.6875 -2.703125 Z M 4.890625 -2.703125 "/></g></g><g style="fill:#374db2;fill-opacity:1;"><g transform="translate(187.655286, 293.869961)"><path style="stroke:none" d="M 0.828125 -6.9375 L 2.4375 -6.9375 L 2.4375 -1.3125 L 5.90625 -1.3125 L 5.90625 0 L 0.828125 0 Z M 0.828125 -6.9375 "/></g></g><g style="fill:#374db2;fill-opacity:1;"><g transform="translate(198.264485, 293.869961)"><path style="stroke:none" d=""/></g></g><g style="fill:#374db2;fill-opacity:1;"><g transform="translate(205.6913, 293.869961)"><path style="stroke:none" d="M 2.265625 -5.640625 L 0.046875 -5.640625 L 0.046875 -6.9375 L 6.09375 -6.9375 L 6.09375 -5.640625 L 3.875 -5.640625 L 3.875 0 L 2.265625 0 Z M 2.265625 -5.640625 "/></g></g><g style="fill:#374db2;fill-opacity:1;"><g transform="translate(216.439292, 293.869961)"><path style="stroke:none" d="M 6.203125 -1.296875 L 6.203125 0 L 0.828125 0 L 0.828125 -6.9375 L 6.078125 -6.9375 L 6.078125 -5.65625 L 2.421875 -5.65625 L 2.421875 -4.140625 L 5.640625 -4.140625 L 5.640625 -2.890625 L 2.421875 -2.890625 L 2.421875 -1.296875 Z M 6.203125 -1.296875 "/></g></g><g style="fill:#374db2;fill-opacity:1;"><g transform="translate(227.712729, 293.869961)"><path style="stroke:none" d="M 4.140625 0.125 C 3.429688 0.125 2.789062 -0.0234375 2.21875 -0.328125 C 1.65625 -0.640625 1.207031 -1.066406 0.875 -1.609375 C 0.550781 -2.160156 0.390625 -2.78125 0.390625 -3.46875 C 0.390625 -4.15625 0.550781 -4.769531 0.875 -5.3125 C 1.207031 -5.863281 1.65625 -6.289062 2.21875 -6.59375 C 2.789062 -6.90625 3.4375 -7.0625 4.15625 -7.0625 C 4.757812 -7.0625 5.300781 -6.953125 5.78125 -6.734375 C 6.269531 -6.523438 6.679688 -6.222656 7.015625 -5.828125 L 5.984375 -4.875 C 5.515625 -5.414062 4.929688 -5.6875 4.234375 -5.6875 C 3.804688 -5.6875 3.421875 -5.59375 3.078125 -5.40625 C 2.742188 -5.21875 2.484375 -4.957031 2.296875 -4.625 C 2.109375 -4.289062 2.015625 -3.90625 2.015625 -3.46875 C 2.015625 -3.039062 2.109375 -2.65625 2.296875 -2.3125 C 2.484375 -1.976562 2.742188 -1.71875 3.078125 -1.53125 C 3.421875 -1.34375 3.804688 -1.25 4.234375 -1.25 C 4.929688 -1.25 5.515625 -1.523438 5.984375 -2.078125 L 7.015625 -1.125 C 6.679688 -0.71875 6.269531 -0.40625 5.78125 -0.1875 C 5.289062 0.0195312 4.742188 0.125 4.140625 0.125 Z M 4.140625 0.125 "/></g></g><g style="fill:#374db2;fill-opacity:1;"><g transform="translate(239.60084, 293.869961)"><path style="stroke:none" d="M 7.1875 -6.9375 L 7.1875 0 L 5.59375 0 L 5.59375 -2.84375 L 2.4375 -2.84375 L 2.4375 0 L 0.828125 0 L 0.828125 -6.9375 L 2.4375 -6.9375 L 2.4375 -4.203125 L 5.59375 -4.203125 L 5.59375 -6.9375 Z M 7.1875 -6.9375 "/></g></g></g></svg>