<svg xmlns="http://www.w3.org/2000/svg" xmlns:xlink="http://www.w3.org/1999/xlink" width="500" zoomAndPan="magnify" viewBox="0 0 375 374.999991" height="500" preserveAspectRatio="xMidYMid meet" version="1.2"><defs><clipPath id="4eb5a4cecb"><path d="M 4.496094 29 L 370.496094 29 L 370.496094 346 L 4.496094 346 Z M 4.496094 29 "/></clipPath></defs><g id="51b256f9a2"><path style=" stroke:none;fill-rule:nonzero;fill:#2b44b2;fill-opacity:1;" d="M 298.886719 345.984375 L 130.1875 345.976562 L 130.183594 345.984375 L 76.488281 345.984375 L 187.691406 153.386719 L 214.535156 199.882812 L 176.574219 265.628906 L 157.035156 299.476562 L 157.027344 299.484375 L 272.042969 299.484375 Z M 298.886719 345.984375 "/><g clip-rule="nonzero" clip-path="url(#4eb5a4cecb)"><path style=" stroke:none;fill-rule:nonzero;fill:#2a4ff6;fill-opacity:1;" d="M 370.5 345.984375 L 187.496094 29.015625 L 4.496094 345.984375 L 58.386719 345.984375 L 187.695312 122.363281 L 254.152344 237.46875 L 210.75 237.46875 L 183.90625 283.960938 L 280.996094 283.96875 L 316.804688 345.984375 Z M 370.5 345.984375 "/></g><g style="fill:#2b44b2;fill-opacity:1;"><g transform="translate(185.36718, 182.249988)"><path style="stroke:none" d="M 1.1875 -0.828125 C 1.1875 -1.179688 1.265625 -1.445312 1.421875 -1.625 C 1.585938 -1.800781 1.816406 -1.890625 2.109375 -1.890625 C 2.410156 -1.890625 2.644531 -1.800781 2.8125 -1.625 C 2.988281 -1.445312 3.078125 -1.179688 3.078125 -0.828125 C 3.078125 -0.492188 2.988281 -0.234375 2.8125 -0.046875 C 2.644531 0.140625 2.410156 0.234375 2.109375 0.234375 C 1.847656 0.234375 1.628906 0.148438 1.453125 -0.015625 C 1.273438 -0.179688 1.1875 -0.453125 1.1875 -0.828125 Z M 1.1875 -0.828125 "/></g></g></g></svg>