<?xml version="1.0" encoding="utf-8" standalone="yes"?>
<!DOCTYPE svg PUBLIC "-//W3C//DTD SVG 1.1//EN" "http://www.w3.org/Graphics/SVG/1.1/DTD/svg11.dtd">
<svg width="876" height="1249" viewBox="0 0 876 1249" style="fill:none;stroke:none;fill-rule:evenodd;clip-rule:evenodd;stroke-linecap:round;stroke-linejoin:round;stroke-miterlimit:1.5;" version="1.1" xmlns="http://www.w3.org/2000/svg" xmlns:xlink="http://www.w3.org/1999/xlink"><style class="text-font-style fontImports" data-font-family="Shantell Sans">@import url('https://fonts.googleapis.com/css2?family=Shantell+Sans:wght@300..800&amp;display=block');</style><g id="items" style="isolation: isolate"><g id="blend" style="mix-blend-mode: normal"><g id="g-root-cp_0_g-0_1lw4ugugzrrwl-fill" data-item-order="-914100" transform="translate(98, 110.00003051757812)"><g id="cp_0_g-0_1lw4ugugzrrwl-fill" stroke="none" fill="#ebebeb"><g><path d="M 58 82L 10 68.29L 10 22L 58 10L 106.0001 22L 106.0001 68.29L 58 82Z"></path></g></g></g><g id="g-root-cp_0_g-0_1_zpnsxqgzrr4f-fill" data-item-order="-914094" transform="translate(98, 276.0000305175781)"><g id="cp_0_g-0_1_zpnsxqgzrr4f-fill" stroke="none" fill="#ebebeb"><g><path d="M 58 72L 10 58.29L 10 10L 58 24L 106.0001 10L 106.0001 58.29L 58 72Z"></path></g></g></g><g id="g-root-cp_0_g-0_2_hz09j2gzrqbt-fill" data-item-order="-914087" transform="translate(350, 224.00003051757812)"></g><g id="g-root-cp_1_g-1_7q91agzrsoz-fill" data-item-order="-914084" transform="translate(62, 148.00003051757812)"><g id="cp_1_g-1_7q91agzrsoz-fill" stroke="none" fill="#dce9ff"><g><path d="M 46 30.29L 46 10L 10 20L 46 30.29ZM 142 30.2904L 142 10L 178 20.0004L 142 30.2904ZM 94 44L 46 30.29L 10 20L 10 56L 94 56L 94 44ZM 94 44L 142 30.2904L 178 20.0004L 178 56L 94 56L 94 44ZM 94 56L 10 56L 10 116L 94 116L 94 56ZM 178 56L 94 56L 94 116L 178 116L 178 56ZM 10 128L 94 152L 94 116L 10 116L 10 128ZM 178 128.001L 94 152L 94 116L 178 116.001L 178 128.001Z"></path></g></g></g><g id="g-root-cp_0_g-0_3_18mjrcugzrshx-fill" data-item-order="-914052" transform="translate(98, 432.0000305175781)"><g id="cp_0_g-0_3_18mjrcugzrshx-fill" stroke="none" fill="#ebebeb"><g><path d="M 58 72L 10 58.29L 10 10L 58 24L 106.0001 10L 106.0001 58.29L 58 72Z"></path></g></g></g><g id="g-root-cp_0_g-0_4_vbpq2mgzrqx3-fill" data-item-order="-914045" transform="translate(350, 380.0000305175781)"></g><g id="g-root-cp_2_g-2_9loamgzrrpd-fill" data-item-order="-914042" transform="translate(62, 304.0000305175781)"><g id="cp_2_g-2_9loamgzrrpd-fill" stroke="none" fill="#d1f4ff"><g><path d="M 46 30.29L 46 10L 10 20L 46 30.29ZM 142 30.2904L 142 10L 178 20.0004L 142 30.2904ZM 94 44L 46 30.29L 10 20L 10 56L 94 56L 94 44ZM 94 44L 142 30.2904L 178 20.0004L 178 56L 94 56L 94 44ZM 94 56L 10 56L 10 116L 94 116L 94 56ZM 178 56L 94 56L 94 116L 178 116L 178 56ZM 10 128L 94 152L 94 116L 10 116L 10 128ZM 178 128.001L 94 152L 94 116L 178 116.001L 178 128.001Z"></path></g></g></g><g id="g-root-cp_0_g-0_5_1cu96imgz6o7f-fill" data-item-order="-914010" transform="translate(98, 588)"><g id="cp_0_g-0_5_1cu96imgz6o7f-fill" stroke="none" fill="#ebebeb"><g><path d="M 58 72L 10 58.29L 10 10L 58 24L 106.0001 10L 106.0001 58.29L 58 72Z"></path></g></g></g><g id="g-root-cp_0_g-0_6_18efoe6gz6ozp-fill" data-item-order="-914003" transform="translate(350, 536)"></g><g id="g-root-cp_3_g-3_m7ymv2gz6o7j-fill" data-item-order="-914000" transform="translate(62, 460.0000305175781)"><g id="cp_3_g-3_m7ymv2gz6o7j-fill" stroke="none" fill="#c8ffe5"><g><path d="M 46 30.29L 46 10L 10 20L 46 30.29ZM 142 30.2904L 142 10L 178 20.0004L 142 30.2904ZM 94 44L 46 30.29L 10 20L 10 56L 94 56L 94 44ZM 94 44L 142 30.2904L 178 20.0004L 178 56L 94 56L 94 44ZM 94 56L 10 56L 10 116L 94 116L 94 56ZM 178 56L 94 56L 94 116L 178 116L 178 56ZM 10 128L 94 152L 94 116L 10 116L 10 128ZM 178 128.001L 94 152L 94 116L 178 116.001L 178 128.001Z"></path></g></g></g><g id="g-root-cp_0_g-0_7_1lr54xqgz6pkx-fill" data-item-order="-913968" transform="translate(98, 744)"><g id="cp_0_g-0_7_1lr54xqgz6pkx-fill" stroke="none" fill="#ebebeb"><g><path d="M 58 72L 10 58.29L 10 10L 58 24L 106.0001 10L 106.0001 58.29L 58 72Z"></path></g></g></g><g id="g-root-cp_0_g-0_8_18gb3nigz6o03-fill" data-item-order="-913961" transform="translate(350, 692)"></g><g id="g-root-cp_4_g-4_8ydjr2gz6ost-fill" data-item-order="-913958" transform="translate(62, 616)"><g id="cp_4_g-4_8ydjr2gz6ost-fill" stroke="none" fill="#e9ffb9"><g><path d="M 46 30.29L 46 10L 10 20L 46 30.29ZM 142 30.2904L 142 10L 178 20.0004L 142 30.2904ZM 94 44L 46 30.29L 10 20L 10 56L 94 56L 94 44ZM 94 44L 142 30.2904L 178 20.0004L 178 56L 94 56L 94 44ZM 94 56L 10 56L 10 116L 94 116L 94 56ZM 178 56L 94 56L 94 116L 178 116L 178 56ZM 10 128L 94 152L 94 116L 10 116L 10 128ZM 178 128.001L 94 152L 94 116L 178 116.001L 178 128.001Z"></path></g></g></g><g id="g-root-cp_0_g-0_9_1q8u2bigz6nt3-fill" data-item-order="-913926" transform="translate(98, 900)"><g id="cp_0_g-0_9_1q8u2bigz6nt3-fill" stroke="none" fill="#ebebeb"><g><path d="M 58 72L 10 58.29L 10 10L 58 24L 106.0001 10L 106.0001 58.29L 58 72Z"></path></g></g></g><g id="g-root-cp_0_g-0_10_18hk1tqgz6q69-fill" data-item-order="-913919" transform="translate(350, 848)"></g><g id="g-root-cp_5_g-5_v6q0jigz6olf-fill" data-item-order="-913916" transform="translate(62, 772)"><g id="cp_5_g-5_v6q0jigz6olf-fill" stroke="none" fill="#fff8b6"><g><path d="M 46 30.29L 46 10L 10 20L 46 30.29ZM 142 30.2904L 142 10L 178 20.0004L 142 30.2904ZM 94 44L 46 30.29L 10 20L 10 56L 94 56L 94 44ZM 94 44L 142 30.2904L 178 20.0004L 178 56L 94 56L 94 44ZM 94 56L 10 56L 10 116L 94 116L 94 56ZM 178 56L 94 56L 94 116L 178 116L 178 56ZM 10 128L 94 152L 94 116L 10 116L 10 128ZM 178 128.001L 94 152L 94 116L 178 116.001L 178 128.001Z"></path></g></g></g><g id="g-root-cp_0_g-0_11_908z0egz6nt9-fill" data-item-order="-913884" transform="translate(98, 1056)"><g id="cp_0_g-0_11_908z0egz6nt9-fill" stroke="none" fill="#ebebeb"><g><path d="M 58 72L 10 58.29L 10 10L 58 24L 106.0001 10L 106.0001 58.29L 58 72Z"></path></g></g></g><g id="g-root-cp_0_g-0_12_1qa30hqgz6pzb-fill" data-item-order="-913877" transform="translate(350, 1004)"></g><g id="g-root-cp_6_g-6_v8lfsugz6nlt-fill" data-item-order="-913874" transform="translate(62, 928)"><g id="cp_6_g-6_v8lfsugz6nlt-fill" stroke="none" fill="#ffe4cb"><g><path d="M 46 30.29L 46 10L 10 20L 46 30.29ZM 142 30.2904L 142 10L 178 20.0004L 142 30.2904ZM 94 44L 46 30.29L 10 20L 10 56L 94 56L 94 44ZM 94 44L 142 30.2904L 178 20.0004L 178 56L 94 56L 94 44ZM 94 56L 10 56L 10 116L 94 116L 94 56ZM 178 56L 94 56L 94 116L 178 116L 178 56ZM 10 128L 94 152L 94 116L 10 116L 10 128ZM 178 128.001L 94 152L 94 116L 178 116.001L 178 128.001Z"></path></g></g></g><g id="g-root-ic_2_detpa6gzqdqa-fill" data-item-order="-2304" transform="translate(266, 980)"><g id="ic_2_detpa6gzqdqa-fill" stroke="none" fill="#f99539"><g><path d="M 10 15.5C 10.006599 12.465172 12.465172 10.006599 15.5 10L 52.5 10C 55.534828 10.006599 57.993401 12.465172 58 15.5L 58 52.5C 57.993401 55.534828 55.534828 57.993401 52.5 58L 15.5 58C 12.465172 57.993401 10.006599 55.534828 10 52.5L 10 15.5ZM 27.9 49.700001C 27.299999 50.299999 26.5 50.700001 25.5 50.700001C 23.5 50.700001 21.9 49.099998 22.1 47.299999L 22.1 40.400002L 19.5 40.400002C 18.671574 40.400002 18 39.728428 18 38.900002C 18 38.071571 18.671574 37.400002 19.5 37.400002L 22.1 37.400002L 22.1 34.700001C 19.299999 33.299999 17.5 30.700001 17.5 27.5C 17.5 24.1 19.5 21.299999 22.5 20.1L 22.5 25.5C 22.5 27.1 23.9 28.5 25.5 28.5C 27.1 28.5 28.5 27.1 28.5 25.5L 28.5 20.1C 31.5 21.299999 33.5 24.1 33.5 27.5C 33.5 30.700001 31.5 33.5 28.9 34.700001L 28.9 37.400002L 31.5 37.400002C 32.32843 37.400002 33 38.071571 33 38.900002C 33 39.728428 32.32843 40.400002 31.5 40.400002L 28.9 40.400002L 28.9 47.299999C 28.9 48.099998 28.5 49.099998 27.9 49.700001ZM 44.099998 50.299999C 45.900002 50.299999 47.5 48.900002 47.5 46.900002L 47.5 43.400002L 50.5 43.400002C 51.32843 43.400002 52 42.728428 52 41.900002C 52 41.071571 51.32843 40.400002 50.5 40.400002L 47.5 40.400002L 47.5 33.900002L 45.599998 33.900002L 45.599998 20.1C 45.600002 19.271572 44.928429 18.6 44.100002 18.6C 43.271572 18.6 42.600002 19.271572 42.600002 20.1L 42.599998 33.900002L 40.700001 33.900002L 40.700001 40.400002L 37.5 40.400002C 36.671574 40.400002 36 41.071571 36 41.900002C 36 42.728428 36.671574 43.400002 37.5 43.400002L 40.700001 43.400002L 40.700001 46.900002C 40.700001 48.700001 42.099998 50.299999 44.099998 50.299999Z"></path></g></g></g><g id="g-root-ic_pen_v63mm6gzqdca-fill" data-item-order="-2304" transform="translate(266, 356.0000305175781)"><g id="ic_pen_v63mm6gzqdca-fill" stroke="none" fill="#1ac6ff"><g><path d="M 37.080002 42.740002C 36.986954 42.639648 36.856842 42.581818 36.720001 42.580002L 26 42.580002C 24.895432 42.580002 24 41.68457 24 40.580002L 24 18.58C 24 17.47543 24.895432 16.58 26 16.58L 52 16.58C 53.104568 16.58 54 17.47543 54 18.58L 54 40.580002C 53.998257 41.08527 53.805332 41.571152 53.459999 41.940002C 53.269428 42.134422 53.269428 42.44558 53.459999 42.639999L 55.860001 45.060001C 55.957569 45.151157 56.086472 45.201283 56.219997 45.199997C 56.356838 45.198181 56.486954 45.140354 56.580002 45.040001C 57.475792 44.110619 57.977451 42.870811 57.98 41.580002L 57.98 17.58C 57.98 14.818577 55.741425 12.58 52.98 12.58L 15 12.58C 12.238576 12.58 10 14.818577 10 17.58L 10 41.580002C 10 44.341423 12.238576 46.580002 15 46.580002L 39.720001 46.580002C 39.919441 46.580696 40.100224 46.462795 40.18 46.279999C 40.257351 46.096165 40.218048 45.883945 40.080002 45.740002ZM 18.5 31.08L 15.5 31.08C 14.671574 31.08 14 30.408428 14 29.58C 14 28.751574 14.671574 28.08 15.5 28.08L 18.5 28.08C 19.328426 28.08 20 28.751574 20 29.58C 20 30.408428 19.328426 31.08 18.5 31.08ZM 20 37.080002C 20 37.908428 19.328426 38.580002 18.5 38.580002L 15.5 38.580002C 14.671574 38.580002 14 37.908428 14 37.080002C 14 36.251572 14.671574 35.580002 15.5 35.580002L 18.5 35.580002C 19.323925 35.590771 19.989227 36.256073 20 37.080002ZM 18.5 23.58L 15.5 23.58C 14.671574 23.58 14 22.908428 14 22.08C 14 21.251574 14.671574 20.58 15.5 20.58L 18.5 20.58C 19.328426 20.58 20 21.251574 20 22.08C 20 22.908428 19.328426 23.58 18.5 23.58ZM 37.34 30.76C 37.228153 30.644064 37.091354 30.555145 36.939999 30.499998L 33.059998 29.219999C 32.702393 29.103851 32.309856 29.198114 32.043983 29.463985C 31.778114 29.729856 31.683851 30.122391 31.799999 30.48L 33.099998 34.360001C 33.145119 34.511383 33.227661 34.648949 33.34 34.760002L 53.18 54.580002C 54.284626 55.684219 56.075203 55.684055 57.17963 54.579628C 58.284054 53.475204 58.284218 51.684628 57.179996 50.579998Z"></path></g></g></g><g id="g-root-ic_crea_1q6yn26gz82yu-fill" data-item-order="-2304" transform="translate(266, 200.00003051757812)"><g id="ic_crea_1q6yn26gz82yu-fill" stroke="none" fill="#4f92ff"><g><path d="M 58 20.5C 58 19.395432 57.104568 18.5 56 18.5L 55.52 18.5C 55.342842 18.50297 55.178413 18.592659 55.080002 18.74C 54.792778 19.264509 54.428753 19.743132 54 20.16L 49.66 24.5L 50 24.5C 51.104568 24.5 52 25.395432 52 26.5L 52 32.5C 52 32.776142 51.776142 33 51.5 33L 43 33C 42.171574 33 41.5 33.671574 41.5 34.5C 41.5 35.32843 42.171574 36 43 36L 51.5 36C 51.776142 36 52 36.223858 52 36.5L 52 48.5C 52 49.604568 51.104568 50.5 50 50.5L 47 50.5C 46.723858 50.5 46.5 50.276142 46.5 50L 46.5 41.5C 46.489227 40.676075 45.823925 40.010773 45 40L 35 40C 34.176075 40.010773 33.510773 40.676075 33.5 41.5L 33.5 50C 33.5 50.276142 33.276142 50.5 33 50.5L 28 50.5C 27.723858 50.5 27.5 50.276142 27.5 50L 27.5 42.5C 27.489525 41.822784 27.209015 41.177803 26.720798 40.708366C 26.232584 40.23893 25.577103 39.983917 24.9 40L 16.5 40C 16.223858 40 16 39.776142 16 39.5L 16 36.5C 16 36.223858 16.223858 36 16.5 36L 26 36C 26.828428 36 27.5 35.32843 27.5 34.5C 27.5 33.671574 26.828428 33 26 33L 16.5 33C 16.223858 33 16 32.776142 16 32.5L 16 30.5C 16 30.223858 16.223858 30 16.5 30L 26 30C 26.828428 30 27.5 29.328428 27.5 28.5C 27.5 27.671574 26.828428 27 26 27L 16.5 27C 16.223858 27 16 26.776142 16 26.5C 16 25.395432 16.895432 24.5 18 24.5L 32.32 24.5C 32.553867 24.495361 32.753265 24.329197 32.799999 24.1L 33.080002 22.720001C 33.244637 21.960646 33.626869 21.26568 34.18 20.720001L 35.5 19.4C 35.641533 19.249729 35.680771 19.029968 35.599998 18.84C 35.520226 18.657206 35.339443 18.539307 35.139999 18.540001L 12 18.540001C 10.895431 18.540001 10 19.435431 10 20.540001L 10 54.540001C 10 55.644569 10.895431 56.540001 12 56.540001L 56 56.540001C 57.104568 56.540001 58 55.644569 58 54.540001ZM 43.5 43L 43.5 45L 36.5 45L 36.5 43ZM 36.5 48L 43.5 48L 43.5 50.5L 36.5 50.5ZM 24 43C 24.276142 43 24.5 43.223858 24.5 43.5L 24.5 50C 24.5 50.276142 24.276142 50.5 24 50.5L 18 50.5C 16.895432 50.5 16 49.604568 16 48.5L 16 43.5C 16 43.223858 16.223858 43 16.5 43ZM 36.299999 22.799999C 36.157936 22.934273 36.060249 23.108713 36.019997 23.299999L 35.02 28.299999C 34.960815 28.62772 35.065342 28.963697 35.299999 29.199999C 35.53038 29.444319 35.871674 29.550499 36.199997 29.48L 41.200001 28.48C 41.389595 28.435331 41.562843 28.338314 41.699997 28.199999L 51.880001 18C 53.221577 16.479504 53.149704 14.177953 51.715874 12.744122C 50.282043 11.310291 47.980495 11.238422 46.459999 12.58Z"></path></g></g></g><g id="g-root-ic_empl_1cy07cugzjax2-fill" data-item-order="-2304" transform="translate(266, 512)"><g id="ic_empl_1cy07cugzjax2-fill" stroke="none" fill="#44e095"><g><path d="M 55.740002 54L 48 54C 47.841053 54.006996 47.689774 53.931355 47.599998 53.799999C 47.532356 53.668171 47.532356 53.511829 47.599998 53.380001L 50.240002 43.380001C 50.384018 42.826126 50.249744 42.236813 49.880001 41.799999C 49.494831 41.33749 48.921848 41.073036 48.32 41.080002L 19.74 41.080002C 19.138151 41.073036 18.56517 41.33749 18.18 41.799999C 17.810257 42.236813 17.675983 42.826126 17.82 43.380001L 20.459999 53.380001C 20.527643 53.511829 20.527643 53.668171 20.459999 53.799999C 20.359699 53.951756 20.17939 54.030151 20 54L 12.26 54C 11.155431 54 10.26 54.895432 10.26 56C 10.26 57.104568 11.155431 58 12.26 58L 55.740002 58C 56.84457 58 57.740002 57.104568 57.740002 56C 57.740002 54.895432 56.84457 54 55.740002 54ZM 34 46C 35.004845 45.991898 35.915268 46.590965 36.305431 47.517006C 36.695599 48.443047 36.488384 49.513004 35.780708 50.226429C 35.073036 50.939857 34.004791 51.155727 33.075623 50.773071C 32.146454 50.390419 31.540033 49.484879 31.540001 48.48C 31.534668 47.824108 31.791489 47.193249 32.25341 46.727573C 32.715324 46.261902 33.344086 45.999977 34 46ZM 22.560001 37.139999C 22.581482 37.676605 23.022966 38.10043 23.560001 38.099998L 44.439999 38.099998C 44.984566 38.100109 45.429108 37.664459 45.439999 37.120003C 45.439083 32.753967 42.957397 28.767761 39.040001 26.84C 38.887207 26.755463 38.792377 26.594618 38.792377 26.419998C 38.792377 26.24538 38.887207 26.084536 39.040001 26C 42.152405 23.785564 43.475975 19.812912 42.313637 16.174263C 41.151299 12.535613 37.769791 10.065959 33.949997 10.065959C 30.130209 10.065959 26.748699 12.535613 25.586361 16.174263C 24.424025 19.812912 25.747593 23.785564 28.859999 26C 29.002937 26.109116 29.084778 26.280237 29.08 26.459999C 29.058956 26.631586 28.95402 26.781498 28.799999 26.859999C 24.94805 28.835978 22.535276 32.810867 22.559999 37.139999ZM 34 29.34C 34.817383 29.34 35.480003 30.002619 35.480003 30.820002L 35.48 33.260002C 35.480003 34.077385 34.817383 34.740002 34 34.740002C 33.182617 34.740002 32.52 34.077385 32.52 33.260002L 32.52 30.82C 32.52 30.002619 33.182617 29.34 34 29.34ZM 29.299999 17.34C 29.352066 17.19426 29.471207 17.082565 29.619999 17.039999C 29.750965 16.96887 29.909035 16.96887 30.039999 17.040001C 31.826187 18.202568 33.908836 18.827362 36.040001 18.84C 36.799278 18.832531 37.556084 18.752161 38.299995 18.599998C 38.362816 18.567945 38.437187 18.567945 38.5 18.599998C 38.559662 18.649887 38.595886 18.72234 38.599998 18.799999C 38.608555 20.715435 37.482117 22.454166 35.730492 23.229267C 33.978867 24.004366 31.934509 23.668726 30.522665 22.37425C 29.110823 21.079777 28.599455 19.072151 29.220001 17.26Z"></path></g></g></g><g id="g-root-ic_comp_dcbsxqgzm58q-fill" data-item-order="-2304" transform="translate(266, 668)"><g id="ic_comp_dcbsxqgzm58q-fill" stroke="none" fill="#a8dd38"><g><path d="M 44 41.260002C 42.895432 41.260002 42 42.15543 42 43.259998L 42 44.259998L 14 44.259998L 14 26.26L 24 26.26C 25.104568 26.26 26 25.364571 26 24.26C 26 23.15543 25.104568 22.26 24 22.26L 14 22.26C 11.790861 22.26 10 24.050861 10 26.26L 10 47.259998C 10 49.469139 11.790861 51.259998 14 51.259998L 26 51.259998L 26 54.259998L 20 54.259998C 18.895432 54.259998 18 55.15543 18 56.259998C 18 57.364571 18.895432 58.259998 20 58.259998L 36 58.259998C 37.104568 58.259998 38 57.364571 38 56.259998C 38 55.15543 37.104568 54.259998 36 54.259998L 30 54.259998L 30 51.259998L 42 51.259998C 44.209141 51.259998 46 49.469139 46 47.259998L 46 43.259998C 46 42.15543 45.104568 41.260002 44 41.260002ZM 55.18 21.82C 52.900978 19.546741 49.632637 18.569996 46.48 19.219999L 44.939999 17.68C 44.354366 17.095093 43.405636 17.095093 42.82 17.68L 41.34 19.18L 39.200001 17.059999C 38.921425 16.774105 38.539177 16.61286 38.139999 16.61286C 37.740826 16.61286 37.358574 16.774105 37.080002 17.060001C 36.495094 17.645636 36.495094 18.594364 37.080002 19.18L 39.220001 21.299999L 37.440002 23.08C 36.855095 23.665634 36.855095 24.614365 37.440002 25.200001L 38.98 26.719999C 38.07848 31.21249 40.477505 35.71587 44.708839 37.474003C 48.94017 39.232132 53.824173 37.754875 56.371758 33.946327C 58.919342 30.137783 58.420277 25.059725 55.18 21.82ZM 40.599998 15.08C 40.809807 15.189125 41.043549 15.244123 41.279999 15.24C 41.845535 15.241126 42.363628 14.924084 42.620003 14.42L 43.619999 12.42C 43.969307 11.679015 43.668575 10.794504 42.939999 10.42C 42.199703 10.05921 41.306961 10.362741 40.940002 11.1L 39.940002 13.1C 39.57798 13.829191 39.872871 14.71386 40.599998 15.08ZM 33.220001 15.3C 33.498459 15.585217 33.881416 15.744182 34.279999 15.74C 34.678131 15.74188 35.060234 15.583273 35.34 15.3C 35.924908 14.714365 35.924908 13.765635 35.34 13.18L 33.34 11.18C 32.748981 10.629281 31.82798 10.645531 31.256756 11.216756C 30.685532 11.78798 30.669283 12.708981 31.220001 13.3ZM 30.780001 23.24C 31.010393 23.247066 31.238419 23.191788 31.439999 23.08L 33.440002 22.08C 34.177261 21.713037 34.480789 20.820301 34.120003 20.08C 33.745495 19.351425 32.860985 19.05069 32.119999 19.4L 30.120001 20.4C 29.390284 20.774174 29.09631 21.665005 29.460001 22.400002C 29.703936 22.908701 30.215864 23.234474 30.780001 23.240002ZM 32 31.76C 32 30.931574 31.328428 30.26 30.5 30.26L 19.5 30.26C 18.671574 30.26 18 30.931574 18 31.76C 18 32.588428 18.671574 33.260002 19.5 33.260002L 30.5 33.260002C 31.323923 33.249229 31.989227 32.583923 32 31.76ZM 19.5 37.260002C 18.671574 37.260002 18 37.931572 18 38.760002C 18 39.588428 18.671574 40.260002 19.5 40.260002L 25.5 40.260002C 26.328428 40.260002 27 39.588428 27 38.760002C 27 37.931572 26.328428 37.260002 25.5 37.260002Z"></path></g></g></g><g id="g-root-ic_box_1hgbltqgznime-fill" data-item-order="-2304" transform="translate(266, 824)"><g id="ic_box_1hgbltqgznime-fill" stroke="none" fill="#ffe60a"><g><path d="M 10 10M 32.5 46.599998L 17.440001 42.599998L 23.439999 41.040001C 24.239552 40.833969 24.722261 40.020515 24.52 39.220001C 24.304794 38.417713 23.485401 37.936764 22.68 38.139999L 11.62 41.080002C 10.911135 41.262806 10.437765 41.930595 10.5 42.66L 10.5 51.66C 10.502564 52.363068 10.993113 52.970016 11.68 53.120003L 32.5 57.639999ZM 57.5 42.540001C 57.497112 41.856964 57.038967 41.259743 56.379997 41.080002L 45.400002 38.200001C 44.594597 37.996765 43.775204 38.477715 43.559998 39.279999C 43.357738 40.080513 43.84045 40.89397 44.639999 41.099998L 50.200001 42.560001L 35.5 46.560001L 35.5 57.619999L 56.32 53.099998C 57.006889 52.950016 57.497437 52.343067 57.5 51.639999L 57.5 42.540001ZM 42.919998 28.66C 42.442524 30.463064 41.679539 32.178085 40.659996 33.739998C 41.39473 34.182198 42.067307 34.720261 42.66 35.34C 43.024715 35.71209 43.574177 35.834827 44.062557 35.653305C 44.550938 35.471786 44.886848 35.019966 44.920002 34.5C 45.127789 32.355873 44.398582 30.226599 42.919998 28.66ZM 25.08 28.66C 23.601416 30.226599 22.872211 32.355873 23.08 34.5C 23.113153 35.019966 23.449064 35.471786 23.937445 35.653305C 24.425823 35.834827 24.975286 35.71209 25.34 35.34C 25.932693 34.720261 26.60527 34.182198 27.34 33.739998C 26.320457 32.178085 25.557476 30.463064 25.079998 28.66ZM 34 10C 34 10 27 13.5 27 20.5C 27 24.360001 28.16 34.5 34 34.5C 39.84 34.5 41 24.360001 41 20.5C 41 13.5 34 10 34 10ZM 34 23C 32.881901 23.008102 31.869383 22.340813 31.435877 21.310139C 31.002373 20.279465 31.233545 19.089073 32.021301 18.295567C 32.809059 17.50206 33.997734 17.262238 35.031532 17.688236C 36.065334 18.114231 36.739971 19.121872 36.739998 20.24C 36.745331 20.970152 36.459007 21.67223 35.94458 22.190414C 35.430149 22.708599 34.730171 23.000019 34 23ZM 34 36.66C 32.453606 36.66 31.200001 37.913605 31.200001 39.459999C 31.200001 41.02 32.459999 44.740002 34 44.740002C 35.540001 44.740002 36.799999 41.02 36.799999 39.459999C 36.800003 37.913605 35.546398 36.66 34 36.66Z"></path></g></g></g><g id="g-root-tx_5_1um5uf2gzqbk7-fill" data-item-order="0" transform="translate(176, 830)"><g id="tx_5_1um5uf2gzqbk7-fill" stroke="none" fill="#e0cb15"><g><text style="font: bold 30px &quot;Shantell Sans&quot;, cursive; white-space: pre;" font-weight="bold" font-size="30px" font-family="'Shantell Sans', cursive"><tspan x="12.63" y="48" dominant-baseline="ideographic">5</tspan></text></g></g></g><g id="g-root-tx_6_qwj1oegzdq17-fill" data-item-order="0" transform="translate(170, 986)"><g id="tx_6_qwj1oegzdq17-fill" stroke="none" fill="#de8431"><g><text style="font: bold 30px &quot;Shantell Sans&quot;, cursive; white-space: pre;" font-weight="bold" font-size="30px" font-family="'Shantell Sans', cursive"><tspan x="17.5" y="48" dominant-baseline="ideographic">6</tspan></text></g></g></g><g id="g-root-tx_4_1qa36tagznitf-fill" data-item-order="0" transform="translate(170, 674)"><g id="tx_4_1qa36tagznitf-fill" stroke="none" fill="#92bd39"><g><text style="font: bold 30px &quot;Shantell Sans&quot;, cursive; white-space: pre;" font-weight="bold" font-size="30px" font-family="'Shantell Sans', cursive"><tspan x="17.5" y="48" dominant-baseline="ideographic">4</tspan></text></g></g></g><g id="g-root-tx_2_13z8toegzjbb7-fill" data-item-order="0" transform="translate(170, 362.0000305175781)"><g id="tx_2_13z8toegzjbb7-fill" stroke="none" fill="#1eabda"><g><text style="font: bold 30px &quot;Shantell Sans&quot;, cursive; white-space: pre;" font-weight="bold" font-size="30px" font-family="'Shantell Sans', cursive"><tspan x="17.5" y="48" dominant-baseline="ideographic">2</tspan></text></g></g></g><g id="g-root-tx_1_94mdrygzoykv-fill" data-item-order="0" transform="translate(176, 206.00003051757812)"><g id="tx_1_94mdrygzoykv-fill" stroke="none" fill="#4e88e7"><g><text style="font: bold 30px &quot;Shantell Sans&quot;, cursive; white-space: pre;" font-weight="bold" font-size="30px" font-family="'Shantell Sans', cursive"><tspan x="15.17" y="48" dominant-baseline="ideographic">1</tspan></text></g></g></g><g id="g-root-tx_3_1ut12dagzkrnz-fill" data-item-order="0" transform="translate(170, 518)"><g id="tx_3_1ut12dagzkrnz-fill" stroke="none" fill="#3cc583"><g><text style="font: bold 30px &quot;Shantell Sans&quot;, cursive; white-space: pre;" font-weight="bold" font-size="30px" font-family="'Shantell Sans', cursive"><tspan x="17.5" y="48" dominant-baseline="ideographic">3</tspan></text></g></g></g><g id="g-root-cp_0_g-0_1lw4ugugzrrwl-stroke" data-item-order="-914100" transform="translate(98, 110.00003051757812)"><g id="cp_0_g-0_1lw4ugugzrrwl-stroke" fill="none" stroke-linecap="round" stroke-linejoin="round" stroke-miterlimit="4" stroke="#ffffff" stroke-width="2"><g><path d="M 58 82L 10 68.29L 10 22M 58 82L 58 36M 58 82L 106.0001 68.29L 106.0001 22M 10 22L 58 36M 10 22L 58 10L 106.0001 22M 58 36L 106.0001 22"></path></g></g></g><g id="g-root-cp_0_g-0_1_zpnsxqgzrr4f-stroke" data-item-order="-914094" transform="translate(98, 276.0000305175781)"><g id="cp_0_g-0_1_zpnsxqgzrr4f-stroke" fill="none" stroke-linecap="round" stroke-linejoin="round" stroke-miterlimit="4" stroke="#ffffff" stroke-width="2"><g><path d="M 58 72L 10 58.29L 10 10L 58 24M 58 72L 58 24M 58 72L 106.0001 58.29L 106.0001 10L 58 24"></path></g></g></g><g id="g-root-cp_0_g-0_2_hz09j2gzrqbt-stroke" data-item-order="-914087" transform="translate(350, 224.00003051757812)"><g id="cp_0_g-0_2_hz09j2gzrqbt-stroke" fill="none" stroke-linecap="round" stroke-linejoin="round" stroke-miterlimit="4" stroke="#484848" stroke-width="2" stroke-dasharray="0.1, 6.0"><g><path d="M 10 10L 178 10"></path></g></g></g><g id="g-root-cp_1_g-1_7q91agzrsoz-stroke" data-item-order="-914084" transform="translate(62, 148.00003051757812)"><g id="cp_1_g-1_7q91agzrsoz-stroke" fill="none" stroke-linecap="round" stroke-linejoin="round" stroke-miterlimit="4" stroke="#ffffff" stroke-width="2"><g><path d="M 46 30.29L 46 10L 10 20L 46 30.29ZM 142 30.2904L 142 10L 178 20.0004L 142 30.2904ZM 46 30.29L 94 44M 10 20L 10 56M 142 30.2904L 94 44M 178 20.0004L 178 56M 94 44L 94 56M 10 56L 10 116M 94 56L 94 116M 178 56L 178 116M 94 152L 94 116M 94 152L 10 128L 10 116M 94 152L 178 128.001L 178 116.001"></path></g></g></g><g id="g-root-cp_0_g-0_3_18mjrcugzrshx-stroke" data-item-order="-914052" transform="translate(98, 432.0000305175781)"><g id="cp_0_g-0_3_18mjrcugzrshx-stroke" fill="none" stroke-linecap="round" stroke-linejoin="round" stroke-miterlimit="4" stroke="#ffffff" stroke-width="2"><g><path d="M 58 72L 10 58.29L 10 10L 58 24M 58 72L 58 24M 58 72L 106.0001 58.29L 106.0001 10L 58 24"></path></g></g></g><g id="g-root-cp_0_g-0_4_vbpq2mgzrqx3-stroke" data-item-order="-914045" transform="translate(350, 380.0000305175781)"><g id="cp_0_g-0_4_vbpq2mgzrqx3-stroke" fill="none" stroke-linecap="round" stroke-linejoin="round" stroke-miterlimit="4" stroke="#484848" stroke-width="2" stroke-dasharray="0.1, 6.0"><g><path d="M 10 10L 178 10"></path></g></g></g><g id="g-root-cp_2_g-2_9loamgzrrpd-stroke" data-item-order="-914042" transform="translate(62, 304.0000305175781)"><g id="cp_2_g-2_9loamgzrrpd-stroke" fill="none" stroke-linecap="round" stroke-linejoin="round" stroke-miterlimit="4" stroke="#ffffff" stroke-width="2"><g><path d="M 46 30.29L 46 10L 10 20L 46 30.29ZM 142 30.2904L 142 10L 178 20.0004L 142 30.2904ZM 46 30.29L 94 44M 10 20L 10 56M 142 30.2904L 94 44M 178 20.0004L 178 56M 94 44L 94 56M 10 56L 10 116M 94 56L 94 116M 178 56L 178 116M 94 152L 94 116M 94 152L 10 128L 10 116M 94 152L 178 128.001L 178 116.001"></path></g></g></g><g id="g-root-cp_0_g-0_5_1cu96imgz6o7f-stroke" data-item-order="-914010" transform="translate(98, 588)"><g id="cp_0_g-0_5_1cu96imgz6o7f-stroke" fill="none" stroke-linecap="round" stroke-linejoin="round" stroke-miterlimit="4" stroke="#ffffff" stroke-width="2"><g><path d="M 58 72L 10 58.29L 10 10L 58 24M 58 72L 58 24M 58 72L 106.0001 58.29L 106.0001 10L 58 24"></path></g></g></g><g id="g-root-cp_0_g-0_6_18efoe6gz6ozp-stroke" data-item-order="-914003" transform="translate(350, 536)"><g id="cp_0_g-0_6_18efoe6gz6ozp-stroke" fill="none" stroke-linecap="round" stroke-linejoin="round" stroke-miterlimit="4" stroke="#484848" stroke-width="2" stroke-dasharray="0.1, 6.0"><g><path d="M 10 10L 178 10"></path></g></g></g><g id="g-root-cp_3_g-3_m7ymv2gz6o7j-stroke" data-item-order="-914000" transform="translate(62, 460.0000305175781)"><g id="cp_3_g-3_m7ymv2gz6o7j-stroke" fill="none" stroke-linecap="round" stroke-linejoin="round" stroke-miterlimit="4" stroke="#ffffff" stroke-width="2"><g><path d="M 46 30.29L 46 10L 10 20L 46 30.29ZM 142 30.2904L 142 10L 178 20.0004L 142 30.2904ZM 46 30.29L 94 44M 10 20L 10 56M 142 30.2904L 94 44M 178 20.0004L 178 56M 94 44L 94 56M 10 56L 10 116M 94 56L 94 116M 178 56L 178 116M 94 152L 94 116M 94 152L 10 128L 10 116M 94 152L 178 128.001L 178 116.001"></path></g></g></g><g id="g-root-cp_0_g-0_7_1lr54xqgz6pkx-stroke" data-item-order="-913968" transform="translate(98, 744)"><g id="cp_0_g-0_7_1lr54xqgz6pkx-stroke" fill="none" stroke-linecap="round" stroke-linejoin="round" stroke-miterlimit="4" stroke="#ffffff" stroke-width="2"><g><path d="M 58 72L 10 58.29L 10 10L 58 24M 58 72L 58 24M 58 72L 106.0001 58.29L 106.0001 10L 58 24"></path></g></g></g><g id="g-root-cp_0_g-0_8_18gb3nigz6o03-stroke" data-item-order="-913961" transform="translate(350, 692)"><g id="cp_0_g-0_8_18gb3nigz6o03-stroke" fill="none" stroke-linecap="round" stroke-linejoin="round" stroke-miterlimit="4" stroke="#484848" stroke-width="2" stroke-dasharray="0.1, 6.0"><g><path d="M 10 10L 178 10"></path></g></g></g><g id="g-root-cp_4_g-4_8ydjr2gz6ost-stroke" data-item-order="-913958" transform="translate(62, 616)"><g id="cp_4_g-4_8ydjr2gz6ost-stroke" fill="none" stroke-linecap="round" stroke-linejoin="round" stroke-miterlimit="4" stroke="#ffffff" stroke-width="2"><g><path d="M 46 30.29L 46 10L 10 20L 46 30.29ZM 142 30.2904L 142 10L 178 20.0004L 142 30.2904ZM 46 30.29L 94 44M 10 20L 10 56M 142 30.2904L 94 44M 178 20.0004L 178 56M 94 44L 94 56M 10 56L 10 116M 94 56L 94 116M 178 56L 178 116M 94 152L 94 116M 94 152L 10 128L 10 116M 94 152L 178 128.001L 178 116.001"></path></g></g></g><g id="g-root-cp_0_g-0_9_1q8u2bigz6nt3-stroke" data-item-order="-913926" transform="translate(98, 900)"><g id="cp_0_g-0_9_1q8u2bigz6nt3-stroke" fill="none" stroke-linecap="round" stroke-linejoin="round" stroke-miterlimit="4" stroke="#ffffff" stroke-width="2"><g><path d="M 58 72L 10 58.29L 10 10L 58 24M 58 72L 58 24M 58 72L 106.0001 58.29L 106.0001 10L 58 24"></path></g></g></g><g id="g-root-cp_0_g-0_10_18hk1tqgz6q69-stroke" data-item-order="-913919" transform="translate(350, 848)"><g id="cp_0_g-0_10_18hk1tqgz6q69-stroke" fill="none" stroke-linecap="round" stroke-linejoin="round" stroke-miterlimit="4" stroke="#484848" stroke-width="2" stroke-dasharray="0.1, 6.0"><g><path d="M 10 10L 178 10"></path></g></g></g><g id="g-root-cp_5_g-5_v6q0jigz6olf-stroke" data-item-order="-913916" transform="translate(62, 772)"><g id="cp_5_g-5_v6q0jigz6olf-stroke" fill="none" stroke-linecap="round" stroke-linejoin="round" stroke-miterlimit="4" stroke="#ffffff" stroke-width="2"><g><path d="M 46 30.29L 46 10L 10 20L 46 30.29ZM 142 30.2904L 142 10L 178 20.0004L 142 30.2904ZM 46 30.29L 94 44M 10 20L 10 56M 142 30.2904L 94 44M 178 20.0004L 178 56M 94 44L 94 56M 10 56L 10 116M 94 56L 94 116M 178 56L 178 116M 94 152L 94 116M 94 152L 10 128L 10 116M 94 152L 178 128.001L 178 116.001"></path></g></g></g><g id="g-root-cp_0_g-0_11_908z0egz6nt9-stroke" data-item-order="-913884" transform="translate(98, 1056)"><g id="cp_0_g-0_11_908z0egz6nt9-stroke" fill="none" stroke-linecap="round" stroke-linejoin="round" stroke-miterlimit="4" stroke="#ffffff" stroke-width="2"><g><path d="M 58 72L 10 58.29L 10 10L 58 24M 58 72L 58 24M 58 72L 106.0001 58.29L 106.0001 10L 58 24"></path></g></g></g><g id="g-root-cp_0_g-0_12_1qa30hqgz6pzb-stroke" data-item-order="-913877" transform="translate(350, 1004)"><g id="cp_0_g-0_12_1qa30hqgz6pzb-stroke" fill="none" stroke-linecap="round" stroke-linejoin="round" stroke-miterlimit="4" stroke="#484848" stroke-width="2" stroke-dasharray="0.1, 6.0"><g><path d="M 10 10L 178 10"></path></g></g></g><g id="g-root-cp_6_g-6_v8lfsugz6nlt-stroke" data-item-order="-913874" transform="translate(62, 928)"><g id="cp_6_g-6_v8lfsugz6nlt-stroke" fill="none" stroke-linecap="round" stroke-linejoin="round" stroke-miterlimit="4" stroke="#ffffff" stroke-width="2"><g><path d="M 46 30.29L 46 10L 10 20L 46 30.29ZM 142 30.2904L 142 10L 178 20.0004L 142 30.2904ZM 46 30.29L 94 44M 10 20L 10 56M 142 30.2904L 94 44M 178 20.0004L 178 56M 94 44L 94 56M 10 56L 10 116M 94 56L 94 116M 178 56L 178 116M 94 152L 94 116M 94 152L 10 128L 10 116M 94 152L 178 128.001L 178 116.001"></path></g></g></g><g id="g-root-ic_2_detpa6gzqdqa-stroke" data-item-order="-2304" transform="translate(266, 980)"></g><g id="g-root-ic_pen_v63mm6gzqdca-stroke" data-item-order="-2304" transform="translate(266, 356.0000305175781)"></g><g id="g-root-ic_crea_1q6yn26gz82yu-stroke" data-item-order="-2304" transform="translate(266, 200.00003051757812)"></g><g id="g-root-ic_empl_1cy07cugzjax2-stroke" data-item-order="-2304" transform="translate(266, 512)"></g><g id="g-root-ic_comp_dcbsxqgzm58q-stroke" data-item-order="-2304" transform="translate(266, 668)"></g><g id="g-root-ic_box_1hgbltqgznime-stroke" data-item-order="-2304" transform="translate(266, 824)"></g><g id="g-root-tx_5_1um5uf2gzqbk7-stroke" data-item-order="0" transform="translate(176, 830)"></g><g id="g-root-tx_6_qwj1oegzdq17-stroke" data-item-order="0" transform="translate(170, 986)"></g><g id="g-root-tx_4_1qa36tagznitf-stroke" data-item-order="0" transform="translate(170, 674)"></g><g id="g-root-tx_2_13z8toegzjbb7-stroke" data-item-order="0" transform="translate(170, 362.0000305175781)"></g><g id="g-root-tx_1_94mdrygzoykv-stroke" data-item-order="0" transform="translate(176, 206.00003051757812)"></g><g id="g-root-tx_3_1ut12dagzkrnz-stroke" data-item-order="0" transform="translate(170, 518)"></g></g></g><path id="wdetpamf1oydk" d="M65.283 12.757a.35.35 0 0 0 .584.157l5.203-5.141-6.183 3.523.396 1.461zm-2.216-11.7a.35.35 0 0 0-.522.305v3.111l3.276-1.868-2.754-1.548zm3.728 2.105l-4.25 2.421v2.445l6.391-3.644-2.141-1.222zm4.708 3.303a.35.35 0 0 0 0-.609l-1.592-.9-7.365 4.199v1.782a.35.35 0 0 0 .523.305l8.435-4.777z M44.542 2.513c0-.433.355-.783.792-.783s.792.35.792.783-.355.783-.792.783-.792-.35-.792-.783zm59.171 0c0-.433.355-.783.792-.783s.792.35.792.783-.355.783-.792.783-.792-.35-.792-.783zm-85.951 7.636h-1.27v-.487c-.276.201-.864.609-1.881.609-1.202 0-2.274-.794-2.137-2.078.118-1.106 1.153-1.584 1.848-1.727l2.17-.345c0-.539-.29-.956-1.064-1.006s-1.21.305-1.571 1.017l-1.124-.605c1.218-2.631 5.029-1.764 5.029.414v4.207zm-1.27-2.86c.006.396-.062 1.112-.819 1.59-.587.37-1.841.299-1.903-.395-.049-.555.461-.791.906-.898l1.816-.297zm72.662 2.86h-1.27v-.487c-.276.201-.864.609-1.881.609-1.202 0-2.274-.794-2.137-2.078.118-1.106 1.153-1.584 1.848-1.727l2.17-.345c0-.539-.29-.956-1.064-1.006s-1.21.305-1.571 1.017l-1.124-.605c1.218-2.631 5.029-1.764 5.029.414v4.207zm-1.27-2.86c.006.396-.062 1.112-.82 1.59-.587.37-1.841.299-1.903-.395-.049-.555.461-.791.906-.898l1.816-.297zM99.096 10.149H97.85v-8.45h1.246v4.895l2.68-2.559h1.738l-2.633 2.535 2.715 3.578h-1.556l-2.077-2.707-.867.844v1.863zm6.053-6.114h-1.255v6.113h1.255V4.035zm-59.2 0h-1.255v6.113h1.255V4.035zm5.584 6.113V1.697h1.255v2.695c.361-.346 1-.485 1.47-.485 1.452 0 2.477 1.082 2.457 2.448v3.792h-1.27v-3.68c0-.408-.214-1.339-1.315-1.339-.968 0-1.342.756-1.342 1.339v3.681h-1.255zm-4.76-4.894V4.039h.621a.45.45 0 0 0 .45-.45v-.855h1.251v1.305h1.309v1.215h-1.309v3.109c0 .293.105.664.648.664.365 0 .531-.035.736-.07v1.137s-.361.113-.857.113c-1.398 0-1.777-1.051-1.777-1.788V5.254h-1.071zM36.528 4.039h-1.394l2.191 6.106h1.125l1.234-3.918 1.238 3.918h1.129l2.188-6.106h-1.383l-1.359 3.93-1.256-3.93h-1.124l-1.242 3.957-1.348-3.957zM26.212 7.141c-.02 1.566 1.187 3.129 3.223 3.129 1.566 0 2.383-.918 2.734-1.719L31.172 8c-.315.399-.801 1.094-1.738 1.094-1.145 0-1.825-.781-1.891-1.52h4.625c.074-.284.148-.995-.03-1.559-.336-1.064-1.221-2.102-2.839-2.102s-3.088 1.152-3.088 3.227zm1.363-.75h3.348c-.055-.43-.566-1.301-1.623-1.301a1.79 1.79 0 0 0-1.725 1.301zm-8.758.75c.038 1.758 1.277 3.133 3.145 3.133 1.074 0 1.723-.477 1.961-.672v.547h1.242V1.703h-1.258v2.888c-.414-.36-1.062-.68-1.93-.68-1.91 0-3.198 1.473-3.16 3.23zm1.309-.08c0 1.119.723 1.978 1.836 1.978a1.88 1.88 0 0 0 1.94-1.904c0-1.371-1.011-1.99-1.972-1.99s-1.805.798-1.805 1.916zm76.683-.028C96.771 5.275 95.532 3.9 93.664 3.9c-1.074 0-1.723.477-1.961.672v-.547h-1.242v8.22h1.258V9.583c.414.36 1.063.68 1.93.68 1.91 0 3.198-1.473 3.16-3.23zm-1.309.08c0-1.119-.723-1.978-1.836-1.978a1.88 1.88 0 0 0-1.94 1.904c0 1.371 1.011 1.99 1.972 1.99S95.5 8.231 95.5 7.113zM106.441 10.173V4.036h1.254v.382c.361-.346 1-.485 1.47-.485 1.452 0 2.477 1.082 2.457 2.448v3.792h-1.27V6.492c0-.408-.214-1.339-1.315-1.339-.969 0-1.342.756-1.342 1.339v3.681h-1.254zm-30.383-.021V1.824h1.084l4.215 5.777V1.824h1.32v8.328h-1.094l-4.207-5.796v5.796h-1.319zM5.24 10.149H4V2.377h1.014l2.664 3.597 2.654-3.592h1.03v7.766h-1.256V4.762L7.678 8.068 5.24 4.742v5.407z" transform="translate(740, 1214)" fill="#80808088" stroke="none"></path></svg>