<?xml version="1.0" encoding="utf-8" standalone="yes"?>
<!DOCTYPE svg PUBLIC "-//W3C//DTD SVG 1.1//EN" "http://www.w3.org/Graphics/SVG/1.1/DTD/svg11.dtd">
<svg width="1128" height="600" viewBox="0 0 1128 600" style="fill:none;stroke:none;fill-rule:evenodd;clip-rule:evenodd;stroke-linecap:round;stroke-linejoin:round;stroke-miterlimit:1.5;" version="1.1" xmlns="http://www.w3.org/2000/svg" xmlns:xlink="http://www.w3.org/1999/xlink"><style class="text-font-style fontImports" data-font-family="Roboto">@import url('https://fonts.googleapis.com/css2?family=Roboto:wght@400;700&amp;display=block');</style><g id="items" style="isolation: isolate"><g id="blend" style="mix-blend-mode: normal"><g id="g-root-cp_6_g-6_1lrskn81iq4avh-fill" data-item-order="-492470" transform="translate(875, 110)"><g id="cp_6_g-6_1lrskn81iq4avh-fill" stroke="none" fill="#fff2e5"><g><path d="M 136.5037 52C 138.1093 48.3252 139 44.2666 139 40C 139 35.7334 138.1093 31.6748 136.5037 28L 157 28L 157 27C 157 25.8954 157.8954 25 159 25L 163 25L 163 55L 159 55C 157.8954 55 157 54.1046 157 53L 157 52L 136.5037 52ZM 81.4963 52L 61 52L 61 53C 61 54.1046 60.1046 55 59 55L 55 55L 55 25L 59 25C 60.1046 25 61 25.8954 61 27L 61 28L 81.4963 28C 79.8907 31.6748 79 35.7334 79 40C 79 44.2666 79.8907 48.3252 81.4963 52ZM 157 28L 157 52M 61 52L 61 28"></path></g></g><g id="cp_6_g-6_1lrskn81iq4avh-fill" stroke="none" fill="#fff2e5"><g><path d="M 10 130L 10 126C 10 124.8954 10.8954 124 12 124L 13 124L 13 76L 12 76C 10.8954 76 10 75.1046 10 74L 10 70L 40 70L 40 74C 40 75.1046 39.1046 76 38 76L 37 76L 37 124L 38 124C 39.1046 124 40 124.8954 40 126L 40 130L 10 130ZM 13 124L 37 124M 13 76L 37 76"></path></g></g><g id="cp_6_g-6_1lrskn81iq4avh-fill" stroke="none" fill="#fff2e5"><g><path d="M 13 52C 13 38.7452 23.7452 28 37 28L 49 28L 49 27C 49 25.8954 49.8954 25 51 25L 55 25L 55 55L 51 55C 49.8954 55 49 54.1046 49 53L 49 52L 41 52C 38.7909 52 37 53.7909 37 56L 37 64L 38 64C 39.1046 64 40 64.8954 40 66L 40 70L 10 70L 10 66C 10 64.8954 10.8954 64 12 64L 13 64L 13 52ZM 49 28L 49 52M 37 64L 13 64"></path></g></g><g id="cp_6_g-6_1lrskn81iq4avh-fill" stroke="none" fill="#fff2e5"><g><path d="M 139 40C 139 56.5685 125.5685 70 109 70C 92.4315 70 79 56.5685 79 40C 79 23.4315 92.4315 10 109 10C 125.5685 10 139 23.4315 139 40Z"></path></g></g></g><g id="g-root-cp_5_g-5_de80hw1iq4d8q-fill" data-item-order="-492466" transform="translate(707, 230)"><g id="cp_5_g-5_de80hw1iq4d8q-fill" stroke="none" fill="#fffbda"><g><path d="M 136.5037 112C 138.1093 108.3252 139 104.2666 139 100C 139 95.7334 138.1093 91.6748 136.5037 88L 157 88L 157 87C 157 85.8954 157.8954 85 159 85L 163 85L 163 115L 159 115C 157.8954 115 157 114.1046 157 113L 157 112L 136.5037 112ZM 81.4963 112L 61 112L 61 113C 61 114.1046 60.1046 115 59 115L 55 115L 55 85L 59 85C 60.1046 85 61 85.8954 61 87L 61 88L 81.4963 88C 79.8907 91.6748 79 95.7334 79 100C 79 104.2666 79.8907 108.3252 81.4963 112ZM 157 88L 157 112M 61 112L 61 88"></path></g></g><g id="cp_5_g-5_de80hw1iq4d8q-fill" stroke="none" fill="#fffbda"><g><path d="M 10 70L 10 66C 10 64.8954 10.8954 64 12 64L 13 64L 13 46L 12 46C 10.8954 46 10 45.1046 10 44L 10 40L 40 40L 40 44C 40 45.1046 39.1046 46 38 46L 37 46L 37 64L 38 64C 39.1046 64 40 64.8954 40 66L 40 70L 10 70ZM 13 64L 37 64M 13 46L 37 46"></path></g></g><g id="cp_5_g-5_de80hw1iq4d8q-fill" stroke="none" fill="#fffbda"><g><path d="M 178 70L 178 66C 178 64.8954 178.8954 64 180 64L 181 64L 181 16L 180 16C 178.8954 16 178 15.1046 178 14L 178 10L 208 10L 208 14C 208 15.1046 207.1046 16 206 16L 205 16L 205 64L 206 64C 207.1046 64 208 64.8954 208 66L 208 70L 178 70ZM 181 64L 205 64M 181 16L 205 16"></path></g></g><g id="cp_5_g-5_de80hw1iq4d8q-fill" stroke="none" fill="#fffbda"><g><path d="M 13 88C 13 101.2548 23.7452 112 37 112L 49 112L 49 113C 49 114.1046 49.8954 115 51 115L 55 115L 55 85L 51 85C 49.8954 85 49 85.8954 49 87L 49 88L 41 88C 38.7909 88 37 86.2091 37 84L 37 76L 38 76C 39.1046 76 40 75.1046 40 74L 40 70L 10 70L 10.000001 74C 10.000001 75.1046 10.8954 76 12 76L 13 76L 13 88ZM 49 112L 49 88M 37 76L 13 76"></path></g></g><g id="cp_5_g-5_de80hw1iq4d8q-fill" stroke="none" fill="#fffbda"><g><path d="M 205 88C 205 101.2548 194.2548 112 181 112L 169 112L 169 113C 169 114.1046 168.1046 115 167 115L 163 115L 163 85L 167 85C 168.1046 85 169 85.8954 169 87L 169 88L 177 88C 179.2091 88 181 86.2091 181 84L 181 76L 180 76C 178.8954 76 178 75.1046 178 74L 178 70L 208 70L 208 74C 208 75.1046 207.1046 76 206 76L 205 76L 205 88ZM 169 112L 169 88M 181 76L 205 76"></path></g></g><g id="cp_5_g-5_de80hw1iq4d8q-fill" stroke="none" fill="#fffbda"><g><path d="M 139 100C 139 116.5685 125.5685 130 109 130C 92.4315 130 79 116.5685 79 100C 79 83.4315 92.4315 70 109 70C 125.5685 70 139 83.4315 139 100Z"></path></g></g></g><g id="g-root-cp_4_g-4_1hduhs41iq4ao9-fill" data-item-order="-492462" transform="translate(539, 170)"><g id="cp_4_g-4_1hduhs41iq4ao9-fill" stroke="none" fill="#f4ffdc"><g><path d="M 136.5037 52C 138.1093 48.3252 139 44.2666 139 40C 139 35.7334 138.1093 31.6748 136.5037 28L 157 28L 157 27C 157 25.8954 157.8954 25 159 25L 163 25L 163 55L 159 55C 157.8954 55 157 54.1046 157 53L 157 52L 136.5037 52ZM 81.4963 52L 61 52L 61 53C 61 54.1046 60.1046 55 59 55L 55 55L 55 25L 59 25C 60.1046 25 61 25.8954 61 27L 61 28L 81.4963 28C 79.8907 31.6748 79 35.7334 79 40C 79 44.2666 79.8907 48.3252 81.4963 52ZM 157 28L 157 52M 61 52L 61 28"></path></g></g><g id="cp_4_g-4_1hduhs41iq4ao9-fill" stroke="none" fill="#f4ffdc"><g><path d="M 178 100L 178 96C 178 94.8954 178.8954 94 180 94L 181 94L 181 76L 180 76C 178.8954 76 178 75.1046 178 74L 178 70L 208 70L 208 74C 208 75.1046 207.1046 76 206 76L 205 76L 205 94L 206 94C 207.1046 94 208 94.8954 208 96L 208 100L 178 100ZM 181 94L 205 94M 181 76L 205 76"></path></g></g><g id="cp_4_g-4_1hduhs41iq4ao9-fill" stroke="none" fill="#f4ffdc"><g><path d="M 13 52C 13 38.7452 23.7452 28 37 28L 49 28L 49 27C 49 25.8954 49.8954 25 51 25L 55 25L 55 55L 51 55C 49.8954 55 49 54.1046 49 53L 49 52L 41 52C 38.7909 52 37 53.7909 37 56L 37 64L 38 64C 39.1046 64 40 64.8954 40 66L 40 70L 10 70L 10 66C 10 64.8954 10.8954 64 12 64L 13 64L 13 52ZM 49 28L 49 52M 37 64L 13 64"></path></g></g><g id="cp_4_g-4_1hduhs41iq4ao9-fill" stroke="none" fill="#f4ffdc"><g><path d="M 205 52C 205 38.7452 194.2548 28 181 28L 169 28L 169 27C 169 25.8954 168.1046 25 167 25L 163 25L 163 55L 167 55C 168.1046 55 169 54.1046 169 53L 169 52L 177 52C 179.2091 52 181 53.7909 181 56L 181 64L 180 64C 178.8954 64 178 64.8954 178 66L 178 70L 208 70L 208 66C 208 64.8954 207.1046 64 206 64L 205 64L 205 52ZM 169 28L 169 52M 181 64L 205 64"></path></g></g><g id="cp_4_g-4_1hduhs41iq4ao9-fill" stroke="none" fill="#f4ffdc"><g><path d="M 139 40C 139 56.5685 125.5685 70 109 70C 92.4315 70 79 56.5685 79 40C 79 23.4315 92.4315 10 109 10C 125.5685 10 139 23.4315 139 40Z"></path></g></g></g><g id="g-root-cp_3_g-3_zmkhac1iq4d1j-fill" data-item-order="-492458" transform="translate(371, 200)"><g id="cp_3_g-3_zmkhac1iq4d1j-fill" stroke="none" fill="#e3fff2"><g><path d="M 136.5037 82C 138.1093 78.3252 139 74.2666 139 70C 139 65.7334 138.1093 61.6748 136.5037 58L 157 58L 157 57C 157 55.8954 157.8954 55 159 55L 163 55L 163 85L 159 85C 157.8954 85 157 84.1046 157 83L 157 82L 136.5037 82ZM 81.4963 82L 61 82L 61 83C 61 84.1046 60.1046 85 59 85L 55 85L 55 55L 59 55C 60.1046 55 61 55.8954 61 57L 61 58L 81.4963 58C 79.8907 61.6748 79 65.7334 79 70C 79 74.2666 79.8907 78.3252 81.4963 82ZM 157 58L 157 82M 61 82L 61 58"></path></g></g><g id="cp_3_g-3_zmkhac1iq4d1j-fill" stroke="none" fill="#e3fff2"><g><path d="M 10 40L 10 36C 10 34.8954 10.8954 34 12 34L 13 34L 13 16L 12 16C 10.8954 16 10 15.1046 10 14L 10 10L 40 10L 40 14C 40 15.1046 39.1046 16 38 16L 37 16L 37 34L 38 34C 39.1046 34 40 34.8954 40 36L 40 40L 10 40ZM 13 34L 37 34M 13 16L 37 16"></path></g></g><g id="cp_3_g-3_zmkhac1iq4d1j-fill" stroke="none" fill="#e3fff2"><g><path d="M 205 58C 205 71.2548 194.2548 82 181 82L 169 82L 169 83C 169 84.1046 168.1046 85 167 85L 163 85L 163 55L 167 55C 168.1046 55 169 55.8954 169 57L 169 58L 177 58C 179.2091 58 181 56.2091 181 54L 181 46L 180 46C 178.8954 46 178 45.1046 178 44L 178 40L 208 40L 208 44C 208 45.1046 207.1046 46 206 46L 205 46L 205 58ZM 169 82L 169 58M 181 46L 205 46"></path></g></g><g id="cp_3_g-3_zmkhac1iq4d1j-fill" stroke="none" fill="#e3fff2"><g><path d="M 13 58C 13 71.2548 23.7452 82 37 82L 49 82L 49 83C 49 84.1046 49.8954 85 51 85L 55 85L 55 55L 51 55C 49.8954 55 49 55.8954 49 57L 49 58L 41 58C 38.7909 58 37 56.2091 37 54L 37 46L 38 46C 39.1046 46 40 45.1046 40 44L 40 40L 10 40L 10.000001 44C 10.000001 45.1046 10.8954 46 12 46L 13 46L 13 58ZM 49 82L 49 58M 37 46L 13 46"></path></g></g><g id="cp_3_g-3_zmkhac1iq4d1j-fill" stroke="none" fill="#e3fff2"><g><path d="M 139 70C 139 86.5685 125.5685 100 109 100C 92.4315 100 79 86.5685 79 70C 79 53.4315 92.4315 40 109 40C 125.5685 40 139 53.4315 139 70Z"></path></g></g></g><g id="g-root-cp_2_g-2_4l2wlg1iq4ao5-fill" data-item-order="-492454" transform="translate(203, 110)"><g id="cp_2_g-2_4l2wlg1iq4ao5-fill" stroke="none" fill="#e8f9ff"><g><path d="M 136.5037 52C 138.1093 48.3252 139 44.2666 139 40C 139 35.7334 138.1093 31.6748 136.5037 28L 157 28L 157 27C 157 25.8954 157.8954 25 159 25L 163 25L 163 55L 159 55C 157.8954 55 157 54.1046 157 53L 157 52L 136.5037 52ZM 81.4963 52L 61 52L 61 53C 61 54.1046 60.1046 55 59 55L 55 55L 55 25L 59 25C 60.1046 25 61 25.8954 61 27L 61 28L 81.4963 28C 79.8907 31.6748 79 35.7334 79 40C 79 44.2666 79.8907 48.3252 81.4963 52ZM 157 28L 157 52M 61 52L 61 28"></path></g></g><g id="cp_2_g-2_4l2wlg1iq4ao5-fill" stroke="none" fill="#e8f9ff"><g><path d="M 178 100L 178 96C 178 94.8954 178.8954 94 180 94L 181 94L 181 76L 180 76C 178.8954 76 178 75.1046 178 74L 178 70L 208 70L 208 74C 208 75.1046 207.1046 76 206 76L 205 76L 205 94L 206 94C 207.1046 94 208 94.8954 208 96L 208 100L 178 100ZM 181 94L 205 94M 181 76L 205 76"></path></g></g><g id="cp_2_g-2_4l2wlg1iq4ao5-fill" stroke="none" fill="#e8f9ff"><g><path d="M 10 130L 10 126C 10 124.8954 10.8954 124 12 124L 13 124L 13 76L 12 76C 10.8954 76 10 75.1046 10 74L 10 70L 40 70L 40 74C 40 75.1046 39.1046 76 38 76L 37 76L 37 124L 38 124C 39.1046 124 40 124.8954 40 126L 40 130L 10 130ZM 13 124L 37 124M 13 76L 37 76"></path></g></g><g id="cp_2_g-2_4l2wlg1iq4ao5-fill" stroke="none" fill="#e8f9ff"><g><path d="M 205 52C 205 38.7452 194.2548 28 181 28L 169 28L 169 27C 169 25.8954 168.1046 25 167 25L 163 25L 163 55L 167 55C 168.1046 55 169 54.1046 169 53L 169 52L 177 52C 179.2091 52 181 53.7909 181 56L 181 64L 180 64C 178.8954 64 178 64.8954 178 66L 178 70L 208 70L 208 66C 208 64.8954 207.1046 64 206 64L 205 64L 205 52ZM 169 28L 169 52M 181 64L 205 64"></path></g></g><g id="cp_2_g-2_4l2wlg1iq4ao5-fill" stroke="none" fill="#e8f9ff"><g><path d="M 13 52C 13 38.7452 23.7452 28 37 28L 49 28L 49 27C 49 25.8954 49.8954 25 51 25L 55 25L 55 55L 51 55C 49.8954 55 49 54.1046 49 53L 49 52L 41 52C 38.7909 52 37 53.7909 37 56L 37 64L 38 64C 39.1046 64 40 64.8954 40 66L 40 70L 10 70L 10 66C 10 64.8954 10.8954 64 12 64L 13 64L 13 52ZM 49 28L 49 52M 37 64L 13 64"></path></g></g><g id="cp_2_g-2_4l2wlg1iq4ao5-fill" stroke="none" fill="#e8f9ff"><g><path d="M 139 40C 139 56.5685 125.5685 70 109 70C 92.4315 70 79 56.5685 79 40C 79 23.4315 92.4315 10 109 10C 125.5685 10 139 23.4315 139 40Z"></path></g></g></g><g id="g-root-cp_1_g-1_mdlv9g1iq4ah8-fill" data-item-order="-492450" transform="translate(80, 230)"><g id="cp_1_g-1_mdlv9g1iq4ah8-fill" stroke="none" fill="#edf4ff"><g><path d="M 133 69.999999L 133 65.999999C 133 64.895399 133.8954 63.999999 135 63.999999L 136 63.999999L 136 15.999999L 135 15.999999C 133.8954 15.999999 133 15.104599 133 13.999999L 133 9.999999L 163 9.999999L 163 13.999999C 163 15.104599 162.1046 15.999999 161 15.999999L 160 15.999999L 160 63.999999L 161 63.999999C 162.1046 63.999999 163 64.895399 163 65.999999L 163 69.999999L 133 69.999999ZM 136 63.999999L 160 63.999999M 136 15.999999L 160 15.999999"></path></g></g><g id="cp_1_g-1_mdlv9g1iq4ah8-fill" stroke="none" fill="#edf4ff"><g><path d="M 91.5037 112C 93.1093 108.3252 94 104.2666 94 100C 94 95.7334 93.1093 91.6748 91.5037 88L 112 88L 112 87C 112 85.8954 112.8954 85 114 85L 118 85L 118 115L 114 115C 112.8954 115 112 114.1046 112 113L 112 112L 91.5037 112ZM 36.4963 112L 16 112L 16 113C 16 114.1046 15.1046 115 14 115L 10 115L 10 85L 14 85C 15.1046 85 16 85.8954 16 87L 16 88L 36.4963 88C 34.8907 91.6748 34 95.7334 34 100C 34 104.2666 34.8907 108.3252 36.4963 112ZM 112 88L 112 112M 16 112L 16 88"></path></g></g><g id="cp_1_g-1_mdlv9g1iq4ah8-fill" stroke="none" fill="#edf4ff"><g><path d="M 160 88.000004C 160 101.254804 149.2548 112.000004 136 112.000004L 124 112.000004L 124 113.000004C 124 114.104604 123.1046 115.000004 122 115.000004L 118 115.000004L 118 85.000004L 122 85.000004C 123.1046 85.000004 124 85.895404 124 87.000004L 124 88.000004L 132 88.000004C 134.2091 88.000004 136 86.209104 136 84.000004L 136 76.000004L 135 76.000004C 133.8954 76.000004 133 75.104604 133 74.000004L 133 70.000004L 163 70.000004L 163 74.000004C 163 75.104604 162.1046 76.000004 161 76.000004L 160 76.000004L 160 88.000004ZM 124 112.000004L 124 88.000004M 136 76.000004L 160 76.000004"></path></g></g><g id="cp_1_g-1_mdlv9g1iq4ah8-fill" stroke="none" fill="#edf4ff"><g><path d="M 94 100C 94 116.5685 80.5685 130 64 130C 47.4315 130 34 116.5685 34 100C 34 83.4315 47.4315 70 64 70C 80.5685 70 94 83.4315 94 100Z"></path></g></g></g><g id="g-root-ic_appr_1lw5w901iq75s4-fill" data-item-order="0" transform="translate(620, 182)"></g><g id="g-root-ic_arch_hz1bb81iq4dfm-fill" data-item-order="0" transform="translate(956, 122)"></g><g id="g-root-ic_code_1hjgrk41iq8kcl-fill" data-item-order="0" transform="translate(452, 242)"></g><g id="g-root-ic_1_zk2o3o1ipovta-fill" data-item-order="0" transform="translate(284, 122)"></g><g id="g-root-ic_8_m8m5qc1ipqarz-fill" data-item-order="0" transform="translate(116, 302)"></g><g id="g-root-ic_box_m9v0qs1iq740b-fill" data-item-order="0" transform="translate(788, 302)"></g><g id="g-root-ic_48px_1uqk1hg1iprp4y-fill" data-item-order="0" transform="translate(116, 362)"></g><g id="g-root-ic_48px_1qbzhj81ipt4p9-fill" data-item-order="0" transform="translate(284, 362)"></g><g id="g-root-ic_48px_vbqv0k1ipuhvk-fill" data-item-order="0" transform="translate(452, 362)"></g><g id="g-root-ic_48px_1hjgupw1ipvxfv-fill" data-item-order="0" transform="translate(620, 362)"></g><g id="g-root-ic_48px_w6101ipype6-fill" data-item-order="0" transform="translate(788, 362)"></g><g id="g-root-ic_48px_1lsf4w41iq0361-fill" data-item-order="0" transform="translate(956.5, 362)"></g><g id="g-root-tx_planific_4j7khw1iprpj4-fill" data-item-order="0" transform="translate(74, 410)"><g id="tx_planific_4j7khw1iprpj4-fill" stroke="none" fill="#4e88e7"><g><text style="font: bold 20px Roboto, sans-serif; white-space: pre;" font-weight="bold" font-size="20px" font-family="Roboto, sans-serif"><tspan x="13.36" y="34" dominant-baseline="ideographic">Planification</tspan></text></g></g></g><g id="g-root-tx_concepti_90a0sk1ipt4ar-fill" data-item-order="0" transform="translate(248, 410)"><g id="tx_concepti_90a0sk1ipt4ar-fill" stroke="none" fill="#1eabda"><g><text style="font: bold 20px Roboto, sans-serif; white-space: pre;" font-weight="bold" font-size="20px" font-family="Roboto, sans-serif"><tspan x="12.69" y="34" dominant-baseline="ideographic">Conception</tspan></text></g></g></g><g id="g-root-tx_dfinirle_142e2kk1iprq4p-fill" data-item-order="0" transform="translate(128, 446)"><g id="tx_dfinirle_142e2kk1iprq4p-fill" stroke="none" fill="#484848"><g><text style="font: 15px Roboto, sans-serif; white-space: pre;" font-size="15px" font-family="Roboto, sans-serif"><tspan x="13.54" y="31" dominant-baseline="ideographic">t</tspan></text></g></g></g><g id="g-root-tx_test_7rdz81ipvx1d-fill" data-item-order="0" transform="translate(614, 410)"><g id="tx_test_7rdz81ipvx1d-fill" stroke="none" fill="#92bd39"><g><text style="font: bold 20px Roboto, sans-serif; white-space: pre;" font-weight="bold" font-size="20px" font-family="Roboto, sans-serif"><tspan x="14.33" y="34" dominant-baseline="ideographic">Test</tspan></text></g></g></g><g id="g-root-tx_dploieme_1hjgupw1ipxato-fill" data-item-order="0" transform="translate(746, 410)"><g id="tx_dploieme_1hjgupw1ipxato-fill" stroke="none" fill="#e0cb15"><g><text style="font: bold 20px Roboto, sans-serif; white-space: pre;" font-weight="bold" font-size="20px" font-family="Roboto, sans-serif"><tspan x="13.09" y="34" dominant-baseline="ideographic">Déploiement</tspan></text></g></g></g><g id="g-root-tx_maintena_1um6pvo1iq03d3-fill" data-item-order="0" transform="translate(908, 410)"><g id="tx_maintena_1um6pvo1iq03d3-fill" stroke="none" fill="#de8431"><g><text style="font: bold 20px Roboto, sans-serif; white-space: pre;" font-weight="bold" font-size="20px" font-family="Roboto, sans-serif"><tspan x="17.68" y="34" dominant-baseline="ideographic">Maintenance</tspan></text></g></g></g><g id="g-root-tx_dveloppe_18lby4k1ipuhae-fill" data-item-order="0" transform="translate(398, 410)"><g id="tx_dveloppe_18lby4k1ipuhae-fill" stroke="none" fill="#3cc583"><g><text style="font: bold 20px Roboto, sans-serif; white-space: pre;" font-weight="bold" font-size="20px" font-family="Roboto, sans-serif"><tspan x="11.77" y="34" dominant-baseline="ideographic">Développement</tspan></text></g></g></g><g id="g-root-cp_6_g-6_1lrskn81iq4avh-stroke" data-item-order="-492470" transform="translate(875, 110)"><g id="cp_6_g-6_1lrskn81iq4avh-stroke" fill="none" stroke-linecap="round" stroke-linejoin="round" stroke-miterlimit="4" stroke="#de8431" stroke-width="2"><g><path d="M 136.5037 52C 138.1093 48.3252 139 44.2666 139 40C 139 35.7334 138.1093 31.6748 136.5037 28L 157 28L 157 27C 157 25.8954 157.8954 25 159 25L 163 25L 163 55L 159 55C 157.8954 55 157 54.1046 157 53L 157 52L 136.5037 52ZM 81.4963 52L 61 52L 61 53C 61 54.1046 60.1046 55 59 55L 55 55L 55 25L 59 25C 60.1046 25 61 25.8954 61 27L 61 28L 81.4963 28C 79.8907 31.6748 79 35.7334 79 40C 79 44.2666 79.8907 48.3252 81.4963 52ZM 157 28L 157 52M 61 52L 61 28"></path></g></g><g id="cp_6_g-6_1lrskn81iq4avh-stroke" fill="none" stroke-linecap="round" stroke-linejoin="round" stroke-miterlimit="4" stroke="#de8431" stroke-width="2"><g><path d="M 10 130L 10 126C 10 124.8954 10.8954 124 12 124L 13 124L 13 76L 12 76C 10.8954 76 10 75.1046 10 74L 10 70L 40 70L 40 74C 40 75.1046 39.1046 76 38 76L 37 76L 37 124L 38 124C 39.1046 124 40 124.8954 40 126L 40 130L 10 130ZM 13 124L 37 124M 13 76L 37 76"></path></g></g><g id="cp_6_g-6_1lrskn81iq4avh-stroke" fill="none" stroke-linecap="round" stroke-linejoin="round" stroke-miterlimit="4" stroke="#de8431" stroke-width="2"><g><path d="M 13 52C 13 38.7452 23.7452 28 37 28L 49 28L 49 27C 49 25.8954 49.8954 25 51 25L 55 25L 55 55L 51 55C 49.8954 55 49 54.1046 49 53L 49 52L 41 52C 38.7909 52 37 53.7909 37 56L 37 64L 38 64C 39.1046 64 40 64.8954 40 66L 40 70L 10 70L 10 66C 10 64.8954 10.8954 64 12 64L 13 64L 13 52ZM 49 28L 49 52M 37 64L 13 64"></path></g></g><g id="cp_6_g-6_1lrskn81iq4avh-stroke" fill="none" stroke-linecap="round" stroke-linejoin="round" stroke-miterlimit="4" stroke="#de8431" stroke-width="2"><g><path d="M 139 40C 139 56.5685 125.5685 70 109 70C 92.4315 70 79 56.5685 79 40C 79 23.4315 92.4315 10 109 10C 125.5685 10 139 23.4315 139 40Z"></path></g></g></g><g id="g-root-cp_5_g-5_de80hw1iq4d8q-stroke" data-item-order="-492466" transform="translate(707, 230)"><g id="cp_5_g-5_de80hw1iq4d8q-stroke" fill="none" stroke-linecap="round" stroke-linejoin="round" stroke-miterlimit="4" stroke="#e0cb15" stroke-width="2"><g><path d="M 136.5037 112C 138.1093 108.3252 139 104.2666 139 100C 139 95.7334 138.1093 91.6748 136.5037 88L 157 88L 157 87C 157 85.8954 157.8954 85 159 85L 163 85L 163 115L 159 115C 157.8954 115 157 114.1046 157 113L 157 112L 136.5037 112ZM 81.4963 112L 61 112L 61 113C 61 114.1046 60.1046 115 59 115L 55 115L 55 85L 59 85C 60.1046 85 61 85.8954 61 87L 61 88L 81.4963 88C 79.8907 91.6748 79 95.7334 79 100C 79 104.2666 79.8907 108.3252 81.4963 112ZM 157 88L 157 112M 61 112L 61 88"></path></g></g><g id="cp_5_g-5_de80hw1iq4d8q-stroke" fill="none" stroke-linecap="round" stroke-linejoin="round" stroke-miterlimit="4" stroke="#e0cb15" stroke-width="2"><g><path d="M 10 70L 10 66C 10 64.8954 10.8954 64 12 64L 13 64L 13 46L 12 46C 10.8954 46 10 45.1046 10 44L 10 40L 40 40L 40 44C 40 45.1046 39.1046 46 38 46L 37 46L 37 64L 38 64C 39.1046 64 40 64.8954 40 66L 40 70L 10 70ZM 13 64L 37 64M 13 46L 37 46"></path></g></g><g id="cp_5_g-5_de80hw1iq4d8q-stroke" fill="none" stroke-linecap="round" stroke-linejoin="round" stroke-miterlimit="4" stroke="#e0cb15" stroke-width="2"><g><path d="M 178 70L 178 66C 178 64.8954 178.8954 64 180 64L 181 64L 181 16L 180 16C 178.8954 16 178 15.1046 178 14L 178 10L 208 10L 208 14C 208 15.1046 207.1046 16 206 16L 205 16L 205 64L 206 64C 207.1046 64 208 64.8954 208 66L 208 70L 178 70ZM 181 64L 205 64M 181 16L 205 16"></path></g></g><g id="cp_5_g-5_de80hw1iq4d8q-stroke" fill="none" stroke-linecap="round" stroke-linejoin="round" stroke-miterlimit="4" stroke="#e0cb15" stroke-width="2"><g><path d="M 13 88C 13 101.2548 23.7452 112 37 112L 49 112L 49 113C 49 114.1046 49.8954 115 51 115L 55 115L 55 85L 51 85C 49.8954 85 49 85.8954 49 87L 49 88L 41 88C 38.7909 88 37 86.2091 37 84L 37 76L 38 76C 39.1046 76 40 75.1046 40 74L 40 70L 10 70L 10.000001 74C 10.000001 75.1046 10.8954 76 12 76L 13 76L 13 88ZM 49 112L 49 88M 37 76L 13 76"></path></g></g><g id="cp_5_g-5_de80hw1iq4d8q-stroke" fill="none" stroke-linecap="round" stroke-linejoin="round" stroke-miterlimit="4" stroke="#e0cb15" stroke-width="2"><g><path d="M 205 88C 205 101.2548 194.2548 112 181 112L 169 112L 169 113C 169 114.1046 168.1046 115 167 115L 163 115L 163 85L 167 85C 168.1046 85 169 85.8954 169 87L 169 88L 177 88C 179.2091 88 181 86.2091 181 84L 181 76L 180 76C 178.8954 76 178 75.1046 178 74L 178 70L 208 70L 208 74C 208 75.1046 207.1046 76 206 76L 205 76L 205 88ZM 169 112L 169 88M 181 76L 205 76"></path></g></g><g id="cp_5_g-5_de80hw1iq4d8q-stroke" fill="none" stroke-linecap="round" stroke-linejoin="round" stroke-miterlimit="4" stroke="#e0cb15" stroke-width="2"><g><path d="M 139 100C 139 116.5685 125.5685 130 109 130C 92.4315 130 79 116.5685 79 100C 79 83.4315 92.4315 70 109 70C 125.5685 70 139 83.4315 139 100Z"></path></g></g></g><g id="g-root-cp_4_g-4_1hduhs41iq4ao9-stroke" data-item-order="-492462" transform="translate(539, 170)"><g id="cp_4_g-4_1hduhs41iq4ao9-stroke" fill="none" stroke-linecap="round" stroke-linejoin="round" stroke-miterlimit="4" stroke="#92bd39" stroke-width="2"><g><path d="M 136.5037 52C 138.1093 48.3252 139 44.2666 139 40C 139 35.7334 138.1093 31.6748 136.5037 28L 157 28L 157 27C 157 25.8954 157.8954 25 159 25L 163 25L 163 55L 159 55C 157.8954 55 157 54.1046 157 53L 157 52L 136.5037 52ZM 81.4963 52L 61 52L 61 53C 61 54.1046 60.1046 55 59 55L 55 55L 55 25L 59 25C 60.1046 25 61 25.8954 61 27L 61 28L 81.4963 28C 79.8907 31.6748 79 35.7334 79 40C 79 44.2666 79.8907 48.3252 81.4963 52ZM 157 28L 157 52M 61 52L 61 28"></path></g></g><g id="cp_4_g-4_1hduhs41iq4ao9-stroke" fill="none" stroke-linecap="round" stroke-linejoin="round" stroke-miterlimit="4" stroke="#92bd39" stroke-width="2"><g><path d="M 178 100L 178 96C 178 94.8954 178.8954 94 180 94L 181 94L 181 76L 180 76C 178.8954 76 178 75.1046 178 74L 178 70L 208 70L 208 74C 208 75.1046 207.1046 76 206 76L 205 76L 205 94L 206 94C 207.1046 94 208 94.8954 208 96L 208 100L 178 100ZM 181 94L 205 94M 181 76L 205 76"></path></g></g><g id="cp_4_g-4_1hduhs41iq4ao9-stroke" fill="none" stroke-linecap="round" stroke-linejoin="round" stroke-miterlimit="4" stroke="#92bd39" stroke-width="2"><g><path d="M 13 52C 13 38.7452 23.7452 28 37 28L 49 28L 49 27C 49 25.8954 49.8954 25 51 25L 55 25L 55 55L 51 55C 49.8954 55 49 54.1046 49 53L 49 52L 41 52C 38.7909 52 37 53.7909 37 56L 37 64L 38 64C 39.1046 64 40 64.8954 40 66L 40 70L 10 70L 10 66C 10 64.8954 10.8954 64 12 64L 13 64L 13 52ZM 49 28L 49 52M 37 64L 13 64"></path></g></g><g id="cp_4_g-4_1hduhs41iq4ao9-stroke" fill="none" stroke-linecap="round" stroke-linejoin="round" stroke-miterlimit="4" stroke="#92bd39" stroke-width="2"><g><path d="M 205 52C 205 38.7452 194.2548 28 181 28L 169 28L 169 27C 169 25.8954 168.1046 25 167 25L 163 25L 163 55L 167 55C 168.1046 55 169 54.1046 169 53L 169 52L 177 52C 179.2091 52 181 53.7909 181 56L 181 64L 180 64C 178.8954 64 178 64.8954 178 66L 178 70L 208 70L 208 66C 208 64.8954 207.1046 64 206 64L 205 64L 205 52ZM 169 28L 169 52M 181 64L 205 64"></path></g></g><g id="cp_4_g-4_1hduhs41iq4ao9-stroke" fill="none" stroke-linecap="round" stroke-linejoin="round" stroke-miterlimit="4" stroke="#92bd39" stroke-width="2"><g><path d="M 139 40C 139 56.5685 125.5685 70 109 70C 92.4315 70 79 56.5685 79 40C 79 23.4315 92.4315 10 109 10C 125.5685 10 139 23.4315 139 40Z"></path></g></g></g><g id="g-root-cp_3_g-3_zmkhac1iq4d1j-stroke" data-item-order="-492458" transform="translate(371, 200)"><g id="cp_3_g-3_zmkhac1iq4d1j-stroke" fill="none" stroke-linecap="round" stroke-linejoin="round" stroke-miterlimit="4" stroke="#3cc583" stroke-width="2"><g><path d="M 136.5037 82C 138.1093 78.3252 139 74.2666 139 70C 139 65.7334 138.1093 61.6748 136.5037 58L 157 58L 157 57C 157 55.8954 157.8954 55 159 55L 163 55L 163 85L 159 85C 157.8954 85 157 84.1046 157 83L 157 82L 136.5037 82ZM 81.4963 82L 61 82L 61 83C 61 84.1046 60.1046 85 59 85L 55 85L 55 55L 59 55C 60.1046 55 61 55.8954 61 57L 61 58L 81.4963 58C 79.8907 61.6748 79 65.7334 79 70C 79 74.2666 79.8907 78.3252 81.4963 82ZM 157 58L 157 82M 61 82L 61 58"></path></g></g><g id="cp_3_g-3_zmkhac1iq4d1j-stroke" fill="none" stroke-linecap="round" stroke-linejoin="round" stroke-miterlimit="4" stroke="#3cc583" stroke-width="2"><g><path d="M 10 40L 10 36C 10 34.8954 10.8954 34 12 34L 13 34L 13 16L 12 16C 10.8954 16 10 15.1046 10 14L 10 10L 40 10L 40 14C 40 15.1046 39.1046 16 38 16L 37 16L 37 34L 38 34C 39.1046 34 40 34.8954 40 36L 40 40L 10 40ZM 13 34L 37 34M 13 16L 37 16"></path></g></g><g id="cp_3_g-3_zmkhac1iq4d1j-stroke" fill="none" stroke-linecap="round" stroke-linejoin="round" stroke-miterlimit="4" stroke="#3cc583" stroke-width="2"><g><path d="M 205 58C 205 71.2548 194.2548 82 181 82L 169 82L 169 83C 169 84.1046 168.1046 85 167 85L 163 85L 163 55L 167 55C 168.1046 55 169 55.8954 169 57L 169 58L 177 58C 179.2091 58 181 56.2091 181 54L 181 46L 180 46C 178.8954 46 178 45.1046 178 44L 178 40L 208 40L 208 44C 208 45.1046 207.1046 46 206 46L 205 46L 205 58ZM 169 82L 169 58M 181 46L 205 46"></path></g></g><g id="cp_3_g-3_zmkhac1iq4d1j-stroke" fill="none" stroke-linecap="round" stroke-linejoin="round" stroke-miterlimit="4" stroke="#3cc583" stroke-width="2"><g><path d="M 13 58C 13 71.2548 23.7452 82 37 82L 49 82L 49 83C 49 84.1046 49.8954 85 51 85L 55 85L 55 55L 51 55C 49.8954 55 49 55.8954 49 57L 49 58L 41 58C 38.7909 58 37 56.2091 37 54L 37 46L 38 46C 39.1046 46 40 45.1046 40 44L 40 40L 10 40L 10.000001 44C 10.000001 45.1046 10.8954 46 12 46L 13 46L 13 58ZM 49 82L 49 58M 37 46L 13 46"></path></g></g><g id="cp_3_g-3_zmkhac1iq4d1j-stroke" fill="none" stroke-linecap="round" stroke-linejoin="round" stroke-miterlimit="4" stroke="#3cc583" stroke-width="2"><g><path d="M 139 70C 139 86.5685 125.5685 100 109 100C 92.4315 100 79 86.5685 79 70C 79 53.4315 92.4315 40 109 40C 125.5685 40 139 53.4315 139 70Z"></path></g></g></g><g id="g-root-cp_2_g-2_4l2wlg1iq4ao5-stroke" data-item-order="-492454" transform="translate(203, 110)"><g id="cp_2_g-2_4l2wlg1iq4ao5-stroke" fill="none" stroke-linecap="round" stroke-linejoin="round" stroke-miterlimit="4" stroke="#1eabda" stroke-width="2"><g><path d="M 136.5037 52C 138.1093 48.3252 139 44.2666 139 40C 139 35.7334 138.1093 31.6748 136.5037 28L 157 28L 157 27C 157 25.8954 157.8954 25 159 25L 163 25L 163 55L 159 55C 157.8954 55 157 54.1046 157 53L 157 52L 136.5037 52ZM 81.4963 52L 61 52L 61 53C 61 54.1046 60.1046 55 59 55L 55 55L 55 25L 59 25C 60.1046 25 61 25.8954 61 27L 61 28L 81.4963 28C 79.8907 31.6748 79 35.7334 79 40C 79 44.2666 79.8907 48.3252 81.4963 52ZM 157 28L 157 52M 61 52L 61 28"></path></g></g><g id="cp_2_g-2_4l2wlg1iq4ao5-stroke" fill="none" stroke-linecap="round" stroke-linejoin="round" stroke-miterlimit="4" stroke="#1eabda" stroke-width="2"><g><path d="M 178 100L 178 96C 178 94.8954 178.8954 94 180 94L 181 94L 181 76L 180 76C 178.8954 76 178 75.1046 178 74L 178 70L 208 70L 208 74C 208 75.1046 207.1046 76 206 76L 205 76L 205 94L 206 94C 207.1046 94 208 94.8954 208 96L 208 100L 178 100ZM 181 94L 205 94M 181 76L 205 76"></path></g></g><g id="cp_2_g-2_4l2wlg1iq4ao5-stroke" fill="none" stroke-linecap="round" stroke-linejoin="round" stroke-miterlimit="4" stroke="#1eabda" stroke-width="2"><g><path d="M 10 130L 10 126C 10 124.8954 10.8954 124 12 124L 13 124L 13 76L 12 76C 10.8954 76 10 75.1046 10 74L 10 70L 40 70L 40 74C 40 75.1046 39.1046 76 38 76L 37 76L 37 124L 38 124C 39.1046 124 40 124.8954 40 126L 40 130L 10 130ZM 13 124L 37 124M 13 76L 37 76"></path></g></g><g id="cp_2_g-2_4l2wlg1iq4ao5-stroke" fill="none" stroke-linecap="round" stroke-linejoin="round" stroke-miterlimit="4" stroke="#1eabda" stroke-width="2"><g><path d="M 205 52C 205 38.7452 194.2548 28 181 28L 169 28L 169 27C 169 25.8954 168.1046 25 167 25L 163 25L 163 55L 167 55C 168.1046 55 169 54.1046 169 53L 169 52L 177 52C 179.2091 52 181 53.7909 181 56L 181 64L 180 64C 178.8954 64 178 64.8954 178 66L 178 70L 208 70L 208 66C 208 64.8954 207.1046 64 206 64L 205 64L 205 52ZM 169 28L 169 52M 181 64L 205 64"></path></g></g><g id="cp_2_g-2_4l2wlg1iq4ao5-stroke" fill="none" stroke-linecap="round" stroke-linejoin="round" stroke-miterlimit="4" stroke="#1eabda" stroke-width="2"><g><path d="M 13 52C 13 38.7452 23.7452 28 37 28L 49 28L 49 27C 49 25.8954 49.8954 25 51 25L 55 25L 55 55L 51 55C 49.8954 55 49 54.1046 49 53L 49 52L 41 52C 38.7909 52 37 53.7909 37 56L 37 64L 38 64C 39.1046 64 40 64.8954 40 66L 40 70L 10 70L 10 66C 10 64.8954 10.8954 64 12 64L 13 64L 13 52ZM 49 28L 49 52M 37 64L 13 64"></path></g></g><g id="cp_2_g-2_4l2wlg1iq4ao5-stroke" fill="none" stroke-linecap="round" stroke-linejoin="round" stroke-miterlimit="4" stroke="#1eabda" stroke-width="2"><g><path d="M 139 40C 139 56.5685 125.5685 70 109 70C 92.4315 70 79 56.5685 79 40C 79 23.4315 92.4315 10 109 10C 125.5685 10 139 23.4315 139 40Z"></path></g></g></g><g id="g-root-cp_1_g-1_mdlv9g1iq4ah8-stroke" data-item-order="-492450" transform="translate(80, 230)"><g id="cp_1_g-1_mdlv9g1iq4ah8-stroke" fill="none" stroke-linecap="round" stroke-linejoin="round" stroke-miterlimit="4" stroke="#4e88e7" stroke-width="2"><g><path d="M 133 69.999999L 133 65.999999C 133 64.895399 133.8954 63.999999 135 63.999999L 136 63.999999L 136 15.999999L 135 15.999999C 133.8954 15.999999 133 15.104599 133 13.999999L 133 9.999999L 163 9.999999L 163 13.999999C 163 15.104599 162.1046 15.999999 161 15.999999L 160 15.999999L 160 63.999999L 161 63.999999C 162.1046 63.999999 163 64.895399 163 65.999999L 163 69.999999L 133 69.999999ZM 136 63.999999L 160 63.999999M 136 15.999999L 160 15.999999"></path></g></g><g id="cp_1_g-1_mdlv9g1iq4ah8-stroke" fill="none" stroke-linecap="round" stroke-linejoin="round" stroke-miterlimit="4" stroke="#4e88e7" stroke-width="2"><g><path d="M 91.5037 112C 93.1093 108.3252 94 104.2666 94 100C 94 95.7334 93.1093 91.6748 91.5037 88L 112 88L 112 87C 112 85.8954 112.8954 85 114 85L 118 85L 118 115L 114 115C 112.8954 115 112 114.1046 112 113L 112 112L 91.5037 112ZM 36.4963 112L 16 112L 16 113C 16 114.1046 15.1046 115 14 115L 10 115L 10 85L 14 85C 15.1046 85 16 85.8954 16 87L 16 88L 36.4963 88C 34.8907 91.6748 34 95.7334 34 100C 34 104.2666 34.8907 108.3252 36.4963 112ZM 112 88L 112 112M 16 112L 16 88"></path></g></g><g id="cp_1_g-1_mdlv9g1iq4ah8-stroke" fill="none" stroke-linecap="round" stroke-linejoin="round" stroke-miterlimit="4" stroke="#4e88e7" stroke-width="2"><g><path d="M 160 88.000004C 160 101.254804 149.2548 112.000004 136 112.000004L 124 112.000004L 124 113.000004C 124 114.104604 123.1046 115.000004 122 115.000004L 118 115.000004L 118 85.000004L 122 85.000004C 123.1046 85.000004 124 85.895404 124 87.000004L 124 88.000004L 132 88.000004C 134.2091 88.000004 136 86.209104 136 84.000004L 136 76.000004L 135 76.000004C 133.8954 76.000004 133 75.104604 133 74.000004L 133 70.000004L 163 70.000004L 163 74.000004C 163 75.104604 162.1046 76.000004 161 76.000004L 160 76.000004L 160 88.000004ZM 124 112.000004L 124 88.000004M 136 76.000004L 160 76.000004"></path></g></g><g id="cp_1_g-1_mdlv9g1iq4ah8-stroke" fill="none" stroke-linecap="round" stroke-linejoin="round" stroke-miterlimit="4" stroke="#4e88e7" stroke-width="2"><g><path d="M 94 100C 94 116.5685 80.5685 130 64 130C 47.4315 130 34 116.5685 34 100C 34 83.4315 47.4315 70 64 70C 80.5685 70 94 83.4315 94 100Z"></path></g></g></g><g id="g-root-ic_appr_1lw5w901iq75s4-stroke" data-item-order="0" transform="translate(620, 182)"><g id="ic_appr_1lw5w901iq75s4-stroke" fill="none" stroke-linecap="round" stroke-linejoin="round" stroke-miterlimit="4" stroke="#92bd39" stroke-width="2"><g><path d="M 45.25 43L 43.75 40.098999L 43.75 33.25C 43.813 30.583 40.628502 28.2055 37.75 25.75M 40.0285 36.25L 36.202 32.3395C 35.737701 31.856247 35.050064 31.658823 34.400124 31.822176C 33.750183 31.985527 33.237598 32.484608 33.056957 33.129959C 32.876316 33.775307 33.055313 34.467968 33.526001 34.945L 37.75 39.25L 37.75 41.5C 37.979698 42.841866 38.49091 44.119888 39.25 45.25M 10.75 13L 12.25 15.901L 12.25 22.75C 12.187 25.417 15.3715 27.7945 18.25 30.25M 15.9715 19.75L 19.798 23.6605C 20.262299 24.143755 20.949938 24.341179 21.599878 24.177826C 22.249819 24.014473 22.762402 23.515394 22.943045 22.870045C 23.123688 22.224697 22.944689 21.532032 22.473999 21.055L 18.25 16.75L 18.25 14.5C 18.020302 13.158134 17.50909 11.880109 16.75 10.75M 18.25 22.077999L 18.25 44.5C 18.25 44.914215 18.585787 45.25 19 45.25L 35.5 45.25M 26.5 13.75L 21.25 13.75M 37.75 33.922001L 37.75 25M 29.5 33.25L 21.25 33.25M 34.75 28.75L 21.25 28.75M 28 37.75L 21.25 37.75M 40.75 16.75C 40.75 20.063709 38.063709 22.75 34.75 22.75C 31.436291 22.75 28.75 20.063709 28.75 16.75C 28.75 13.436292 31.436291 10.75 34.75 10.75M 40.75 12.25L 35.280998 17.719C 35.140297 17.860062 34.949242 17.939341 34.75 17.939341C 34.550758 17.939341 34.359703 17.860062 34.219002 17.719L 32.5 16"></path></g></g></g><g id="g-root-ic_arch_hz1bb81iq4dfm-stroke" data-item-order="0" transform="translate(956, 122)"><g id="ic_arch_hz1bb81iq4dfm-stroke" fill="none" stroke-linecap="round" stroke-linejoin="round" stroke-miterlimit="4" stroke="#de8431" stroke-width="2"><g><path d="M 22.149984 26.5C 19.299984 31.75 23.050014 37 27.849998 37C 31.599998 37 34.599998 34 34.599998 30.25C 34.599998 26.5 31.599998 23.5 27.849998 23.5L 27.27145 23.5M 10 10M 29.5 21.09985L 27.25 23.499866L 28.75 26.499849M 28 17.261364C 29.69455 17.261364 31.0681 15.887695 31.0681 14.193175C 31.0681 12.49867 29.69455 11.125 28 11.125C 26.30545 11.125 24.931795 12.49867 24.931795 14.193175C 24.931795 15.887695 26.30545 17.261364 28 17.261364ZM 14.193175 28.613501C 15.887695 28.613501 17.261364 27.239799 17.261364 25.545399C 17.261364 23.850849 15.887695 22.47718 14.193175 22.47718C 12.49867 22.47718 11.125 23.850849 11.125 25.545399C 11.125 27.239799 12.49867 28.613501 14.193175 28.613501ZM 41.8069 28.613501C 43.501301 28.613501 44.875 27.239799 44.875 25.545399C 44.875 23.850849 43.501301 22.47718 41.8069 22.47718C 40.11235 22.47718 38.738647 23.850849 38.738647 25.545399C 38.738647 27.239799 40.11235 28.613501 41.8069 28.613501ZM 18.028419 44.875C 19.722925 44.875 21.096596 43.501301 21.096596 41.806751C 21.096596 40.112202 19.722925 38.738647 18.028419 38.738647C 16.3339 38.738647 14.96023 40.112202 14.96023 41.806751C 14.96023 43.501301 16.3339 44.875 18.028419 44.875ZM 37.97155 44.875C 39.6661 44.875 41.039799 43.501301 41.039799 41.806751C 41.039799 40.112202 39.6661 38.738647 37.97155 38.738647C 36.277153 38.738647 34.90345 40.112202 34.90345 41.806751C 34.90345 43.501301 36.277153 44.875 37.97155 44.875ZM 10 10M 16.59235 23.62891L 25.573 16.058966M 10 10M 39.35545 23.707088L 30.432701 16.058966M 10 10M 14.793145 28.55665L 17.28322 38.828049M 10 10M 41.060799 28.526649L 38.570648 38.798798M 21.096565 41.8069L 34.90345 41.8069"></path></g></g></g><g id="g-root-ic_code_1hjgrk41iq8kcl-stroke" data-item-order="0" transform="translate(452, 242)"><g id="ic_code_1hjgrk41iq8kcl-stroke" fill="none" stroke-linecap="round" stroke-linejoin="round" stroke-miterlimit="4" stroke="#3cc583" stroke-width="2"><g><path d="M 23.725029 16.131266L 23.725029 12.681265C 23.725029 11.781265 24.325031 11.181259 25.224998 11.181259L 39.625 11.181259C 39.925003 11.181259 40.375 11.331259 40.525002 11.481259L 44.125 14.481265C 44.425003 14.781265 44.724998 15.231265 44.724998 15.681265L 44.724998 34.431252C 44.724998 35.331253 44.125 35.931252 43.224998 35.931252L 31.974998 35.931252M 10 10M 29.724998 17.481236L 27.474998 19.731236L 29.724998 21.981236M 10 10M 38.724998 17.481236L 40.974998 19.731236L 38.724998 21.981236M 10 10M 32.724998 22.731281L 35.724998 15.98128M 30.325001 44.818748C 28.974998 40.918747 25.224998 38.068748 20.874969 38.068748C 16.524969 38.068748 12.624969 40.918747 11.274964 44.818748M 20.725 24.568735L 20.725 20.068735M 12.47485 28.918751L 28.97485 28.918751M 14.57485 30.568748C 14.72485 33.868752 17.42485 36.568748 20.72485 36.568748C 24.17485 36.568748 26.874849 33.868752 26.874849 30.418751L 26.874849 27.71875C 26.874849 24.268736 24.17485 21.568735 20.72485 21.568735C 17.42485 21.568735 14.72485 24.268736 14.57485 27.568748L 14.57485 30.568748Z"></path></g></g></g><g id="g-root-ic_1_zk2o3o1ipovta-stroke" data-item-order="0" transform="translate(284, 122)"><g id="ic_1_zk2o3o1ipovta-stroke" fill="none" stroke-linecap="round" stroke-linejoin="round" stroke-miterlimit="4" stroke="#1eabda" stroke-width="2"><g><path d="M 24.325001 19.75L 13.825 19.75C 12.168146 19.75 10.825 21.093145 10.825 22.75L 10.825 42.25C 10.825 43.906857 12.168146 45.25 13.825 45.25L 42.324997 45.25C 43.981853 45.25 45.324997 43.906857 45.324997 42.25L 45.324997 22.75C 45.324997 21.093145 43.981853 19.75 42.324997 19.75L 39.175003 19.75M 19 25L 16.75 25C 15.921573 25 15.25 25.671572 15.25 26.5L 15.25 34C 15.25 34.828426 15.921573 35.5 16.75 35.5L 26.5 35.5C 27.328428 35.5 28 34.828426 28 34L 28 31M 28 31L 30.25 31C 31.078428 31 31.75 31.671572 31.75 32.5L 31.75 39.25C 31.75 40.078426 31.078428 40.75 30.25 40.75L 19 40.75C 18.171574 40.75 17.5 40.078426 17.5 39.25L 17.5 35.5M 40.75 27.25C 40.75 28.078428 40.078426 28.75 39.25 28.75L 37.75 28.75C 36.921574 28.75 36.25 28.078428 36.25 27.25C 36.25 26.421572 36.921574 25.75 37.75 25.75L 39.25 25.75C 40.078426 25.75 40.75 26.421572 40.75 27.25ZM 37.75 31.75L 39.25 31.75C 39.25 31.75 40.75 31.75 40.75 33.25L 40.75 39.25C 40.75 39.25 40.75 40.75 39.25 40.75L 37.75 40.75C 37.75 40.75 36.25 40.75 36.25 39.25L 36.25 33.25C 36.25 33.25 36.25 31.75 37.75 31.75M 40.09 11.41C 39.670101 10.984941 39.097488 10.745708 38.5 10.745708C 37.902515 10.745708 37.329903 10.984941 36.91 11.41L 23.275002 25L 22 29.5L 26.5 28.224998L 40.135002 14.59C 40.554176 14.164113 40.785343 13.588104 40.776886 12.990599C 40.768433 12.393092 40.521057 11.823855 40.090004 11.41Z"></path></g></g></g><g id="g-root-ic_8_m8m5qc1ipqarz-stroke" data-item-order="0" transform="translate(116, 302)"><g id="ic_8_m8m5qc1ipqarz-stroke" fill="none" stroke-linecap="round" stroke-linejoin="round" stroke-miterlimit="4" stroke="#4e88e7" stroke-width="2"><g><path d="M 11.125 11.125L 11.125 44.875L 44.875 44.875M 30.625 17.875L 17.875 17.875C 17.424999 17.875 17.125 17.575001 17.125 17.125L 17.125 14.125C 17.125 13.675 17.424999 13.375 17.875 13.375L 30.625 13.375C 31.075001 13.375 31.375 13.675 31.375 14.125L 31.375 17.125C 31.375 17.575001 31.075001 17.875 30.625 17.875ZM 44.125 27.625L 31.375 27.625C 30.924999 27.625 30.625 27.325001 30.625 26.875L 30.625 23.875C 30.625 23.424999 30.924999 23.125 31.375 23.125L 44.125 23.125C 44.574997 23.125 44.875 23.424999 44.875 23.875L 44.875 26.875C 44.875 27.325001 44.574997 27.625 44.125 27.625ZM 29.125 35.875L 16.375 35.875C 15.925 35.875 15.625 35.574997 15.625 35.125L 15.625 32.125C 15.625 31.674999 15.925 31.375 16.375 31.375L 29.125 31.375C 29.575001 31.375 29.875 31.674999 29.875 32.125L 29.875 35.125C 29.875 35.574997 29.575001 35.875 29.125 35.875ZM 44.125 40.375L 36.625 40.375C 36.175003 40.375 35.875 40.074997 35.875 39.625L 35.875 36.625C 35.875 36.175003 36.175003 35.875 36.625 35.875L 44.125 35.875C 44.574997 35.875 44.875 36.175003 44.875 36.625L 44.875 39.625C 44.875 40.074997 44.574997 40.375 44.125 40.375ZM 31.375 15.625L 37.375 15.625C 37.824997 15.625 38.125 15.925 38.125 16.375L 38.125 23.125"></path></g></g></g><g id="g-root-ic_box_m9v0qs1iq740b-stroke" data-item-order="0" transform="translate(788, 302)"><g id="ic_box_m9v0qs1iq740b-stroke" fill="none" stroke-linecap="round" stroke-linejoin="round" stroke-miterlimit="4" stroke="#e0cb15" stroke-width="2"><g><path d="M 11.5 37.190502L 28 41.690502M 28 41.690502L 44.5 37.190502M 11.5 37.190502L 19.7395 35.031998M 11.5 44.031998L 11.5 37.378002M 44.5 37.378002L 44.5 44.031998M 28 44.781998L 28 41.690502M 33.25 19.093C 33.25 21.9925 32.3755 29.593 28 29.593C 23.6245 29.593 22.75 22 22.75 19.093C 22.75 13.843 28 11.218 28 11.218C 28 11.218 33.25 13.843 33.25 19.093ZM 25.9405 18.9055C 25.940254 20.043104 26.862394 20.965446 28 20.965446C 29.137604 20.965446 30.059746 20.043104 30.0595 18.9055C 30.059746 17.767895 29.137604 16.845552 28 16.845552C 26.862394 16.845552 25.940254 17.767895 25.9405 18.9055M 24.5245 28.241501L 23.3125 28.848999C 22.62722 29.212746 21.999441 29.675745 21.449499 30.223C 21.180353 30.511675 20.764244 30.610613 20.39397 30.473972C 20.023697 30.337332 19.771606 29.99181 19.754499 29.5975C 19.490396 27.288748 20.781635 25.082703 22.924 24.182501M 31.4755 28.241501L 32.6875 28.848999C 33.37278 29.212746 34.000557 29.675745 34.550499 30.223C 34.819645 30.511675 35.235756 30.610613 35.606026 30.473972C 35.976299 30.337332 36.228394 29.99181 36.245499 29.5975C 36.509605 27.288748 35.218369 25.082703 33.076 24.182501M 44.5 37.190502L 36.260498 35.031998M 30.099998 34.010498C 30.099998 35.170002 29.1595 37.974998 28 37.974998C 26.8405 37.974998 25.900002 35.170002 25.900002 34.010498C 25.900002 32.850704 26.840202 31.9105 28 31.9105C 29.159798 31.9105 30.099998 32.850704 30.099998 34.010498Z"></path></g></g></g><g id="g-root-ic_48px_1uqk1hg1iprp4y-stroke" data-item-order="0" transform="translate(116, 362)"><g id="ic_48px_1uqk1hg1iprp4y-stroke" fill="none" stroke-linecap="round" stroke-linejoin="round" stroke-miterlimit="4" stroke="#484848" stroke-width="2"><g><path d="M 30.881351 20.033051L 37.222675 17.637701L 37.222675 38.463249M 13.804202 25.133875C 13.804202 20.861275 15.841548 17.271431 19.758026 17.271431C 23.674599 17.271431 25.711899 20.861275 25.711899 25.133875L 25.711899 30.454525C 25.711899 34.727127 23.57905 38.411201 19.758026 38.411201C 15.937067 38.411201 13.804202 34.727127 13.804202 30.454525L 13.804202 25.133875Z"></path></g></g></g><g id="g-root-ic_48px_1qbzhj81ipt4p9-stroke" data-item-order="0" transform="translate(284, 362)"><g id="ic_48px_1qbzhj81ipt4p9-stroke" fill="none" stroke-linecap="round" stroke-linejoin="round" stroke-miterlimit="4" stroke="#484848" stroke-width="2"><g><path d="M 13.804202 25.133875C 13.804202 20.861275 15.841548 17.271431 19.758026 17.271431C 23.674599 17.271431 25.711899 20.861275 25.711899 25.133875L 25.711899 30.454525C 25.711899 34.727127 23.57905 38.411201 19.758026 38.411201C 15.937067 38.411201 13.804202 34.727127 13.804202 30.454525L 13.804202 25.133875ZM 30.123625 23.136551C 30.123625 19.671326 32.541924 17.271482 35.828201 17.271482C 41.279949 17.271482 43.139427 22.59145 39.565975 27.323799L 30.497499 38.063126L 42.963024 38.063126"></path></g></g></g><g id="g-root-ic_48px_vbqv0k1ipuhvk-stroke" data-item-order="0" transform="translate(452, 362)"><g id="ic_48px_vbqv0k1ipuhvk-stroke" fill="none" stroke-linecap="round" stroke-linejoin="round" stroke-miterlimit="4" stroke="#484848" stroke-width="2"><g><path d="M 13.804202 25.133875C 13.804202 20.861275 15.841548 17.271431 19.758026 17.271431C 23.674599 17.271431 25.711899 20.861275 25.711899 25.133875L 25.711899 30.454525C 25.711899 34.727127 23.57905 38.411201 19.758026 38.411201C 15.937067 38.411201 13.804202 34.727127 13.804202 30.454525L 13.804202 25.133875ZM 30.3409 22.801075C 30.251575 20.9944 31.36195 17.282455 36.298973 17.282455C 41.236 17.282455 41.992226 20.94805 41.821152 23.01775C 41.632526 25.299925 40.20385 27.630924 34.150524 27.630924C 39.785202 27.630924 42.344124 29.171501 42.344124 33.343376C 42.344124 36.9496 39.156624 38.417351 36.244148 38.417351C 34.151051 38.399502 29.964701 37.215324 29.964701 32.621651"></path></g></g></g><g id="g-root-ic_48px_1hjgupw1ipvxfv-stroke" data-item-order="0" transform="translate(620, 362)"><g id="ic_48px_1hjgupw1ipvxfv-stroke" fill="none" stroke-linecap="round" stroke-linejoin="round" stroke-miterlimit="4" stroke="#484848" stroke-width="2"><g><path d="M 13.804202 25.134251C 13.804202 20.86165 15.841548 17.271797 19.758026 17.271797C 23.674599 17.271797 25.711899 20.86165 25.711899 25.134251L 25.711899 30.454899C 25.711899 34.727501 23.57905 38.411575 19.758026 38.411575C 15.937067 38.411575 13.804202 34.727501 13.804202 30.454899L 13.804202 25.134251ZM 39.93235 38.4841L 39.93235 17.163452L 29.721176 32.303501L 43.986027 32.303501"></path></g></g></g><g id="g-root-ic_48px_w6101ipype6-stroke" data-item-order="0" transform="translate(788, 362)"><g id="ic_48px_w6101ipype6-stroke" fill="none" stroke-linecap="round" stroke-linejoin="round" stroke-miterlimit="4" stroke="#484848" stroke-width="2"><g><path d="M 13.804202 25.134251C 13.804202 20.86165 15.841548 17.271797 19.758026 17.271797C 23.674599 17.271797 25.711899 20.86165 25.711899 25.134251L 25.711899 30.454899C 25.711899 34.727501 23.57905 38.411575 19.758026 38.411575C 15.937067 38.411575 13.804202 34.727501 13.804202 30.454899L 13.804202 25.134251ZM 42.769974 17.59045L 32.7841 17.59045L 31.74085 27.35815C 32.362675 26.73625 34.264824 25.492451 36.898827 25.492451C 39.978325 25.492451 42.859375 27.585024 42.570248 32.539299C 42.270851 37.670349 39.183998 38.42815 36.646374 38.42815C 33.958374 38.42815 31.303751 36.520676 31.0546 32.923752"></path></g></g></g><g id="g-root-ic_48px_1lsf4w41iq0361-stroke" data-item-order="0" transform="translate(956.5, 362)"><g id="ic_48px_1lsf4w41iq0361-stroke" fill="none" stroke-linecap="round" stroke-linejoin="round" stroke-miterlimit="4" stroke="#484848" stroke-width="2"><g><path d="M 13.804202 25.134251C 13.804202 20.86165 15.841548 17.271797 19.758026 17.271797C 23.674599 17.271797 25.711899 20.86165 25.711899 25.134251L 25.711899 30.454899C 25.711899 34.727501 23.57905 38.411575 19.758026 38.411575C 15.937067 38.411575 13.804202 34.727501 13.804202 30.454899L 13.804202 25.134251ZM 40.313278 17.248413C 33.688076 17.248413 30.526676 21.536949 30.277901 28.107176L 30.277451 31.269325C 30.277451 35.417351 32.5816 38.083 36.423622 38.411648C 40.04245 38.551975 42.295074 35.710373 42.457302 31.593775C 42.560349 28.979874 41.233597 25.310875 37.160725 24.903551C 33.591549 24.5467 30.801849 26.918724 30.277901 29.48245"></path></g></g></g><g id="g-root-tx_planific_4j7khw1iprpj4-stroke" data-item-order="0" transform="translate(74, 410)"></g><g id="g-root-tx_concepti_90a0sk1ipt4ar-stroke" data-item-order="0" transform="translate(248, 410)"></g><g id="g-root-tx_dfinirle_142e2kk1iprq4p-stroke" data-item-order="0" transform="translate(128, 446)"></g><g id="g-root-tx_test_7rdz81ipvx1d-stroke" data-item-order="0" transform="translate(614, 410)"></g><g id="g-root-tx_dploieme_1hjgupw1ipxato-stroke" data-item-order="0" transform="translate(746, 410)"></g><g id="g-root-tx_maintena_1um6pvo1iq03d3-stroke" data-item-order="0" transform="translate(908, 410)"></g><g id="g-root-tx_dveloppe_18lby4k1ipuhae-stroke" data-item-order="0" transform="translate(398, 410)"></g></g></g><path id="wqn63k41kdwbgs" d="M65.283 12.757a.35.35 0 0 0 .584.157l5.203-5.141-6.183 3.523.396 1.461zm-2.216-11.7a.35.35 0 0 0-.522.305v3.111l3.276-1.868-2.754-1.548zm3.728 2.105l-4.25 2.421v2.445l6.391-3.644-2.141-1.222zm4.708 3.303a.35.35 0 0 0 0-.609l-1.592-.9-7.365 4.199v1.782a.35.35 0 0 0 .523.305l8.435-4.777z M44.542 2.513c0-.433.355-.783.792-.783s.792.35.792.783-.355.783-.792.783-.792-.35-.792-.783zm59.171 0c0-.433.355-.783.792-.783s.792.35.792.783-.355.783-.792.783-.792-.35-.792-.783zm-85.951 7.636h-1.27v-.487c-.276.201-.864.609-1.881.609-1.202 0-2.274-.794-2.137-2.078.118-1.106 1.153-1.584 1.848-1.727l2.17-.345c0-.539-.29-.956-1.064-1.006s-1.21.305-1.571 1.017l-1.124-.605c1.218-2.631 5.029-1.764 5.029.414v4.207zm-1.27-2.86c.006.396-.062 1.112-.819 1.59-.587.37-1.841.299-1.903-.395-.049-.555.461-.791.906-.898l1.816-.297zm72.662 2.86h-1.27v-.487c-.276.201-.864.609-1.881.609-1.202 0-2.274-.794-2.137-2.078.118-1.106 1.153-1.584 1.848-1.727l2.17-.345c0-.539-.29-.956-1.064-1.006s-1.21.305-1.571 1.017l-1.124-.605c1.218-2.631 5.029-1.764 5.029.414v4.207zm-1.27-2.86c.006.396-.062 1.112-.82 1.59-.587.37-1.841.299-1.903-.395-.049-.555.461-.791.906-.898l1.816-.297zM99.096 10.149H97.85v-8.45h1.246v4.895l2.68-2.559h1.738l-2.633 2.535 2.715 3.578h-1.556l-2.077-2.707-.867.844v1.863zm6.053-6.114h-1.255v6.113h1.255V4.035zm-59.2 0h-1.255v6.113h1.255V4.035zm5.584 6.113V1.697h1.255v2.695c.361-.346 1-.485 1.47-.485 1.452 0 2.477 1.082 2.457 2.448v3.792h-1.27v-3.68c0-.408-.214-1.339-1.315-1.339-.968 0-1.342.756-1.342 1.339v3.681h-1.255zm-4.76-4.894V4.039h.621a.45.45 0 0 0 .45-.45v-.855h1.251v1.305h1.309v1.215h-1.309v3.109c0 .293.105.664.648.664.365 0 .531-.035.736-.07v1.137s-.361.113-.857.113c-1.398 0-1.777-1.051-1.777-1.788V5.254h-1.071zM36.528 4.039h-1.394l2.191 6.106h1.125l1.234-3.918 1.238 3.918h1.129l2.188-6.106h-1.383l-1.359 3.93-1.256-3.93h-1.124l-1.242 3.957-1.348-3.957zM26.212 7.141c-.02 1.566 1.187 3.129 3.223 3.129 1.566 0 2.383-.918 2.734-1.719L31.172 8c-.315.399-.801 1.094-1.738 1.094-1.145 0-1.825-.781-1.891-1.52h4.625c.074-.284.148-.995-.03-1.559-.336-1.064-1.221-2.102-2.839-2.102s-3.088 1.152-3.088 3.227zm1.363-.75h3.348c-.055-.43-.566-1.301-1.623-1.301a1.79 1.79 0 0 0-1.725 1.301zm-8.758.75c.038 1.758 1.277 3.133 3.145 3.133 1.074 0 1.723-.477 1.961-.672v.547h1.242V1.703h-1.258v2.888c-.414-.36-1.062-.68-1.93-.68-1.91 0-3.198 1.473-3.16 3.23zm1.309-.08c0 1.119.723 1.978 1.836 1.978a1.88 1.88 0 0 0 1.94-1.904c0-1.371-1.011-1.99-1.972-1.99s-1.805.798-1.805 1.916zm76.683-.028C96.771 5.275 95.532 3.9 93.664 3.9c-1.074 0-1.723.477-1.961.672v-.547h-1.242v8.22h1.258V9.583c.414.36 1.063.68 1.93.68 1.91 0 3.198-1.473 3.16-3.23zm-1.309.08c0-1.119-.723-1.978-1.836-1.978a1.88 1.88 0 0 0-1.94 1.904c0 1.371 1.011 1.99 1.972 1.99S95.5 8.231 95.5 7.113zM106.441 10.173V4.036h1.254v.382c.361-.346 1-.485 1.47-.485 1.452 0 2.477 1.082 2.457 2.448v3.792h-1.27V6.492c0-.408-.214-1.339-1.315-1.339-.969 0-1.342.756-1.342 1.339v3.681h-1.254zm-30.383-.021V1.824h1.084l4.215 5.777V1.824h1.32v8.328h-1.094l-4.207-5.796v5.796h-1.319zM5.24 10.149H4V2.377h1.014l2.664 3.597 2.654-3.592h1.03v7.766h-1.256V4.762L7.678 8.068 5.24 4.742v5.407z" transform="translate(992, 566)" fill="#80808088" stroke="none"></path></svg>