<svg xmlns="http://www.w3.org/2000/svg" xmlns:xlink="http://www.w3.org/1999/xlink" width="500" zoomAndPan="magnify" viewBox="0 0 375 374.999991" height="500" preserveAspectRatio="xMidYMid meet" version="1.2"><defs><clipPath id="14230b8aaa"><path d="M 8.050781 106.347656 L 134.800781 106.347656 L 134.800781 235 L 8.050781 235 Z M 8.050781 106.347656 "/></clipPath></defs><g id="67ac3dda74"><g style="fill:#0866df;fill-opacity:1;"><g transform="translate(103.366058, 167.061613)"><path style="stroke:none" d="M -1.222656 -0.753906 L 14.171875 -35.894531 L 17.382812 -35.894531 L 33.929688 1.882812 L 24.332031 1.882812 L 20.085938 -8.304688 L 21.824219 -9.03125 L 21.824219 -7.148438 L 6.921875 -7.148438 L 6.921875 -9.03125 L 8.664062 -8.316406 L 4.472656 1.882812 L -2.375 1.882812 Z M 2.226562 0.753906 L 0.5 0 L 0.5 -1.882812 L 3.210938 -1.882812 L 3.210938 0 L 1.46875 -0.714844 L 5.664062 -10.910156 L 23.078125 -10.910156 L 27.320312 -0.722656 L 25.585938 0 L 25.585938 -1.882812 L 31.054688 -1.882812 L 31.054688 0 L 29.328125 0.753906 L 14.429688 -33.257812 L 16.152344 -34.011719 L 16.152344 -32.132812 L 15.402344 -32.132812 L 15.402344 -34.011719 L 17.125 -33.257812 Z M 7.675781 -12.816406 L 21.019531 -12.816406 L 21.019531 -10.9375 L 19.277344 -10.226562 L 12.65625 -26.480469 L 14.398438 -27.191406 L 16.136719 -26.472656 L 9.414062 -10.21875 L 7.675781 -10.9375 Z M 4.859375 -9.054688 L 14.410156 -32.144531 L 23.816406 -9.054688 Z M 4.859375 -9.054688 "/></g></g><g style="fill:#0866df;fill-opacity:1;"><g transform="translate(141.789823, 167.061613)"><path style="stroke:none" d="M 1.882812 -36.144531 L 9.859375 -36.144531 L 9.859375 1.882812 L 1.882812 1.882812 Z M 5.644531 -32.382812 L 5.644531 -1.882812 L 6.09375 -1.882812 L 6.09375 -32.382812 Z M 5.644531 -32.382812 "/></g></g><g style="fill:#0866df;fill-opacity:1;"><g transform="translate(160.400905, 167.061613)"><path style="stroke:none" d="M 6.730469 -20.828125 C 8.242188 -22.269531 9.59375 -23.332031 10.78125 -24.007812 C 12.125 -24.773438 13.519531 -25.160156 14.976562 -25.160156 C 16.34375 -25.160156 17.589844 -24.925781 18.707031 -24.464844 C 19.78125 -24.015625 20.867188 -23.316406 21.957031 -22.359375 C 23.148438 -21.320312 24.089844 -19.777344 24.78125 -17.738281 C 25.433594 -15.820312 25.761719 -13.726562 25.761719 -11.464844 C 25.761719 -9.175781 25.386719 -7.042969 24.636719 -5.054688 C 23.859375 -3 22.640625 -1.21875 20.980469 0.289062 C 19.183594 1.917969 17.03125 2.734375 14.523438 2.734375 C 12.113281 2.734375 9.59375 1.839844 6.96875 0.0507812 L 8.027344 -1.503906 L 9.910156 -1.503906 L 9.910156 12.515625 L 1.882812 12.515625 L 1.882812 -15.902344 C 1.882812 -17.59375 1.257812 -18.917969 0.0078125 -19.878906 L -1.980469 -21.410156 L 3.882812 -25.695312 L 9.28125 -20.867188 L 8.027344 -19.464844 Z M 8.066406 -16.90625 L 2.507812 -21.875 L 3.761719 -23.277344 L 4.871094 -21.757812 L 2.265625 -19.851562 L 1.152344 -21.371094 L 2.300781 -22.863281 C 4.53125 -21.148438 5.644531 -18.828125 5.644531 -15.902344 L 5.644531 10.636719 L 3.761719 10.636719 L 3.761719 8.753906 L 8.027344 8.753906 L 8.027344 10.636719 L 6.144531 10.636719 L 6.144531 -5.0625 L 9.085938 -3.058594 C 11.074219 -1.707031 12.886719 -1.027344 14.523438 -1.027344 C 16.0625 -1.027344 17.371094 -1.519531 18.453125 -2.496094 C 19.664062 -3.597656 20.554688 -4.894531 21.117188 -6.382812 C 21.703125 -7.941406 21.996094 -9.636719 21.996094 -11.464844 C 21.996094 -13.3125 21.738281 -15 21.21875 -16.527344 C 20.742188 -17.929688 20.164062 -18.929688 19.480469 -19.527344 C 18.699219 -20.210938 17.960938 -20.699219 17.261719 -20.988281 C 16.609375 -21.261719 15.84375 -21.394531 14.976562 -21.394531 C 14.1875 -21.394531 13.410156 -21.175781 12.648438 -20.742188 C 11.726562 -20.214844 10.617188 -19.335938 9.324219 -18.101562 Z M 9.910156 -16.40625 L 9.910156 -2.960938 L 8.027344 -2.960938 L 8.832031 -4.660156 C 10.804688 -3.726562 12.425781 -3.324219 13.695312 -3.464844 C 14.730469 -3.574219 15.5625 -4.105469 16.191406 -5.054688 C 17.019531 -6.363281 17.433594 -8.179688 17.433594 -10.511719 C 17.433594 -12.9375 17.058594 -14.988281 16.316406 -16.671875 C 15.691406 -18.074219 15.015625 -18.894531 14.28125 -19.125 L 14.847656 -20.917969 L 15.0625 -19.050781 C 14.175781 -18.949219 13.292969 -18.621094 12.414062 -18.070312 C 11.433594 -17.457031 10.71875 -16.90625 10.265625 -16.410156 C 10.046875 -16.171875 9.894531 -15.988281 9.804688 -15.855469 C 9.796875 -15.84375 9.789062 -15.832031 9.785156 -15.824219 C 9.792969 -15.835938 9.800781 -15.851562 9.808594 -15.871094 C 9.875 -16.027344 9.910156 -16.203125 9.910156 -16.40625 Z M 6.144531 -16.40625 C 6.144531 -16.902344 6.320312 -17.414062 6.675781 -17.945312 C 6.871094 -18.238281 7.144531 -18.574219 7.492188 -18.957031 C 8.175781 -19.699219 9.148438 -20.46875 10.414062 -21.257812 C 11.773438 -22.113281 13.183594 -22.621094 14.636719 -22.789062 L 15.035156 -22.835938 L 15.414062 -22.714844 C 17.226562 -22.140625 18.671875 -20.636719 19.753906 -18.195312 C 20.714844 -16.03125 21.195312 -13.46875 21.195312 -10.511719 C 21.195312 -7.453125 20.574219 -4.941406 19.328125 -2.972656 C 18.050781 -1.046875 16.304688 0.0390625 14.097656 0.277344 C 12.125 0.492188 9.832031 -0.0195312 7.21875 -1.261719 L 6.144531 -1.769531 Z M 6.144531 -16.40625 "/></g></g><g style="fill:#0866df;fill-opacity:1;"><g transform="translate(192.354206, 167.061613)"><path style="stroke:none" d="M 15.753906 -25.058594 C 17.789062 -25.058594 19.589844 -24.320312 21.15625 -22.839844 C 22.753906 -21.332031 23.554688 -18.917969 23.554688 -15.601562 L 23.554688 1.882812 L 15.578125 1.882812 L 15.578125 -15.101562 C 15.578125 -16.335938 15.402344 -17.203125 15.050781 -17.695312 C 14.980469 -17.789062 14.851562 -17.871094 14.65625 -17.941406 C 14.304688 -18.070312 13.824219 -18.136719 13.21875 -18.136719 C 12.074219 -18.136719 10.785156 -17.429688 9.34375 -16.015625 L 8.027344 -17.359375 L 9.910156 -17.359375 L 9.910156 1.882812 L 1.929688 1.882812 L 1.929688 -36.144531 L 9.757812 -36.144531 L 9.757812 -19.464844 L 7.875 -19.464844 L 6.589844 -20.839844 C 9.59375 -23.652344 12.648438 -25.058594 15.753906 -25.058594 Z M 15.753906 -21.296875 C 13.640625 -21.296875 11.441406 -20.226562 9.164062 -18.089844 L 5.996094 -15.125 L 5.996094 -34.265625 L 7.875 -34.265625 L 7.875 -32.382812 L 3.8125 -32.382812 L 3.8125 -34.265625 L 5.695312 -34.265625 L 5.695312 0 L 3.8125 0 L 3.8125 -1.882812 L 8.027344 -1.882812 L 8.027344 0 L 6.144531 0 L 6.144531 -18.148438 L 6.707031 -18.699219 C 8.878906 -20.832031 11.050781 -21.898438 13.21875 -21.898438 C 15.519531 -21.898438 17.152344 -21.226562 18.109375 -19.882812 C 18.929688 -18.734375 19.339844 -17.140625 19.339844 -15.101562 L 19.339844 0 L 17.457031 0 L 17.457031 -1.882812 L 21.671875 -1.882812 L 21.671875 0 L 19.789062 0 L 19.789062 -15.601562 C 19.789062 -17.835938 19.386719 -19.335938 18.574219 -20.101562 C 17.734375 -20.898438 16.792969 -21.296875 15.753906 -21.296875 Z M 15.753906 -21.296875 "/></g></g><g style="fill:#0866df;fill-opacity:1;"><g transform="translate(224.457982, 167.061613)"><path style="stroke:none" d="M 12.414062 -5.316406 L 12.414062 -10.484375 L 14.296875 -10.484375 L 14.429688 -8.609375 C 12.3125 -8.460938 10.613281 -8.011719 9.332031 -7.257812 C 8.761719 -6.925781 8.359375 -6.605469 8.121094 -6.304688 C 8.007812 -6.164062 7.953125 -6.050781 7.953125 -5.96875 C 7.953125 -5.332031 8.101562 -4.800781 8.40625 -4.375 C 8.714844 -3.945312 9.101562 -3.644531 9.566406 -3.476562 L 8.929688 -1.707031 L 8.59375 -3.558594 C 9.414062 -3.707031 10.328125 -4.148438 11.332031 -4.882812 C 11.859375 -5.265625 12.238281 -5.578125 12.46875 -5.824219 C 12.507812 -5.863281 12.535156 -5.894531 12.558594 -5.925781 L 12.558594 -5.921875 C 12.464844 -5.761719 12.414062 -5.558594 12.414062 -5.316406 Z M 16.179688 -5.316406 C 16.179688 -4.617188 15.851562 -3.921875 15.199219 -3.234375 C 14.8125 -2.824219 14.261719 -2.359375 13.550781 -1.839844 C 12.082031 -0.769531 10.652344 -0.105469 9.265625 0.144531 L 8.769531 0.234375 L 8.292969 0.0664062 C 7.085938 -0.371094 6.101562 -1.121094 5.339844 -2.195312 C 4.570312 -3.273438 4.1875 -4.53125 4.1875 -5.96875 C 4.1875 -7.726562 5.265625 -9.234375 7.425781 -10.503906 C 9.21875 -11.554688 11.464844 -12.175781 14.167969 -12.363281 L 16.179688 -12.5 Z M 20.292969 -6.671875 C 20.292969 -4.945312 20.898438 -3.648438 22.109375 -2.789062 L 24.238281 -1.273438 L 18.289062 3.074219 L 13.089844 -1.613281 L 14.347656 -3.011719 L 15.613281 -1.621094 C 12.613281 1.117188 9.75 2.484375 7.023438 2.484375 C 5.074219 2.484375 3.394531 1.855469 1.984375 0.605469 C 0.511719 -0.707031 -0.226562 -2.355469 -0.226562 -4.339844 C -0.226562 -6.246094 0.363281 -7.847656 1.542969 -9.144531 C 2.605469 -10.3125 3.988281 -11.199219 5.6875 -11.804688 C 8.242188 -12.761719 11.0625 -13.367188 14.148438 -13.613281 L 14.296875 -11.738281 L 12.414062 -11.738281 L 12.414062 -16.453125 C 12.414062 -17.269531 12.230469 -17.835938 11.863281 -18.152344 C 11.414062 -18.542969 10.621094 -18.738281 9.480469 -18.738281 C 7.835938 -18.738281 5.855469 -18.367188 3.535156 -17.621094 L 1.804688 -17.070312 L 0.28125 -21.296875 L 1.332031 -22.136719 C 2.164062 -22.800781 3.503906 -23.46875 5.351562 -24.144531 C 7.214844 -24.820312 9.007812 -25.160156 10.734375 -25.160156 C 12.480469 -25.160156 13.972656 -24.914062 15.210938 -24.425781 C 16.484375 -23.925781 17.460938 -23.324219 18.132812 -22.628906 C 18.828125 -21.910156 19.351562 -20.972656 19.707031 -19.816406 C 20.019531 -18.808594 20.195312 -17.980469 20.238281 -17.332031 C 20.273438 -16.789062 20.292969 -16.078125 20.292969 -15.199219 Z M 16.53125 -6.671875 L 16.53125 -15.199219 C 16.53125 -15.996094 16.515625 -16.621094 16.484375 -17.082031 C 16.460938 -17.4375 16.335938 -17.980469 16.109375 -18.710938 C 15.933594 -19.292969 15.703125 -19.726562 15.429688 -20.011719 C 15.132812 -20.320312 14.601562 -20.621094 13.835938 -20.925781 C 13.035156 -21.238281 12.003906 -21.394531 10.734375 -21.394531 C 9.453125 -21.394531 8.085938 -21.132812 6.636719 -20.605469 C 5.175781 -20.074219 4.191406 -19.605469 3.683594 -19.199219 L 2.507812 -20.667969 L 4.277344 -21.304688 L 4.730469 -20.050781 L 2.960938 -19.414062 L 2.386719 -21.207031 C 5.082031 -22.070312 7.445312 -22.5 9.480469 -22.5 C 11.554688 -22.5 13.167969 -22 14.324219 -21 C 15.5625 -19.933594 16.179688 -18.417969 16.179688 -16.453125 L 16.179688 -10.003906 L 14.449219 -9.863281 C 11.714844 -9.644531 9.214844 -9.109375 6.953125 -8.261719 C 5.84375 -7.863281 4.96875 -7.3125 4.324219 -6.609375 C 3.800781 -6.03125 3.535156 -5.273438 3.535156 -4.339844 C 3.535156 -3.480469 3.851562 -2.769531 4.484375 -2.207031 C 5.183594 -1.589844 6.027344 -1.28125 7.023438 -1.28125 C 8.777344 -1.28125 10.796875 -2.320312 13.082031 -4.402344 L 14.339844 -5.550781 L 19.671875 -0.746094 L 18.410156 0.652344 L 17.300781 -0.867188 L 19.910156 -2.773438 L 21.019531 -1.253906 L 19.929688 0.277344 C 18.796875 -0.527344 17.941406 -1.527344 17.367188 -2.71875 C 16.808594 -3.882812 16.53125 -5.199219 16.53125 -6.671875 Z M 16.53125 -6.671875 "/></g></g><g style="fill:#0866df;fill-opacity:1;"><g transform="translate(253.602388, 167.061613)"><path style="stroke:none" d="M 39.933594 -35.09375 L 45.132812 -35.09375 L 31.3125 2.632812 L 27.890625 2.632812 L 19.757812 -19.15625 L 21.523438 -19.816406 L 23.289062 -19.167969 L 15.3125 2.632812 L 11.886719 2.632812 L -2.210938 -35.09375 L 7.335938 -35.09375 L 16.589844 -6.601562 L 14.800781 -6.019531 L 13.015625 -6.617188 L 18.632812 -23.375 L 20.417969 -22.777344 L 18.65625 -22.113281 L 13.789062 -35.09375 L 23.339844 -35.09375 L 32.59375 -6.601562 L 30.800781 -6.019531 L 29.019531 -6.617188 L 38.578125 -35.09375 Z M 39.933594 -31.328125 L 39.933594 -33.210938 L 41.714844 -32.613281 L 30.773438 -0.0195312 L 20.183594 -32.628906 L 21.972656 -33.210938 L 21.972656 -31.328125 L 16.503906 -31.328125 L 16.503906 -33.210938 L 18.265625 -33.871094 L 22.414062 -22.8125 L 14.769531 -0.015625 L 4.179688 -32.628906 L 5.96875 -33.210938 L 5.96875 -31.328125 L 0.5 -31.328125 L 0.5 -33.210938 L 2.265625 -33.867188 L 14.957031 0.09375 L 13.195312 0.753906 L 13.195312 -1.128906 L 13.996094 -1.128906 L 13.996094 0.753906 L 12.230469 0.105469 L 21.503906 -25.246094 L 30.960938 0.09375 L 29.195312 0.753906 L 29.195312 -1.128906 L 30 -1.128906 L 30 0.753906 L 28.234375 0.105469 L 40.675781 -33.859375 L 42.441406 -33.210938 L 42.441406 -31.328125 Z M 39.933594 -31.328125 "/></g></g><g style="fill:#0866df;fill-opacity:1;"><g transform="translate(302.408858, 167.061613)"><path style="stroke:none" d="M 7.148438 -12.339844 C 7.148438 -9.257812 7.773438 -7.105469 9.015625 -5.882812 C 10.273438 -4.652344 11.808594 -4.039062 13.621094 -4.039062 C 15.671875 -4.039062 17.558594 -4.433594 19.285156 -5.222656 L 21.949219 -6.441406 L 21.949219 -0.664062 L 21.003906 -0.125 C 17.96875 1.613281 15.03125 2.484375 12.191406 2.484375 C 8.433594 2.484375 5.367188 1.316406 2.996094 -1.015625 C 0.613281 -3.359375 -0.578125 -6.664062 -0.578125 -10.9375 C -0.578125 -15.199219 0.71875 -18.632812 3.304688 -21.242188 C 5.898438 -23.851562 9.027344 -25.160156 12.691406 -25.160156 C 15.710938 -25.160156 18.230469 -23.976562 20.246094 -21.613281 C 22.183594 -19.339844 23.152344 -16.246094 23.152344 -12.339844 L 23.152344 -10.460938 L 5.265625 -10.460938 L 5.265625 -12.339844 Z M 3.386719 -14.222656 L 21.269531 -14.222656 L 21.269531 -12.339844 L 19.390625 -12.339844 C 19.390625 -15.324219 18.71875 -17.601562 17.378906 -19.171875 C 16.117188 -20.65625 14.554688 -21.394531 12.691406 -21.394531 C 10.070312 -21.394531 7.832031 -20.460938 5.976562 -18.589844 C 4.117188 -16.714844 3.1875 -14.164062 3.1875 -10.9375 C 3.1875 -7.714844 4 -5.304688 5.632812 -3.699219 C 7.273438 -2.085938 9.460938 -1.28125 12.191406 -1.28125 C 14.363281 -1.28125 16.679688 -1.984375 19.132812 -3.386719 L 20.066406 -1.753906 L 18.183594 -1.753906 L 18.183594 -3.511719 L 20.066406 -3.511719 L 20.851562 -1.800781 C 18.628906 -0.785156 16.21875 -0.277344 13.621094 -0.277344 C 10.785156 -0.277344 8.371094 -1.25 6.382812 -3.195312 C 4.386719 -5.152344 3.386719 -8.203125 3.386719 -12.339844 Z M 10.957031 -19.226562 C 10.089844 -18.808594 9.335938 -18.113281 8.6875 -17.140625 C 8.003906 -16.113281 7.550781 -14.914062 7.324219 -13.542969 L 5.46875 -13.847656 L 5.46875 -15.726562 L 17.207031 -15.726562 L 17.207031 -13.847656 L 15.332031 -13.710938 C 15.25 -14.84375 15 -15.789062 14.582031 -16.550781 C 14.191406 -17.261719 13.753906 -17.765625 13.269531 -18.058594 C 12.199219 -18.710938 11.152344 -19.039062 10.132812 -19.039062 L 10.132812 -20.917969 Z M 9.3125 -22.613281 L 9.699219 -22.800781 L 10.132812 -22.800781 C 11.855469 -22.800781 13.554688 -22.292969 15.226562 -21.273438 C 16.28125 -20.628906 17.164062 -19.660156 17.878906 -18.363281 C 18.5625 -17.121094 18.964844 -15.660156 19.082031 -13.980469 L 19.226562 -11.964844 L 3.253906 -11.964844 L 3.609375 -14.148438 C 3.921875 -16.054688 4.570312 -17.75 5.558594 -19.230469 C 6.582031 -20.765625 7.835938 -21.894531 9.3125 -22.613281 Z M 9.3125 -22.613281 "/></g></g><g style="fill:#0866df;fill-opacity:1;"><g transform="translate(332.807242, 167.061613)"><path style="stroke:none" d="M 6.261719 -20.753906 C 8.777344 -23.625 11.597656 -25.058594 14.722656 -25.058594 C 17.886719 -25.058594 20.46875 -23.800781 22.46875 -21.289062 C 24.363281 -18.90625 25.308594 -15.664062 25.308594 -11.5625 C 25.308594 -7.351562 23.894531 -3.941406 21.066406 -1.328125 C 18.28125 1.246094 14.90625 2.535156 10.9375 2.535156 C 8.003906 2.535156 5.210938 1.804688 2.554688 0.34375 L 1.578125 -0.191406 L 1.578125 -36.144531 L 9.558594 -36.144531 L 9.558594 -19.515625 L 7.675781 -19.515625 Z M 5.792969 -14.515625 L 5.792969 -34.265625 L 7.675781 -34.265625 L 7.675781 -32.382812 L 3.460938 -32.382812 L 3.460938 -34.265625 L 5.34375 -34.265625 L 5.34375 -1.304688 L 3.460938 -1.304688 L 4.367188 -2.953125 C 6.460938 -1.804688 8.648438 -1.230469 10.9375 -1.230469 C 13.921875 -1.230469 16.449219 -2.183594 18.515625 -4.089844 C 20.535156 -5.960938 21.546875 -8.449219 21.546875 -11.5625 C 21.546875 -14.789062 20.871094 -17.25 19.523438 -18.945312 C 18.277344 -20.511719 16.675781 -21.296875 14.722656 -21.296875 C 12.734375 -21.296875 10.855469 -20.289062 9.089844 -18.273438 Z M 9.558594 -17.15625 L 9.558594 -2.808594 L 7.675781 -2.808594 L 8.554688 -4.472656 C 9.984375 -3.714844 11.464844 -3.335938 12.992188 -3.335938 C 13.558594 -3.335938 14.0625 -3.46875 14.503906 -3.738281 C 14.988281 -4.035156 15.429688 -4.507812 15.835938 -5.15625 C 16.765625 -6.65625 17.230469 -8.566406 17.230469 -10.886719 C 17.230469 -13.171875 16.789062 -14.957031 15.90625 -16.242188 C 15.046875 -17.492188 13.984375 -18.320312 12.722656 -18.726562 L 13.292969 -20.519531 L 13.433594 -18.640625 C 12.800781 -18.59375 12.144531 -18.386719 11.460938 -18.011719 C 10.691406 -17.59375 10.117188 -17.199219 9.734375 -16.832031 C 9.5625 -16.664062 9.445312 -16.539062 9.382812 -16.453125 C 9.394531 -16.46875 9.410156 -16.5 9.429688 -16.546875 C 9.515625 -16.726562 9.558594 -16.933594 9.558594 -17.15625 Z M 5.792969 -17.15625 C 5.792969 -17.667969 5.976562 -18.171875 6.34375 -18.675781 C 6.535156 -18.933594 6.792969 -19.222656 7.121094 -19.539062 C 7.742188 -20.140625 8.589844 -20.734375 9.660156 -21.316406 C 10.816406 -21.949219 11.980469 -22.308594 13.15625 -22.394531 L 13.519531 -22.421875 L 13.867188 -22.308594 C 15.949219 -21.644531 17.660156 -20.332031 19.007812 -18.375 C 20.332031 -16.445312 20.996094 -13.953125 20.996094 -10.886719 C 20.996094 -7.851562 20.339844 -5.28125 19.03125 -3.171875 C 18.3125 -2.015625 17.457031 -1.132812 16.460938 -0.527344 C 15.421875 0.109375 14.265625 0.425781 12.992188 0.425781 C 10.84375 0.425781 8.777344 -0.0976562 6.796875 -1.144531 L 5.792969 -1.675781 Z M 5.792969 -17.15625 "/></g></g><g style="fill:#0866df;fill-opacity:1;"><g transform="translate(103.366058, 167.061613)"><path style="stroke:none" d="M 0.5 0 L 15.40625 -34.015625 L 16.15625 -34.015625 L 31.0625 0 L 25.59375 0 L 21.828125 -9.03125 L 6.921875 -9.03125 L 3.21875 0 Z M 7.671875 -10.9375 L 21.015625 -10.9375 L 14.40625 -27.1875 Z M 7.671875 -10.9375 "/></g></g><g style="fill:#0866df;fill-opacity:1;"><g transform="translate(141.789823, 167.061613)"><path style="stroke:none" d="M 7.984375 -34.265625 L 7.984375 0 L 3.765625 0 L 3.765625 -34.265625 Z M 7.984375 -34.265625 "/></g></g><g style="fill:#0866df;fill-opacity:1;"><g transform="translate(160.400905, 167.061613)"><path style="stroke:none" d="M 8.03125 -19.46875 C 9.4375 -20.800781 10.664062 -21.769531 11.71875 -22.375 C 12.769531 -22.976562 13.851562 -23.28125 14.96875 -23.28125 C 16.09375 -23.28125 17.097656 -23.09375 17.984375 -22.71875 C 18.867188 -22.351562 19.78125 -21.757812 20.71875 -20.9375 C 21.65625 -20.125 22.414062 -18.851562 23 -17.125 C 23.582031 -15.40625 23.875 -13.515625 23.875 -11.453125 C 23.875 -9.398438 23.539062 -7.488281 22.875 -5.71875 C 22.207031 -3.945312 21.15625 -2.40625 19.71875 -1.09375 C 18.28125 0.207031 16.546875 0.859375 14.515625 0.859375 C 12.492188 0.859375 10.332031 0.0703125 8.03125 -1.5 L 8.03125 10.640625 L 3.765625 10.640625 L 3.765625 -15.90625 C 3.765625 -18.207031 2.894531 -20.03125 1.15625 -21.375 L 3.765625 -23.28125 Z M 8.03125 -16.40625 L 8.03125 -2.953125 C 12.613281 -0.785156 15.859375 -1.140625 17.765625 -4.015625 C 18.796875 -5.648438 19.3125 -7.8125 19.3125 -10.5 C 19.3125 -13.195312 18.882812 -15.503906 18.03125 -17.421875 C 17.175781 -19.347656 16.113281 -20.515625 14.84375 -20.921875 C 13.675781 -20.785156 12.53125 -20.363281 11.40625 -19.65625 C 10.289062 -18.957031 9.445312 -18.296875 8.875 -17.671875 C 8.3125 -17.054688 8.03125 -16.632812 8.03125 -16.40625 Z M 8.03125 -16.40625 "/></g></g><g style="fill:#0866df;fill-opacity:1;"><g transform="translate(192.354206, 167.061613)"><path style="stroke:none" d="M 15.75 -23.171875 C 17.289062 -23.171875 18.660156 -22.601562 19.859375 -21.46875 C 21.066406 -20.332031 21.671875 -18.378906 21.671875 -15.609375 L 21.671875 0 L 17.453125 0 L 17.453125 -15.109375 C 17.453125 -16.742188 17.160156 -17.96875 16.578125 -18.78125 C 15.992188 -19.601562 14.875 -20.015625 13.21875 -20.015625 C 11.5625 -20.015625 9.832031 -19.128906 8.03125 -17.359375 L 8.03125 0 L 3.8125 0 L 3.8125 -34.265625 L 7.875 -34.265625 L 7.875 -19.46875 C 10.519531 -21.9375 13.144531 -23.171875 15.75 -23.171875 Z M 15.75 -23.171875 "/></g></g><g style="fill:#0866df;fill-opacity:1;"><g transform="translate(224.457982, 167.061613)"><path style="stroke:none" d="M 14.296875 -5.3125 L 14.296875 -10.484375 C 11.890625 -10.316406 9.914062 -9.78125 8.375 -8.875 C 6.84375 -7.976562 6.078125 -7.007812 6.078125 -5.96875 C 6.078125 -4.9375 6.34375 -4.039062 6.875 -3.28125 C 7.40625 -2.53125 8.09375 -2.003906 8.9375 -1.703125 C 10.039062 -1.898438 11.207031 -2.453125 12.4375 -3.359375 C 13.675781 -4.265625 14.296875 -4.914062 14.296875 -5.3125 Z M 18.40625 -6.671875 C 18.40625 -4.296875 19.273438 -2.488281 21.015625 -1.25 L 18.40625 0.65625 L 14.34375 -3.015625 C 11.707031 -0.597656 9.269531 0.609375 7.03125 0.609375 C 5.550781 0.609375 4.285156 0.140625 3.234375 -0.796875 C 2.179688 -1.734375 1.65625 -2.910156 1.65625 -4.328125 C 1.65625 -5.753906 2.082031 -6.9375 2.9375 -7.875 C 3.789062 -8.8125 4.921875 -9.53125 6.328125 -10.03125 C 8.734375 -10.9375 11.390625 -11.503906 14.296875 -11.734375 L 14.296875 -16.453125 C 14.296875 -19.234375 12.691406 -20.625 9.484375 -20.625 C 7.640625 -20.625 5.460938 -20.222656 2.953125 -19.421875 L 2.515625 -20.671875 C 3.179688 -21.203125 4.34375 -21.769531 6 -22.375 C 7.65625 -22.976562 9.234375 -23.28125 10.734375 -23.28125 C 12.242188 -23.28125 13.507812 -23.078125 14.53125 -22.671875 C 15.550781 -22.273438 16.300781 -21.828125 16.78125 -21.328125 C 17.269531 -20.828125 17.644531 -20.140625 17.90625 -19.265625 C 18.175781 -18.398438 18.328125 -17.710938 18.359375 -17.203125 C 18.390625 -16.703125 18.40625 -16.035156 18.40625 -15.203125 Z M 18.40625 -6.671875 "/></g></g><g style="fill:#0866df;fill-opacity:1;"><g transform="translate(253.602388, 167.061613)"><path style="stroke:none" d="M 39.9375 -33.21875 L 42.453125 -33.21875 L 30 0.75 L 29.203125 0.75 L 21.53125 -19.8125 L 14 0.75 L 13.1875 0.75 L 0.5 -33.21875 L 5.96875 -33.21875 L 14.796875 -6.015625 L 20.421875 -22.78125 L 16.5 -33.21875 L 21.96875 -33.21875 L 30.8125 -6.015625 Z M 39.9375 -33.21875 "/></g></g><g style="fill:#0866df;fill-opacity:1;"><g transform="translate(302.408858, 167.061613)"><path style="stroke:none" d="M 5.265625 -12.34375 C 5.265625 -8.726562 6.078125 -6.125 7.703125 -4.53125 C 9.328125 -2.945312 11.300781 -2.15625 13.625 -2.15625 C 15.945312 -2.15625 18.09375 -2.609375 20.0625 -3.515625 L 20.0625 -1.75 C 17.320312 -0.175781 14.695312 0.609375 12.1875 0.609375 C 8.945312 0.609375 6.320312 -0.375 4.3125 -2.34375 C 2.300781 -4.320312 1.296875 -7.1875 1.296875 -10.9375 C 1.296875 -14.6875 2.410156 -17.679688 4.640625 -19.921875 C 6.867188 -22.160156 9.550781 -23.28125 12.6875 -23.28125 C 15.132812 -23.28125 17.175781 -22.316406 18.8125 -20.390625 C 20.445312 -18.472656 21.265625 -15.789062 21.265625 -12.34375 Z M 10.140625 -20.921875 C 8.960938 -20.347656 7.957031 -19.4375 7.125 -18.1875 C 6.289062 -16.9375 5.738281 -15.488281 5.46875 -13.84375 L 17.203125 -13.84375 C 17.109375 -15.25 16.785156 -16.453125 16.234375 -17.453125 C 15.679688 -18.460938 15.019531 -19.203125 14.25 -19.671875 C 12.875 -20.503906 11.503906 -20.921875 10.140625 -20.921875 Z M 10.140625 -20.921875 "/></g></g><g style="fill:#0866df;fill-opacity:1;"><g transform="translate(332.807242, 167.061613)"><path style="stroke:none" d="M 7.671875 -19.515625 C 9.816406 -21.953125 12.164062 -23.171875 14.71875 -23.171875 C 17.28125 -23.171875 19.375 -22.148438 21 -20.109375 C 22.625 -18.078125 23.4375 -15.226562 23.4375 -11.5625 C 23.4375 -7.90625 22.222656 -4.953125 19.796875 -2.703125 C 17.367188 -0.460938 14.414062 0.65625 10.9375 0.65625 C 8.332031 0.65625 5.84375 0.00390625 3.46875 -1.296875 L 3.46875 -34.265625 L 7.671875 -34.265625 Z M 7.671875 -17.15625 L 7.671875 -2.8125 C 9.378906 -1.90625 11.148438 -1.453125 12.984375 -1.453125 C 14.828125 -1.453125 16.304688 -2.351562 17.421875 -4.15625 C 18.546875 -5.96875 19.109375 -8.210938 19.109375 -10.890625 C 19.109375 -13.566406 18.554688 -15.707031 17.453125 -17.3125 C 16.347656 -18.914062 14.960938 -19.984375 13.296875 -20.515625 C 12.390625 -20.453125 11.476562 -20.171875 10.5625 -19.671875 C 9.644531 -19.171875 8.929688 -18.675781 8.421875 -18.1875 C 7.921875 -17.695312 7.671875 -17.351562 7.671875 -17.15625 Z M 7.671875 -17.15625 "/></g></g><g clip-rule="nonzero" clip-path="url(#14230b8aaa)"><path style=" stroke:none;fill-rule:evenodd;fill:#1544cf;fill-opacity:1;" d="M 81.5 107.292969 C 81.277344 106.417969 78.597656 106.347656 75.519531 107.136719 C 72.4375 107.929688 70.121094 109.28125 70.347656 110.15625 C 70.570312 111.03125 73.25 111.101562 76.332031 110.3125 C 79.414062 109.519531 81.726562 108.167969 81.5 107.292969 Z M 106.675781 111.445312 C 106.835938 110.703125 104.671875 109.621094 101.851562 109.023438 C 99.03125 108.429688 96.613281 108.550781 96.460938 109.292969 C 96.304688 110.035156 98.464844 111.121094 101.285156 111.714844 C 104.109375 112.308594 106.519531 112.191406 106.675781 111.445312 Z M 28.363281 141.375 C 35.789062 139.628906 43.078125 134.292969 44.792969 126.449219 C 45.113281 125 44.871094 122.359375 45.601562 120.917969 C 47.074219 118.035156 49.355469 116.109375 52.453125 115.144531 C 55.523438 114.1875 59.949219 114.699219 61.5 117.882812 C 63.609375 122.230469 59.765625 126.609375 56.125 128.328125 C 55.539062 128.609375 54.363281 128.9375 52.617188 129.324219 C 45.25 130.9375 37.269531 136.96875 36.40625 144.976562 C 36.199219 146.894531 36.097656 147.855469 36.09375 147.863281 C 34.921875 153.40625 28.78125 157.0625 23.324219 155.582031 C 18.890625 154.378906 18.152344 149.46875 20.554688 146.070312 C 21.652344 144.515625 23.023438 143.320312 24.660156 142.496094 C 25.277344 142.183594 26.507812 141.8125 28.363281 141.375 Z M 45.414062 118.671875 C 44.902344 117.894531 42.390625 118.65625 39.8125 120.367188 C 37.230469 122.082031 35.558594 124.101562 36.074219 124.875 C 36.589844 125.652344 39.097656 124.890625 41.675781 123.179688 C 44.257812 121.464844 45.929688 119.445312 45.414062 118.671875 Z M 59.90625 138.953125 C 65.542969 138.269531 72.121094 133.1875 68.496094 126.789062 C 68.046875 125.988281 67.785156 125.371094 67.722656 124.921875 C 67.472656 123.101562 68.210938 121.796875 69.941406 121.007812 C 72.265625 119.949219 74.851562 119.695312 77.703125 120.246094 C 80.671875 120.824219 84.359375 122.425781 85.335938 125.386719 C 86.421875 128.65625 82.847656 130.488281 79.960938 130.808594 C 73.320312 131.535156 65.054688 135 68.996094 143.351562 C 69.476562 144.367188 69.722656 145.15625 69.730469 145.714844 C 69.757812 147.074219 69.136719 148.132812 67.878906 148.875 C 63.613281 151.378906 56.867188 150.195312 53.371094 146.820312 C 50.859375 144.390625 51.675781 141.167969 54.945312 139.914062 C 56.472656 139.332031 58.28125 139.144531 59.90625 138.953125 Z M 104.242188 129.085938 C 103.410156 126.90625 100.363281 126.046875 97.4375 127.164062 C 94.507812 128.28125 92.8125 130.953125 93.644531 133.132812 C 94.476562 135.3125 97.519531 136.171875 100.449219 135.054688 C 103.375 133.9375 105.074219 131.261719 104.242188 129.085938 Z M 15.007812 149.8125 C 15.84375 150.246094 17.664062 148.390625 19.074219 145.671875 C 20.484375 142.949219 20.949219 140.398438 20.117188 139.964844 C 19.28125 139.53125 17.464844 141.386719 16.054688 144.109375 C 14.644531 146.828125 14.175781 149.378906 15.007812 149.8125 Z M 43.628906 164.097656 C 46.675781 165.097656 50.015625 163.261719 51.089844 159.992188 C 52.164062 156.722656 50.566406 153.261719 47.519531 152.261719 C 44.476562 151.261719 41.136719 153.097656 40.0625 156.367188 C 38.988281 159.636719 40.585938 163.097656 43.628906 164.097656 Z M 115.730469 188.582031 C 117.125 194.855469 111.695312 199.609375 105.539062 198.523438 C 101.640625 197.835938 99.085938 195.207031 97.433594 191.636719 C 93.625 183.417969 84.179688 178.039062 75.199219 180.105469 C 70.628906 181.15625 66.933594 182.601562 64.101562 186.230469 C 60.789062 190.476562 59.832031 195.375 61.226562 200.929688 C 61.601562 202.417969 62.648438 204.539062 62.960938 206.199219 C 63.839844 210.898438 61.226562 215.074219 56.605469 216.058594 C 52.519531 216.929688 48.335938 215.058594 46.007812 211.640625 C 43.234375 207.578125 43.816406 202.164062 48.078125 199.378906 C 49.316406 198.578125 51.6875 197.96875 53.089844 197.222656 C 60.636719 193.191406 63.300781 184.101562 60.257812 176.347656 C 59.621094 174.730469 59.253906 173.621094 59.148438 173.03125 C 58.261719 167.863281 61.457031 163.691406 66.550781 163.09375 C 71.636719 162.5 75.527344 165.160156 77.695312 169.828125 C 81.601562 178.226562 90.433594 183.132812 99.621094 181.769531 C 101.433594 181.5 103.625 180.476562 105.617188 180.503906 C 110.40625 180.558594 114.679688 183.851562 115.730469 188.582031 Z M 28.894531 171.839844 C 30.351562 171.171875 31.5625 170.191406 32.53125 168.90625 C 33.679688 167.382812 34.792969 165.523438 36.28125 164.78125 C 39.058594 163.398438 41.378906 165.789062 42.179688 168.488281 C 43.109375 171.640625 43.019531 174.71875 41.910156 177.714844 C 41.722656 178.222656 41.085938 179.433594 39.996094 181.34375 C 35.878906 188.554688 34.898438 198.15625 38.273438 205.917969 C 38.90625 207.375 39.292969 208.414062 39.417969 209.039062 C 40.0625 212.132812 39.726562 215.15625 38.414062 218.121094 C 37.464844 220.273438 34.972656 222.960938 32.46875 222.003906 C 28.171875 220.363281 28.53125 212.691406 29.667969 209.359375 C 29.875 208.753906 30.511719 207.507812 31.589844 205.625 C 36.296875 197.371094 36.945312 187.054688 32.078125 178.496094 C 29.597656 174.136719 24.632812 172.789062 20.679688 176.292969 C 19.363281 177.460938 18.207031 178.78125 17.222656 180.246094 C 14.980469 183.582031 11.046875 183.191406 9.605469 179.421875 C 8.070312 175.421875 8.535156 170.1875 11.0625 166.683594 C 12.53125 164.652344 14.980469 163.292969 17.132812 165.21875 C 17.464844 165.511719 18.007812 166.3125 18.757812 167.609375 C 21.007812 171.488281 24.308594 173.941406 28.894531 171.839844 Z M 127.964844 205.695312 C 131.449219 205.859375 134.417969 202.796875 134.597656 198.859375 C 134.773438 194.925781 132.09375 191.605469 128.613281 191.449219 C 125.128906 191.289062 122.160156 194.347656 121.984375 198.285156 C 121.804688 202.21875 124.484375 205.539062 127.964844 205.695312 Z M 19.71875 203.4375 C 20.53125 203.09375 20.160156 200.375 18.890625 197.359375 C 17.613281 194.347656 15.921875 192.179688 15.109375 192.523438 C 14.296875 192.871094 14.664062 195.589844 15.941406 198.601562 C 17.210938 201.617188 18.90625 203.78125 19.71875 203.4375 Z M 89.722656 208.058594 C 89.058594 204.855469 85.527344 202.875 81.839844 203.640625 C 78.144531 204.40625 75.695312 207.625 76.355469 210.832031 C 77.019531 214.03125 80.546875 216.011719 84.242188 215.25 C 87.929688 214.484375 90.386719 211.265625 89.722656 208.058594 Z M 52.800781 228.773438 C 54.503906 227.511719 54.480469 224.582031 52.738281 222.234375 C 50.996094 219.878906 48.207031 218.996094 46.5 220.261719 C 44.792969 221.523438 44.820312 224.453125 46.5625 226.800781 C 48.296875 229.152344 51.09375 230.039062 52.800781 228.773438 Z M 42.226562 234.695312 C 42.820312 234.046875 41.480469 231.867188 39.234375 229.832031 C 36.988281 227.796875 34.691406 226.675781 34.097656 227.324219 C 33.507812 227.976562 34.851562 230.160156 37.09375 232.191406 C 39.339844 234.226562 41.636719 235.347656 42.226562 234.695312 Z M 42.226562 234.695312 "/></g></g></svg>